<svg width="146" height="143" viewBox="0 0 146 143" fill="none" xmlns="http://www.w3.org/2000/svg">
<g opacity="0.4">
<path d="M34.6921 97.9245C25.2089 88.6503 19.3616 76.2859 18.2097 63.0716C17.0578 49.8574 20.6776 36.6677 28.4132 25.8926C36.1487 15.1175 47.4882 7.46975 60.3768 4.33529C73.2655 1.20084 86.8506 2.787 98.6705 8.80637" stroke="white" stroke-miterlimit="10"/>
<path d="M87.49 13.6917C68.9173 8.25303 53.0275 12.1665 39.8206 25.4321C31.4724 33.6781 27.721 44.4533 27.0411 56.8841C26.7453 71.608 32.7933 83.1123 42.8922 93.0316" stroke="#FBB040" stroke-width="4" stroke-miterlimit="10"/>
<path d="M87.6446 12.1646L80.3086 10.4155L79.0832 15.5552L86.4192 17.3042L87.6446 12.1646Z" fill="#FBB040"/>
<path d="M72.3415 10.8948L64.8379 11.6504L65.3673 16.9075L72.8709 16.1519L72.3415 10.8948Z" fill="#FBB040"/>
<path d="M55.8371 13.8375L49.1211 17.2683L51.5248 21.9736L58.2408 18.5428L55.8371 13.8375Z" fill="#FBB040"/>
<path d="M42.7716 21.9439L37.6543 27.4836L41.5355 31.0689L46.6528 25.5291L42.7716 21.9439Z" fill="#FBB040"/>
<path d="M32.4418 33.5557L30.0488 40.7075L35.0595 42.3841L37.4525 35.2322L32.4418 33.5557Z" fill="#FBB040"/>
<path d="M27.9636 47.0083L27.021 54.4907L32.2633 55.1511L33.2058 47.6687L27.9636 47.0083Z" fill="#FBB040"/>
<path d="M26.7527 61.2764L27.5083 68.78L32.7654 68.2507L32.0098 60.747L26.7527 61.2764Z" fill="#FBB040"/>
<path d="M30.4669 76.9846L34.4756 83.3726L38.951 80.564L34.9423 74.1761L30.4669 76.9846Z" fill="#FBB040"/>
<path d="M37.3003 87.9378L42.249 93.6287L46.2361 90.1616L41.2873 84.4707L37.3003 87.9378Z" fill="#FBB040"/>
<path d="M46.0631 73.1578C49.8567 73.1578 52.9319 70.0825 52.9319 66.289C52.9319 62.4954 49.8567 59.4202 46.0631 59.4202C42.2696 59.4202 39.1943 62.4954 39.1943 66.289C39.1943 70.0825 42.2696 73.1578 46.0631 73.1578Z" fill="white"/>
<path d="M109.216 15.813C119.064 24.1272 125.711 35.6096 128.016 48.2898C130.322 60.97 128.142 74.0573 121.851 85.3058C115.56 96.5543 105.551 105.263 93.5399 109.936C81.529 114.61 68.266 114.957 56.0269 110.919" stroke="white" stroke-miterlimit="10"/>
<path d="M43.703 106.892L34.6855 97.9102" stroke="white" stroke-miterlimit="10"/>
<path d="M123.905 35.1472L111.597 38.7753L105.384 61.1887" stroke="white" stroke-miterlimit="10"/>
<path d="M93.5728 43.9078L99.022 31.6003H111.421" stroke="white" stroke-miterlimit="10"/>
<path d="M104.587 66.2889H115.81L121.425 51.949" stroke="white" stroke-miterlimit="10"/>
<path d="M126.526 74.3699L119.699 70.1711L110.013 79.8931" stroke="white" stroke-miterlimit="10"/>
<path d="M88.1201 79.8616L101.484 77.8433L106.208 88.1077" stroke="white" stroke-miterlimit="10"/>
<path d="M95.7681 109.013L98.0295 93.0314L91.52 85.1411" stroke="white" stroke-miterlimit="10"/>
<path d="M106.004 103.134L88.9831 97.0791L82.8047 112.902" stroke="white" stroke-miterlimit="10"/>
<path d="M72.9493 92.1726V101.895L67.2676 108.154" stroke="white" stroke-miterlimit="10"/>
<path d="M91.5192 87.5325C92.8401 87.5325 93.9109 86.4617 93.9109 85.1408C93.9109 83.8198 92.8401 82.749 91.5192 82.749C90.1983 82.749 89.1274 83.8198 89.1274 85.1408C89.1274 86.4617 90.1983 87.5325 91.5192 87.5325Z" fill="white"/>
<path d="M109.397 57.9756C113.19 57.9756 116.265 54.9004 116.265 51.1068C116.265 47.3133 113.19 44.238 109.397 44.238C105.603 44.238 102.528 47.3133 102.528 51.1068C102.528 54.9004 105.603 57.9756 109.397 57.9756Z" fill="#FBB040"/>
<path d="M39.7891 51.132C48.3839 52.4107 75.5103 34.9745 79.3287 30.892C88.7477 22.4381 96.7719 11.8953 103.898 0L106.011 1.05674C104.5 3.31111 102.281 6.72437 99.78 10.9725C90.5864 26.591 86.5074 38.3243 83.8268 44.538C79.6281 54.2881 71.5405 67.4797 54.3685 81.4251C63.1535 63.3091 56.327 54.3656 39.7891 51.132Z" fill="white"/>
<path d="M116.241 69.371C107.561 68.0818 80.167 85.6906 76.3099 89.8013C66.7993 98.3292 58.6977 108.985 51.4978 121L49.3843 119.925C51.4437 116.873 53.3999 113.773 55.2527 110.626C61.8714 99.4423 67.229 87.8534 71.7836 76.0109C79.931 54.4992 90.125 43.4986 101.534 38.7644C92.6471 57.0636 99.537 66.1057 116.241 69.371Z" fill="#FBB040"/>
<path d="M89.1281 99.471C90.449 99.471 91.5198 98.4002 91.5198 97.0793C91.5198 95.7583 90.449 94.6875 89.1281 94.6875C87.8071 94.6875 86.7363 95.7583 86.7363 97.0793C86.7363 98.4002 87.8071 99.471 89.1281 99.471Z" fill="white"/>
<path d="M105.679 89.5308C107 89.5308 108.071 88.46 108.071 87.1391C108.071 85.8181 107 84.7473 105.679 84.7473C104.358 84.7473 103.288 85.8181 103.288 87.1391C103.288 88.46 104.358 89.5308 105.679 89.5308Z" fill="white"/>
<path d="M110.012 82.2855C111.333 82.2855 112.404 81.2146 112.404 79.8937C112.404 78.5728 111.333 77.502 110.012 77.502C108.691 77.502 107.62 78.5728 107.62 79.8937C107.62 81.2146 108.691 82.2855 110.012 82.2855Z" fill="white"/>
<path d="M67.6134 110.274C68.9344 110.274 70.0052 109.203 70.0052 107.882C70.0052 106.561 68.9344 105.49 67.6134 105.49C66.2925 105.49 65.2217 106.561 65.2217 107.882C65.2217 109.203 66.2925 110.274 67.6134 110.274Z" fill="white"/>
<path d="M105.383 63.5799C106.704 63.5799 107.775 62.5091 107.775 61.1881C107.775 59.8672 106.704 58.7964 105.383 58.7964C104.063 58.7964 102.992 59.8672 102.992 61.1881C102.992 62.5091 104.063 63.5799 105.383 63.5799Z" fill="white"/>
<path d="M121.389 54.5706C122.71 54.5706 123.781 53.4998 123.781 52.1789C123.781 50.8579 122.71 49.7871 121.389 49.7871C120.068 49.7871 118.998 50.8579 118.998 52.1789C118.998 53.4998 120.068 54.5706 121.389 54.5706Z" fill="white"/>
<path d="M111.422 33.9917C112.742 33.9917 113.813 32.9209 113.813 31.6C113.813 30.2791 112.742 29.2083 111.422 29.2083C110.101 29.2083 109.03 30.2791 109.03 31.6C109.03 32.9209 110.101 33.9917 111.422 33.9917Z" fill="white"/>
</g>
<path opacity="0.4" d="M1.69141 137.117C1.97526 137.117 2.22396 137.094 2.4375 137.047C2.65365 137 2.82161 136.927 2.94141 136.828C3.0612 136.727 3.12109 136.592 3.12109 136.426C3.12109 136.262 3.05469 136.09 2.92188 135.91C2.79167 135.73 2.60286 135.548 2.35547 135.363C2.11068 135.176 1.8125 134.991 1.46094 134.809L1.84766 134.02C2.15495 134.173 2.4362 134.337 2.69141 134.512C2.94661 134.686 3.16667 134.872 3.35156 135.07C3.53646 135.268 3.67839 135.478 3.77734 135.699C3.87891 135.918 3.92969 136.151 3.92969 136.398C3.92969 136.766 3.84635 137.068 3.67969 137.305C3.51562 137.539 3.27214 137.712 2.94922 137.824C2.6263 137.936 2.22656 137.992 1.75 137.992C1.5625 137.992 1.38411 137.984 1.21484 137.969C1.04818 137.953 0.888021 137.928 0.734375 137.895V137.004C0.903646 137.038 1.07161 137.065 1.23828 137.086C1.40495 137.107 1.55599 137.117 1.69141 137.117ZM5.69531 132.539V137.996H4.85547V132.539H5.69531ZM7.32031 133.75L7.94531 134.375L7.32031 135L6.69531 134.375L7.32031 133.75ZM5.87109 140.113L5.57031 139.309C5.97396 139.22 6.30599 139.094 6.56641 138.93C6.82943 138.768 7.02474 138.565 7.15234 138.32C7.27995 138.078 7.34375 137.79 7.34375 137.457C7.34375 137.228 7.3138 136.98 7.25391 136.715C7.19401 136.449 7.12109 136.189 7.03516 135.934L7.85938 135.66C7.95573 135.934 8.02865 136.215 8.07812 136.504C8.13021 136.793 8.15625 137.073 8.15625 137.344C8.15625 137.828 8.06901 138.26 7.89453 138.641C7.72005 139.021 7.46354 139.337 7.125 139.59C6.78646 139.842 6.36849 140.017 5.87109 140.113ZM9.88281 132.039C9.91667 132.057 9.95052 132.066 9.98438 132.066C10.0365 132.066 10.0898 132.047 10.1445 132.008C10.1992 131.966 10.2682 131.909 10.3516 131.836L10.5625 131.641L10.9648 132.004L10.7305 132.227C10.5951 132.354 10.474 132.451 10.3672 132.516C10.263 132.578 10.1549 132.609 10.043 132.609C9.94141 132.609 9.82161 132.579 9.68359 132.52L9.17969 132.289C9.14323 132.273 9.10938 132.262 9.07812 132.254C9.04948 132.243 9.02083 132.238 8.99219 132.238C8.92969 132.238 8.86328 132.263 8.79297 132.312C8.72526 132.362 8.63542 132.443 8.52344 132.555L8.28516 132.793L7.88281 132.43L8.125 132.18C8.29167 132.008 8.4375 131.882 8.5625 131.801C8.6875 131.72 8.80729 131.68 8.92188 131.68C8.99219 131.68 9.0638 131.691 9.13672 131.715C9.21224 131.738 9.29297 131.77 9.37891 131.809L9.88281 132.039ZM9.92188 133.09V137.996H9.08203V133.09H9.92188ZM15.2188 136.57C15.2188 136.466 15.1771 136.357 15.0938 136.242C15.013 136.125 14.9128 136.009 14.793 135.895C14.6732 135.78 14.5521 135.673 14.4297 135.574C14.3021 135.697 14.1849 135.818 14.0781 135.938C13.974 136.055 13.8906 136.171 13.8281 136.285C13.7682 136.397 13.7383 136.51 13.7383 136.625C13.7383 136.76 13.7995 136.875 13.9219 136.969C14.0443 137.06 14.2279 137.105 14.4727 137.105C14.7279 137.105 14.9154 137.062 15.0352 136.977C15.1576 136.888 15.2188 136.753 15.2188 136.57ZM13.8203 135.039L13.668 134.902L14.1875 134.234C14.4349 134.435 14.668 134.63 14.8867 134.82C15.1081 135.008 15.3047 135.197 15.4766 135.387C15.6484 135.574 15.7826 135.767 15.8789 135.965C15.9779 136.163 16.0273 136.37 16.0273 136.586C16.0273 136.875 15.9622 137.124 15.832 137.332C15.7018 137.54 15.5195 137.702 15.2852 137.816C15.0534 137.928 14.7839 137.984 14.4766 137.984C13.987 137.984 13.6055 137.865 13.332 137.625C13.0612 137.383 12.9258 137.078 12.9258 136.711C12.9258 136.396 13.0065 136.109 13.168 135.852C13.3294 135.594 13.5469 135.323 13.8203 135.039ZM16.9453 132.539H17.7891V136.242C17.7891 136.57 17.8438 136.797 17.9531 136.922C18.0625 137.044 18.25 137.105 18.5156 137.105H18.6094V138H18.5156C17.9792 138 17.5833 137.861 17.3281 137.582C17.0729 137.301 16.9453 136.867 16.9453 136.281V132.539ZM18.8164 133.293V132.793L21.875 131.551V132.051L18.8164 133.293ZM19.6094 134.289C19.7995 134.414 19.9779 134.535 20.1445 134.652C20.3112 134.767 20.4661 134.882 20.6094 134.996C20.7526 135.111 20.8828 135.23 21 135.355C21.1198 135.478 21.2266 135.611 21.3203 135.754C21.4167 135.897 21.5 136.053 21.5703 136.223C21.6562 136.431 21.7409 136.6 21.8242 136.73C21.9102 136.861 22.013 136.956 22.1328 137.016C22.2526 137.076 22.4062 137.105 22.5938 137.105H22.7031V138H22.5938C22.2943 138 22.0404 137.949 21.832 137.848C21.6263 137.743 21.4466 137.574 21.293 137.34C21.1758 137.493 21.0391 137.62 20.8828 137.719C20.7292 137.815 20.5352 137.887 20.3008 137.934C20.069 137.978 19.7734 138 19.4141 138H18.4688V137.105H19.4102C19.7227 137.105 19.9766 137.09 20.1719 137.059C20.3698 137.025 20.5156 136.966 20.6094 136.883C20.7057 136.799 20.7539 136.682 20.7539 136.531C20.7539 136.424 20.7122 136.315 20.6289 136.203C20.5482 136.089 20.4401 135.974 20.3047 135.859C20.1693 135.742 20.0208 135.628 19.8594 135.516C19.6979 135.401 19.5352 135.288 19.3711 135.176C19.207 135.064 19.056 134.954 18.918 134.848C18.8242 134.775 18.7513 134.689 18.6992 134.59C18.6471 134.488 18.6211 134.383 18.6211 134.273C18.6211 134.146 18.6536 134.025 18.7188 133.91C18.7865 133.793 18.8854 133.708 19.0156 133.656L21.9141 132.477V133.355L19.6094 134.289ZM26.1055 132.633L26.6758 133.203L26.1055 133.773L25.5352 133.203L26.1055 132.633ZM26.7812 133.625L27.3516 134.195L26.7812 134.766L26.207 134.195L26.7812 133.625ZM25.4336 133.625L26.0039 134.195L25.4336 134.766L24.8594 134.195L25.4336 133.625ZM27.3555 138C27.1133 138 26.9102 137.951 26.7461 137.852C26.582 137.75 26.4492 137.615 26.3477 137.445C26.207 137.625 26.0391 137.763 25.8438 137.859C25.651 137.953 25.4466 138 25.2305 138C24.9466 138 24.7201 137.952 24.5508 137.855C24.3815 137.757 24.2448 137.621 24.1406 137.449C24.0078 137.624 23.8385 137.759 23.6328 137.855C23.4271 137.952 23.1589 138 22.8281 138H22.5547V137.105H22.8359C23.1484 137.105 23.3802 137.042 23.5312 136.914C23.6849 136.784 23.7617 136.568 23.7617 136.266C23.7617 136.221 23.7591 136.165 23.7539 136.098C23.7513 136.03 23.7461 135.952 23.7383 135.863C23.7331 135.772 23.7266 135.674 23.7188 135.57L24.5156 135.473L24.5859 136.375C24.5938 136.508 24.6224 136.63 24.6719 136.742C24.724 136.852 24.7969 136.94 24.8906 137.008C24.9844 137.073 25.1003 137.105 25.2383 137.105C25.4883 137.105 25.6667 137.03 25.7734 136.879C25.8802 136.728 25.9336 136.523 25.9336 136.266C25.9336 136.224 25.9323 136.169 25.9297 136.102C25.9271 136.031 25.9219 135.952 25.9141 135.863C25.9062 135.772 25.8984 135.674 25.8906 135.57L26.6875 135.473L26.7578 136.375C26.7656 136.5 26.7904 136.618 26.832 136.73C26.8763 136.842 26.9401 136.934 27.0234 137.004C27.1094 137.072 27.2174 137.105 27.3477 137.105C27.4674 137.105 27.5638 137.07 27.6367 137C27.7122 136.93 27.7669 136.832 27.8008 136.707C27.8372 136.579 27.8555 136.435 27.8555 136.273C27.8555 136.18 27.8516 136.066 27.8438 135.934C27.8359 135.798 27.8255 135.648 27.8125 135.484L28.6094 135.387L28.6797 136.375C28.6875 136.523 28.7188 136.652 28.7734 136.762C28.8281 136.871 28.9049 136.956 29.0039 137.016C29.1055 137.076 29.2305 137.105 29.3789 137.105H29.4883V138H29.3867C29.1289 138 28.9076 137.954 28.7227 137.863C28.5404 137.77 28.4076 137.634 28.3242 137.457C28.2148 137.624 28.0859 137.757 27.9375 137.855C27.7891 137.952 27.5951 138 27.3555 138ZM29.7812 138H29.3516V137.105H29.7734C30.0703 137.105 30.2773 137.046 30.3945 136.926C30.5143 136.806 30.5742 136.62 30.5742 136.367C30.5742 136.221 30.5586 136.038 30.5273 135.816C30.4987 135.592 30.4505 135.354 30.3828 135.102L31.2031 134.883C31.2682 135.115 31.3151 135.352 31.3438 135.594C31.3724 135.836 31.3867 136.061 31.3867 136.27C31.3867 136.611 31.3385 136.911 31.2422 137.172C31.1484 137.43 30.9844 137.633 30.75 137.781C30.5182 137.927 30.1953 138 29.7812 138ZM30.4414 133.113L31.0664 133.738L30.4414 134.363L29.8164 133.738L30.4414 133.113ZM33.1562 132.539V137.996H32.3164V132.539H33.1562ZM35.043 137.117C35.3268 137.117 35.5755 137.094 35.7891 137.047C36.0052 137 36.1732 136.927 36.293 136.828C36.4128 136.727 36.4727 136.592 36.4727 136.426C36.4727 136.262 36.4062 136.09 36.2734 135.91C36.1432 135.73 35.9544 135.548 35.707 135.363C35.4622 135.176 35.1641 134.991 34.8125 134.809L35.1992 134.02C35.5065 134.173 35.7878 134.337 36.043 134.512C36.2982 134.686 36.5182 134.872 36.7031 135.07C36.888 135.268 37.0299 135.478 37.1289 135.699C37.2305 135.918 37.2812 136.151 37.2812 136.398C37.2812 136.766 37.1979 137.068 37.0312 137.305C36.8672 137.539 36.6237 137.712 36.3008 137.824C35.9779 137.936 35.5781 137.992 35.1016 137.992C34.9141 137.992 34.7357 137.984 34.5664 137.969C34.3997 137.953 34.2396 137.928 34.0859 137.895V137.004C34.2552 137.038 34.4232 137.065 34.5898 137.086C34.7565 137.107 34.9076 137.117 35.043 137.117ZM42.4531 140.012C41.8906 140.012 41.4349 139.906 41.0859 139.695C40.737 139.487 40.4818 139.206 40.3203 138.852C40.1615 138.497 40.082 138.103 40.082 137.668C40.082 137.447 40.1055 137.193 40.1523 136.906C40.1992 136.62 40.2786 136.32 40.3906 136.008L41.1523 136.309C41.069 136.577 41.0052 136.829 40.9609 137.066C40.9193 137.301 40.8984 137.5 40.8984 137.664C40.8984 137.93 40.9453 138.173 41.0391 138.395C41.1354 138.618 41.2956 138.796 41.5195 138.926C41.7461 139.059 42.0573 139.125 42.4531 139.125C42.8542 139.125 43.1875 139.079 43.4531 138.988C43.7214 138.897 43.9219 138.79 44.0547 138.668C44.1875 138.546 44.2539 138.441 44.2539 138.355C44.2539 138.243 44.2044 138.156 44.1055 138.094C44.0065 138.034 43.8477 138.004 43.6289 138.004H43.0352C42.957 138.004 42.9049 137.979 42.8789 137.93C42.8555 137.88 42.832 137.814 42.8086 137.73L42.6758 137.258C42.6628 137.211 42.6628 137.174 42.6758 137.148C42.6888 137.122 42.724 137.109 42.7812 137.109H45.0273V138.004H44.957C44.9857 138.069 45.0039 138.128 45.0117 138.18C45.0195 138.232 45.0234 138.288 45.0234 138.348C45.0234 138.548 44.9688 138.747 44.8594 138.945C44.7526 139.143 44.5911 139.322 44.375 139.48C44.1589 139.642 43.8906 139.771 43.5703 139.867C43.25 139.964 42.8776 140.012 42.4531 140.012ZM46.0234 134.289C46.2135 134.414 46.3919 134.535 46.5586 134.652C46.7253 134.767 46.8802 134.882 47.0234 134.996C47.1667 135.111 47.2969 135.23 47.4141 135.355C47.5339 135.478 47.6406 135.611 47.7344 135.754C47.8307 135.897 47.9141 136.053 47.9844 136.223C48.0703 136.431 48.1549 136.6 48.2383 136.73C48.3242 136.861 48.4271 136.956 48.5469 137.016C48.6667 137.076 48.8203 137.105 49.0078 137.105H49.1172V138H49.0078C48.7083 138 48.4544 137.949 48.2461 137.848C48.0404 137.743 47.8607 137.574 47.707 137.34C47.5898 137.493 47.4531 137.62 47.2969 137.719C47.1432 137.815 46.9492 137.887 46.7148 137.934C46.4831 137.978 46.1875 138 45.8281 138H44.8828V137.105H45.8242C46.1367 137.105 46.3906 137.09 46.5859 137.059C46.7839 137.025 46.9297 136.966 47.0234 136.883C47.1198 136.799 47.168 136.682 47.168 136.531C47.168 136.424 47.1263 136.315 47.043 136.203C46.9622 136.089 46.8542 135.974 46.7188 135.859C46.5833 135.742 46.4349 135.628 46.2734 135.516C46.112 135.401 45.9492 135.288 45.7852 135.176C45.6211 135.064 45.4701 134.954 45.332 134.848C45.2383 134.775 45.1654 134.689 45.1133 134.59C45.0612 134.488 45.0352 134.383 45.0352 134.273C45.0352 134.146 45.0677 134.025 45.1328 133.91C45.2005 133.793 45.2995 133.708 45.4297 133.656L48.3281 132.477V133.355L46.0234 134.289ZM52.5195 132.633L53.0898 133.203L52.5195 133.773L51.9492 133.203L52.5195 132.633ZM53.1953 133.625L53.7656 134.195L53.1953 134.766L52.6211 134.195L53.1953 133.625ZM51.8477 133.625L52.418 134.195L51.8477 134.766L51.2734 134.195L51.8477 133.625ZM51.6445 138C51.3607 138 51.1341 137.952 50.9648 137.855C50.7956 137.757 50.6589 137.621 50.5547 137.449C50.4219 137.624 50.2526 137.759 50.0469 137.855C49.8411 137.952 49.5729 138 49.2422 138H48.9688V137.105H49.25C49.5625 137.105 49.7943 137.042 49.9453 136.914C50.099 136.784 50.1758 136.568 50.1758 136.266C50.1758 136.221 50.1732 136.165 50.168 136.098C50.1654 136.03 50.1602 135.952 50.1523 135.863C50.1471 135.772 50.1406 135.674 50.1328 135.57L50.9297 135.473L51 136.375C51.0078 136.508 51.0365 136.63 51.0859 136.742C51.138 136.852 51.2109 136.94 51.3047 137.008C51.3984 137.073 51.5143 137.105 51.6523 137.105C51.9023 137.105 52.0807 137.03 52.1875 136.879C52.2943 136.728 52.3477 136.523 52.3477 136.266C52.3477 136.224 52.3464 136.169 52.3438 136.102C52.3411 136.031 52.3359 135.952 52.3281 135.863C52.3203 135.772 52.3125 135.674 52.3047 135.57L53.1016 135.473L53.1719 136.375C53.1797 136.5 53.2044 136.618 53.2461 136.73C53.2904 136.842 53.3542 136.934 53.4375 137.004C53.5208 137.072 53.6263 137.105 53.7539 137.105C53.8737 137.105 53.9701 137.07 54.043 137C54.1185 136.927 54.1732 136.831 54.207 136.711C54.2435 136.589 54.2617 136.453 54.2617 136.305C54.2617 136.141 54.2435 135.957 54.207 135.754C54.1706 135.548 54.1237 135.342 54.0664 135.137L54.8867 134.922C54.9492 135.141 54.9948 135.359 55.0234 135.578C55.0547 135.794 55.0703 136.008 55.0703 136.219C55.0703 136.544 55.0286 136.841 54.9453 137.109C54.8646 137.378 54.7292 137.592 54.5391 137.754C54.349 137.915 54.0911 137.997 53.7656 138C53.5234 138 53.3203 137.951 53.1562 137.852C52.9948 137.75 52.8633 137.615 52.7617 137.445C52.6211 137.625 52.4531 137.763 52.2578 137.859C52.0651 137.953 51.8607 138 51.6445 138ZM56.4062 133.75L57.0312 134.375L56.4062 135L55.7812 134.375L56.4062 133.75ZM57.8789 138C57.7279 138 57.5951 137.982 57.4805 137.945C57.3685 137.906 57.2786 137.862 57.2109 137.812C57.1589 138.18 57.0456 138.521 56.8711 138.836C56.6966 139.151 56.4518 139.419 56.1367 139.641C55.8242 139.862 55.4297 140.02 54.9531 140.113L54.6562 139.309C55.0599 139.22 55.3919 139.094 55.6523 138.93C55.9154 138.768 56.1107 138.565 56.2383 138.32C56.3659 138.078 56.4297 137.79 56.4297 137.457C56.4297 137.228 56.3997 136.98 56.3398 136.715C56.2799 136.449 56.207 136.189 56.1211 135.934L56.9453 135.66L57.1641 136.508C57.2161 136.706 57.2956 136.855 57.4023 136.957C57.5091 137.056 57.6536 137.105 57.8359 137.105H57.9805V138H57.8789ZM57.8281 137.105H58.4102V138H57.8281V137.105ZM58.75 138H58.3203V137.105H58.7422C59.0391 137.105 59.2461 137.046 59.3633 136.926C59.4831 136.806 59.543 136.62 59.543 136.367C59.543 136.221 59.5273 136.038 59.4961 135.816C59.4674 135.592 59.4193 135.354 59.3516 135.102L60.1719 134.883C60.237 135.115 60.2839 135.352 60.3125 135.594C60.3411 135.836 60.3555 136.061 60.3555 136.27C60.3555 136.611 60.3073 136.911 60.2109 137.172C60.1172 137.43 59.9531 137.633 59.7188 137.781C59.487 137.927 59.1641 138 58.75 138ZM58.8398 139.438L59.4102 140.012L58.8398 140.582L58.2695 140.012L58.8398 139.438ZM59.5156 138.445L60.0859 139.02L59.5156 139.59L58.9414 139.02L59.5156 138.445ZM58.168 138.445L58.7383 139.02L58.168 139.59L57.5938 139.02L58.168 138.445ZM66.082 137.246C66.082 137.796 65.9805 138.263 65.7773 138.648C65.5742 139.036 65.2773 139.35 64.8867 139.59C64.4987 139.829 64.026 140.003 63.4688 140.109L63.168 139.305C63.5482 139.229 63.8815 139.128 64.168 139C64.457 138.875 64.6901 138.721 64.8672 138.539C65.0469 138.359 65.1628 138.154 65.2148 137.922C65.1289 137.945 65.0339 137.966 64.9297 137.984C64.8255 138.003 64.7331 138.012 64.6523 138.012C64.1732 138.012 63.8034 137.908 63.543 137.699C63.2852 137.488 63.1562 137.16 63.1562 136.715C63.1562 136.509 63.1849 136.302 63.2422 136.094C63.3021 135.883 63.3893 135.69 63.5039 135.516C63.6211 135.339 63.7669 135.198 63.9414 135.094C64.1159 134.987 64.3177 134.934 64.5469 134.934C64.8203 134.934 65.0534 135 65.2461 135.133C65.4388 135.263 65.5964 135.439 65.7188 135.66C65.8438 135.882 65.9349 136.13 65.9922 136.406C66.0521 136.68 66.082 136.96 66.082 137.246ZM64.6562 137.121C64.7682 137.121 64.8776 137.113 64.9844 137.098C65.0911 137.082 65.1888 137.061 65.2773 137.035C65.2643 136.871 65.2396 136.715 65.2031 136.566C65.1693 136.418 65.1224 136.286 65.0625 136.172C65.0052 136.057 64.9323 135.969 64.8438 135.906C64.7578 135.841 64.6562 135.809 64.5391 135.809C64.388 135.809 64.2695 135.861 64.1836 135.965C64.1003 136.066 64.0417 136.186 64.0078 136.324C63.974 136.46 63.957 136.578 63.957 136.68C63.957 136.849 64.0182 136.965 64.1406 137.027C64.263 137.09 64.4349 137.121 64.6562 137.121ZM71.6211 138C71.4701 138 71.3372 137.982 71.2227 137.945C71.1107 137.906 71.0208 137.862 70.9531 137.812C70.901 138.18 70.7878 138.521 70.6133 138.836C70.4388 139.151 70.194 139.419 69.8789 139.641C69.5664 139.862 69.1719 140.02 68.6953 140.113L68.3984 139.309C68.8021 139.22 69.1341 139.094 69.3945 138.93C69.6576 138.768 69.8529 138.565 69.9805 138.32C70.1081 138.078 70.1719 137.79 70.1719 137.457C70.1719 137.228 70.1419 136.98 70.082 136.715C70.0221 136.449 69.9492 136.189 69.8633 135.934L70.6875 135.66L70.9062 136.508C70.9583 136.706 71.0378 136.855 71.1445 136.957C71.2513 137.056 71.3958 137.105 71.5781 137.105H71.7227V138H71.6211ZM71.5703 137.105H71.8477V138H71.5703V137.105ZM73.293 133.145L73.8945 133.738L73.293 134.344L72.6992 133.738L73.293 133.145ZM71.9883 133.145L72.5898 133.738L71.9883 134.344L71.3906 133.738L71.9883 133.145ZM72.1797 138H71.75V137.105H72.1719C72.4688 137.105 72.6758 137.046 72.793 136.926C72.9128 136.806 72.9727 136.62 72.9727 136.367C72.9727 136.221 72.957 136.038 72.9258 135.816C72.8971 135.592 72.849 135.354 72.7812 135.102L73.6016 134.883C73.6667 135.115 73.7135 135.352 73.7422 135.594C73.7708 135.836 73.7852 136.061 73.7852 136.27C73.7852 136.611 73.737 136.911 73.6406 137.172C73.5469 137.43 73.3828 137.633 73.1484 137.781C72.9167 137.927 72.5938 138 72.1797 138ZM75.8945 134.926C76.1289 134.926 76.3372 134.979 76.5195 135.086C76.7018 135.193 76.8581 135.344 76.9883 135.539C77.1211 135.732 77.2227 135.961 77.293 136.227C77.3659 136.492 77.4089 136.785 77.4219 137.105H77.8125V138H77.3516C77.276 138.341 77.1406 138.652 76.9453 138.934C76.7526 139.215 76.4831 139.456 76.1367 139.656C75.7904 139.857 75.3516 140.008 74.8203 140.109L74.5195 139.305C74.8841 139.232 75.207 139.135 75.4883 139.016C75.7695 138.896 76.0013 138.751 76.1836 138.582C76.3659 138.413 76.4896 138.219 76.5547 138H76.0469C75.5391 138 75.1549 137.896 74.8945 137.688C74.6367 137.479 74.5078 137.155 74.5078 136.715C74.5078 136.517 74.5352 136.314 74.5898 136.105C74.6471 135.895 74.7331 135.701 74.8477 135.523C74.9648 135.344 75.1107 135.199 75.2852 135.09C75.4596 134.98 75.6628 134.926 75.8945 134.926ZM76.0234 137.105H76.6289C76.6159 136.915 76.5911 136.742 76.5547 136.586C76.5208 136.427 76.474 136.29 76.4141 136.176C76.3542 136.059 76.2799 135.969 76.1914 135.906C76.1055 135.841 76.0039 135.809 75.8867 135.809C75.7383 135.809 75.6211 135.861 75.5352 135.965C75.4518 136.066 75.3932 136.185 75.3594 136.32C75.3255 136.456 75.3086 136.576 75.3086 136.68C75.3086 136.844 75.3685 136.956 75.4883 137.016C75.6081 137.076 75.7865 137.105 76.0234 137.105ZM77.6602 137.105H78.3867V138H77.6602V137.105ZM79.4922 135.449L80.2852 135.352L80.3555 136.355C80.3633 136.507 80.3945 136.639 80.4492 136.754C80.5039 136.866 80.582 136.953 80.6836 137.016C80.7878 137.076 80.918 137.105 81.0742 137.105H81.1523V138H81.0664C80.8815 138 80.7188 137.978 80.5781 137.934C80.4375 137.887 80.3151 137.823 80.2109 137.742C80.1094 137.659 80.0208 137.559 79.9453 137.441C79.7995 137.626 79.6133 137.766 79.3867 137.859C79.1628 137.953 78.9271 138 78.6797 138H78.3125V137.105H78.6797C78.9922 137.105 79.2109 137.03 79.3359 136.879C79.4635 136.725 79.5273 136.505 79.5273 136.219C79.5273 136.083 79.5234 135.952 79.5156 135.824C79.5104 135.697 79.5026 135.572 79.4922 135.449ZM79.5 138.566L80.1016 139.164L79.5 139.77L78.9062 139.164L79.5 138.566ZM78.1953 138.566L78.7969 139.164L78.1953 139.77L77.5977 139.164L78.1953 138.566ZM81 137.105H81.582V138H81V137.105ZM82.0117 139.438L82.582 140.012L82.0117 140.582L81.4414 140.012L82.0117 139.438ZM82.6875 138.445L83.2578 139.02L82.6875 139.59L82.1133 139.02L82.6875 138.445ZM81.3398 138.445L81.9102 139.02L81.3398 139.59L80.7656 139.02L81.3398 138.445ZM82.6719 135.449L83.4648 135.352L83.5352 136.355C83.543 136.507 83.5742 136.639 83.6289 136.754C83.6836 136.866 83.7617 136.953 83.8633 137.016C83.9674 137.076 84.0977 137.105 84.2539 137.105H84.332V138H84.2461C84.0612 138 83.8984 137.978 83.7578 137.934C83.6172 137.887 83.4948 137.823 83.3906 137.742C83.2891 137.659 83.2005 137.559 83.125 137.441C82.9792 137.626 82.793 137.766 82.5664 137.859C82.3424 137.953 82.1068 138 81.8594 138H81.4922V137.105H81.8594C82.1719 137.105 82.3906 137.03 82.5156 136.879C82.6432 136.725 82.707 136.505 82.707 136.219C82.707 136.083 82.7031 135.952 82.6953 135.824C82.6901 135.697 82.6823 135.572 82.6719 135.449ZM86.7266 135.887C86.6068 135.887 86.4974 135.927 86.3984 136.008C86.3021 136.086 86.2148 136.186 86.1367 136.309C86.0612 136.431 85.9948 136.553 85.9375 136.676C86.0182 136.754 86.0964 136.823 86.1719 136.883C86.2474 136.943 86.3203 136.993 86.3906 137.035C86.4922 137.098 86.5872 137.143 86.6758 137.172C86.7643 137.201 86.8438 137.215 86.9141 137.215C87.0833 137.215 87.207 137.165 87.2852 137.066C87.3659 136.967 87.4062 136.836 87.4062 136.672C87.4062 136.448 87.3464 136.262 87.2266 136.113C87.1068 135.962 86.9401 135.887 86.7266 135.887ZM86.9141 138.09C86.737 138.09 86.569 138.064 86.4102 138.012C86.2539 137.96 86.1003 137.885 85.9492 137.789C85.7982 137.693 85.6445 137.577 85.4883 137.441C85.3841 137.553 85.2812 137.652 85.1797 137.738C85.0807 137.822 84.9661 137.887 84.8359 137.934C84.7057 137.978 84.5443 138 84.3516 138H84.1875V137.105H84.332C84.4857 137.105 84.6185 137.056 84.7305 136.957C84.8424 136.855 84.9453 136.727 85.0391 136.57C85.1354 136.411 85.2318 136.243 85.3281 136.066C85.4271 135.889 85.5378 135.721 85.6602 135.562C85.7826 135.404 85.9271 135.275 86.0938 135.176C86.263 135.077 86.4661 135.027 86.7031 135.027C87.0104 135.027 87.276 135.1 87.5 135.246C87.7266 135.392 87.901 135.587 88.0234 135.832C88.1484 136.074 88.2109 136.341 88.2109 136.633C88.2109 136.927 88.1615 137.184 88.0625 137.402C87.9635 137.618 87.8177 137.788 87.625 137.91C87.4323 138.03 87.1953 138.09 86.9141 138.09ZM89.1328 132.539H89.9766V136.242C89.9766 136.57 90.0312 136.797 90.1406 136.922C90.25 137.044 90.4375 137.105 90.7031 137.105H90.7969V138H90.7031C90.1667 138 89.7708 137.861 89.5156 137.582C89.2604 137.301 89.1328 136.867 89.1328 136.281V132.539ZM91.7969 134.289C91.9896 134.417 92.181 134.546 92.3711 134.676C92.5612 134.806 92.7396 134.94 92.9062 135.078C93.0729 135.216 93.2201 135.362 93.3477 135.516C93.4779 135.669 93.5794 135.832 93.6523 136.004C93.7253 136.173 93.7617 136.354 93.7617 136.547C93.7617 136.909 93.6797 137.195 93.5156 137.406C93.3516 137.617 93.1081 137.77 92.7852 137.863C92.4648 137.954 92.0703 138 91.6016 138H90.6562V137.105H91.5977C91.9102 137.105 92.1641 137.09 92.3594 137.059C92.5573 137.025 92.7031 136.966 92.7969 136.883C92.8932 136.799 92.9414 136.682 92.9414 136.531C92.9414 136.424 92.8997 136.315 92.8164 136.203C92.7357 136.089 92.6276 135.974 92.4922 135.859C92.3568 135.742 92.2083 135.628 92.0469 135.516C91.8854 135.401 91.7227 135.288 91.5586 135.176C91.3945 135.064 91.2435 134.954 91.1055 134.848C91.0117 134.775 90.9388 134.69 90.8867 134.594C90.8346 134.495 90.8086 134.391 90.8086 134.281C90.8086 134.156 90.8424 134.034 90.9102 133.914C90.9779 133.794 91.0755 133.708 91.2031 133.656L94.1016 132.477V133.355L91.7969 134.289ZM99.1328 140.012C98.5703 140.012 98.1146 139.906 97.7656 139.695C97.4167 139.487 97.1615 139.206 97 138.852C96.8411 138.497 96.7617 138.103 96.7617 137.668C96.7617 137.447 96.7852 137.193 96.832 136.906C96.8789 136.62 96.9583 136.32 97.0703 136.008L97.832 136.309C97.7487 136.577 97.6849 136.829 97.6406 137.066C97.599 137.301 97.5781 137.5 97.5781 137.664C97.5781 137.93 97.625 138.173 97.7188 138.395C97.8151 138.618 97.9753 138.796 98.1992 138.926C98.4258 139.059 98.737 139.125 99.1328 139.125C99.5339 139.125 99.8672 139.079 100.133 138.988C100.401 138.897 100.602 138.79 100.734 138.668C100.867 138.546 100.934 138.441 100.934 138.355C100.934 138.243 100.884 138.156 100.785 138.094C100.686 138.034 100.527 138.004 100.309 138.004H99.7148C99.6367 138.004 99.5846 137.979 99.5586 137.93C99.5352 137.88 99.5117 137.814 99.4883 137.73L99.3555 137.258C99.3424 137.211 99.3424 137.174 99.3555 137.148C99.3685 137.122 99.4036 137.109 99.4609 137.109H101.707V138.004H101.637C101.665 138.069 101.684 138.128 101.691 138.18C101.699 138.232 101.703 138.288 101.703 138.348C101.703 138.548 101.648 138.747 101.539 138.945C101.432 139.143 101.271 139.322 101.055 139.48C100.839 139.642 100.57 139.771 100.25 139.867C99.9297 139.964 99.5573 140.012 99.1328 140.012ZM104.238 138C103.954 138 103.728 137.952 103.559 137.855C103.389 137.757 103.253 137.621 103.148 137.449C103.016 137.624 102.846 137.759 102.641 137.855C102.435 137.952 102.167 138 101.836 138H101.562V137.105H101.844C102.156 137.105 102.388 137.042 102.539 136.914C102.693 136.784 102.77 136.568 102.77 136.266C102.77 136.221 102.767 136.165 102.762 136.098C102.759 136.03 102.754 135.952 102.746 135.863C102.741 135.772 102.734 135.674 102.727 135.57L103.523 135.473L103.594 136.375C103.602 136.508 103.63 136.63 103.68 136.742C103.732 136.852 103.805 136.94 103.898 137.008C103.992 137.073 104.108 137.105 104.246 137.105C104.496 137.105 104.674 137.03 104.781 136.879C104.888 136.728 104.941 136.523 104.941 136.266C104.941 136.224 104.94 136.169 104.938 136.102C104.935 136.031 104.93 135.952 104.922 135.863C104.914 135.772 104.906 135.674 104.898 135.57L105.695 135.473L105.766 136.375C105.773 136.5 105.798 136.618 105.84 136.73C105.884 136.842 105.948 136.934 106.031 137.004C106.115 137.072 106.22 137.105 106.348 137.105C106.467 137.105 106.564 137.07 106.637 137C106.712 136.927 106.767 136.831 106.801 136.711C106.837 136.589 106.855 136.453 106.855 136.305C106.855 136.141 106.837 135.957 106.801 135.754C106.764 135.548 106.717 135.342 106.66 135.137L107.48 134.922C107.543 135.141 107.589 135.359 107.617 135.578C107.648 135.794 107.664 136.008 107.664 136.219C107.664 136.544 107.622 136.841 107.539 137.109C107.458 137.378 107.323 137.592 107.133 137.754C106.943 137.915 106.685 137.997 106.359 138C106.117 138 105.914 137.951 105.75 137.852C105.589 137.75 105.457 137.615 105.355 137.445C105.215 137.625 105.047 137.763 104.852 137.859C104.659 137.953 104.454 138 104.238 138ZM110.621 136.461C110.621 136.396 110.605 136.31 110.574 136.203C110.546 136.094 110.513 135.997 110.477 135.914L109.75 134.289L110.5 133.93L111.422 136.082C111.523 136.319 111.613 136.513 111.691 136.664C111.77 136.815 111.85 136.927 111.934 137C112.017 137.07 112.117 137.105 112.234 137.105H112.398V138H112.234C112.034 138 111.866 137.975 111.73 137.926C111.595 137.876 111.478 137.805 111.379 137.711C111.28 137.615 111.184 137.499 111.09 137.363C110.965 137.504 110.819 137.621 110.652 137.715C110.488 137.809 110.299 137.879 110.086 137.926C109.875 137.973 109.633 137.996 109.359 137.996C109.159 137.996 108.982 137.988 108.828 137.973C108.677 137.954 108.529 137.928 108.383 137.895V137.004C108.542 137.04 108.699 137.068 108.855 137.086C109.012 137.104 109.16 137.113 109.301 137.113C109.564 137.113 109.793 137.091 109.988 137.047C110.186 137.003 110.341 136.932 110.453 136.836C110.565 136.74 110.621 136.615 110.621 136.461ZM113.43 135.449L114.223 135.352L114.293 136.355C114.301 136.507 114.332 136.639 114.387 136.754C114.441 136.866 114.52 136.953 114.621 137.016C114.725 137.076 114.855 137.105 115.012 137.105H115.09V138H115.004C114.819 138 114.656 137.978 114.516 137.934C114.375 137.887 114.253 137.823 114.148 137.742C114.047 137.659 113.958 137.559 113.883 137.441C113.737 137.626 113.551 137.766 113.324 137.859C113.1 137.953 112.865 138 112.617 138H112.25V137.105H112.617C112.93 137.105 113.148 137.03 113.273 136.879C113.401 136.725 113.465 136.505 113.465 136.219C113.465 136.083 113.461 135.952 113.453 135.824C113.448 135.697 113.44 135.572 113.43 135.449ZM113.562 133.461L114.188 134.086L113.562 134.711L112.938 134.086L113.562 133.461ZM114.945 138V137.105H115.676V137.027C115.676 136.762 115.702 136.487 115.754 136.203C115.806 135.919 115.889 135.655 116.004 135.41C116.118 135.165 116.27 134.967 116.457 134.816C116.645 134.665 116.874 134.59 117.145 134.59C117.379 134.59 117.579 134.646 117.746 134.758C117.913 134.87 118.04 135.025 118.129 135.223C118.22 135.418 118.266 135.642 118.266 135.895C118.266 136.137 118.219 136.376 118.125 136.613C118.031 136.848 117.902 137.064 117.738 137.262C117.577 137.46 117.392 137.624 117.184 137.754C116.978 137.884 116.76 137.964 116.531 137.992C116.562 138.109 116.612 138.228 116.68 138.348C116.747 138.47 116.828 138.587 116.922 138.699C117.018 138.811 117.124 138.908 117.238 138.988C117.264 138.71 117.323 138.454 117.414 138.223C117.505 137.993 117.624 137.796 117.77 137.629C117.918 137.462 118.091 137.333 118.289 137.242C118.49 137.151 118.71 137.105 118.949 137.105H119.074V138H118.941C118.77 138 118.621 138.022 118.496 138.066C118.374 138.111 118.273 138.18 118.195 138.273C118.117 138.367 118.059 138.487 118.02 138.633C117.983 138.781 117.965 138.957 117.965 139.16C117.965 139.22 117.966 139.284 117.969 139.352C117.971 139.419 117.975 139.486 117.98 139.551L117.41 140.098C117.134 139.96 116.88 139.781 116.648 139.562C116.419 139.346 116.225 139.104 116.066 138.836C115.91 138.568 115.802 138.289 115.742 138H114.945ZM117.121 135.453C117.012 135.453 116.915 135.499 116.832 135.59C116.751 135.678 116.684 135.798 116.629 135.949C116.574 136.098 116.533 136.266 116.504 136.453C116.478 136.641 116.465 136.832 116.465 137.027V137.109C116.658 137.102 116.833 137.044 116.992 136.938C117.154 136.828 117.281 136.685 117.375 136.508C117.471 136.331 117.52 136.139 117.52 135.934C117.52 135.78 117.483 135.661 117.41 135.578C117.337 135.495 117.241 135.453 117.121 135.453ZM121.469 135.887C121.349 135.887 121.24 135.927 121.141 136.008C121.044 136.086 120.957 136.186 120.879 136.309C120.803 136.431 120.737 136.553 120.68 136.676C120.76 136.754 120.839 136.823 120.914 136.883C120.99 136.943 121.062 136.993 121.133 137.035C121.234 137.098 121.329 137.143 121.418 137.172C121.507 137.201 121.586 137.215 121.656 137.215C121.826 137.215 121.949 137.165 122.027 137.066C122.108 136.967 122.148 136.836 122.148 136.672C122.148 136.448 122.089 136.262 121.969 136.113C121.849 135.962 121.682 135.887 121.469 135.887ZM121.656 138.09C121.479 138.09 121.311 138.064 121.152 138.012C120.996 137.96 120.842 137.885 120.691 137.789C120.54 137.693 120.387 137.577 120.23 137.441C120.126 137.553 120.023 137.652 119.922 137.738C119.823 137.822 119.708 137.887 119.578 137.934C119.448 137.978 119.286 138 119.094 138H118.93V137.105H119.074C119.228 137.105 119.361 137.056 119.473 136.957C119.585 136.855 119.688 136.727 119.781 136.57C119.878 136.411 119.974 136.243 120.07 136.066C120.169 135.889 120.28 135.721 120.402 135.562C120.525 135.404 120.669 135.275 120.836 135.176C121.005 135.077 121.208 135.027 121.445 135.027C121.753 135.027 122.018 135.1 122.242 135.246C122.469 135.392 122.643 135.587 122.766 135.832C122.891 136.074 122.953 136.341 122.953 136.633C122.953 136.927 122.904 137.184 122.805 137.402C122.706 137.618 122.56 137.788 122.367 137.91C122.174 138.03 121.938 138.09 121.656 138.09ZM128.078 134.82L128.703 135.445L128.078 136.07L127.453 135.445L128.078 134.82ZM128.125 139.125C128.534 139.125 128.852 139.059 129.078 138.926C129.307 138.796 129.469 138.62 129.562 138.398C129.659 138.18 129.707 137.939 129.707 137.676C129.707 137.379 129.663 137.081 129.574 136.781C129.488 136.479 129.401 136.215 129.312 135.988L130.145 135.668L130.445 136.598C130.495 136.749 130.572 136.871 130.676 136.965C130.783 137.059 130.934 137.105 131.129 137.105H131.277V138H131.145C130.993 138 130.872 137.987 130.781 137.961C130.69 137.932 130.605 137.884 130.527 137.816C130.501 138.254 130.397 138.637 130.215 138.965C130.033 139.296 129.768 139.552 129.422 139.734C129.076 139.919 128.643 140.012 128.125 140.012C127.562 140.012 127.107 139.906 126.758 139.695C126.409 139.487 126.154 139.206 125.992 138.852C125.833 138.497 125.754 138.103 125.754 137.668C125.754 137.376 125.784 137.077 125.844 136.77C125.906 136.46 125.993 136.156 126.105 135.859L126.871 136.16C126.788 136.413 126.716 136.668 126.656 136.926C126.599 137.184 126.57 137.43 126.57 137.664C126.57 137.93 126.617 138.173 126.711 138.395C126.807 138.618 126.967 138.796 127.191 138.926C127.418 139.059 127.729 139.125 128.125 139.125ZM131.297 138H131.133V137.105H131.277C131.431 137.105 131.564 137.056 131.676 136.957C131.788 136.855 131.891 136.727 131.984 136.57C132.081 136.411 132.177 136.243 132.273 136.066C132.372 135.889 132.483 135.721 132.605 135.562C132.728 135.404 132.872 135.275 133.039 135.176C133.208 135.077 133.411 135.027 133.648 135.027C133.932 135.027 134.174 135.086 134.375 135.203C134.578 135.32 134.742 135.48 134.867 135.684C134.995 135.884 135.082 136.111 135.129 136.363C135.163 136.533 135.211 136.673 135.273 136.785C135.336 136.895 135.409 136.975 135.492 137.027C135.578 137.079 135.669 137.105 135.766 137.105H135.867V138H135.762C135.595 138 135.431 137.964 135.27 137.891C135.111 137.818 134.982 137.716 134.883 137.586C134.766 137.747 134.626 137.872 134.465 137.961C134.303 138.047 134.102 138.09 133.859 138.09C133.682 138.09 133.514 138.064 133.355 138.012C133.199 137.96 133.046 137.885 132.895 137.789C132.743 137.693 132.59 137.577 132.434 137.441C132.329 137.553 132.227 137.652 132.125 137.738C132.026 137.822 131.911 137.887 131.781 137.934C131.651 137.978 131.49 138 131.297 138ZM133.672 135.887C133.552 135.887 133.443 135.927 133.344 136.008C133.247 136.086 133.16 136.186 133.082 136.309C133.007 136.431 132.94 136.553 132.883 136.676C132.966 136.759 133.048 136.832 133.129 136.895C133.21 136.957 133.286 137.009 133.359 137.051C133.458 137.108 133.549 137.15 133.633 137.176C133.719 137.202 133.794 137.215 133.859 137.215C134.029 137.215 134.152 137.165 134.23 137.066C134.311 136.967 134.352 136.836 134.352 136.672C134.352 136.448 134.292 136.262 134.172 136.113C134.052 135.962 133.885 135.887 133.672 135.887ZM138.391 138.539L139.016 139.164L138.391 139.789L137.766 139.164L138.391 138.539ZM141.395 137.105V138H141.168C140.829 138 140.544 137.966 140.312 137.898C140.081 137.828 139.897 137.719 139.762 137.57C139.626 137.422 139.533 137.229 139.48 136.992C139.147 137.172 138.81 137.339 138.469 137.492C138.13 137.646 137.786 137.77 137.438 137.863C137.091 137.954 136.733 138 136.363 138H135.719V137.105H136.375C136.753 137.105 137.107 137.06 137.438 136.969C137.771 136.875 138.104 136.75 138.438 136.594C138.771 136.438 139.128 136.26 139.508 136.062C139.411 136.023 139.315 135.984 139.219 135.945C139.125 135.906 139.029 135.867 138.93 135.828C138.831 135.786 138.728 135.746 138.621 135.707C138.486 135.652 138.366 135.607 138.262 135.57C138.16 135.531 138.072 135.501 137.996 135.48C137.923 135.46 137.863 135.449 137.816 135.449C137.665 135.449 137.52 135.495 137.379 135.586C137.241 135.674 137.128 135.776 137.039 135.891L136.891 136.082L136.172 135.73L136.281 135.551C136.456 135.264 136.674 135.03 136.938 134.848C137.201 134.665 137.495 134.574 137.82 134.574C138.023 134.574 138.229 134.613 138.438 134.691C138.648 134.77 138.868 134.863 139.098 134.973C139.319 135.082 139.516 135.174 139.688 135.25C139.859 135.326 140.016 135.387 140.156 135.434C140.297 135.48 140.431 135.516 140.559 135.539C140.689 135.562 140.822 135.578 140.957 135.586V136.422C140.829 136.435 140.697 136.46 140.559 136.496C140.423 136.533 140.271 136.589 140.102 136.664C140.117 136.771 140.172 136.857 140.266 136.922C140.359 136.987 140.484 137.034 140.641 137.062C140.797 137.091 140.978 137.105 141.184 137.105H141.395ZM141.68 138H141.25V137.105H141.672C141.969 137.105 142.176 137.046 142.293 136.926C142.413 136.806 142.473 136.62 142.473 136.367C142.473 136.221 142.457 136.038 142.426 135.816C142.397 135.592 142.349 135.354 142.281 135.102L143.102 134.883C143.167 135.115 143.214 135.352 143.242 135.594C143.271 135.836 143.285 136.061 143.285 136.27C143.285 136.611 143.237 136.911 143.141 137.172C143.047 137.43 142.883 137.633 142.648 137.781C142.417 137.927 142.094 138 141.68 138ZM142.34 133.113L142.965 133.738L142.34 134.363L141.715 133.738L142.34 133.113ZM145.055 132.539V137.996H144.215V132.539H145.055Z" fill="white"/>
</svg>
