<svg width="48" height="51" viewBox="0 0 48 51" fill="none" xmlns="http://www.w3.org/2000/svg">
<path d="M7.92281 41.2739C3.98971 37.365 1.56458 32.1535 1.08685 26.5839C0.609127 21.0142 2.11041 15.4549 5.31868 10.9133C8.52694 6.37176 13.2299 3.14835 18.5754 1.82721C23.9209 0.506079 29.5552 1.17463 34.4574 3.71172" stroke="#3C6382" stroke-miterlimit="10"/>
<path d="M29.8206 5.77094C22.1176 3.4786 15.5275 5.12808 10.05 10.7194C6.58762 14.195 5.03175 18.7366 4.74979 23.976C4.62707 30.1819 7.13546 35.0309 11.3239 39.2117" stroke="#FBB040" stroke-width="2" stroke-miterlimit="10"/>
<path d="M29.8848 5.12721L26.8423 4.39001L26.3341 6.5563L29.3766 7.2935L29.8848 5.12721Z" fill="#FBB040"/>
<path d="M23.5377 4.5923L20.4257 4.91077L20.6452 7.12657L23.7573 6.8081L23.5377 4.5923Z" fill="#FBB040"/>
<path d="M16.6925 5.83202L13.9071 7.27808L14.904 9.2613L17.6894 7.81524L16.6925 5.83202Z" fill="#FBB040"/>
<path d="M11.2739 9.24881L9.15149 11.5837L10.7612 13.0949L12.8835 10.7599L11.2739 9.24881Z" fill="#FBB040"/>
<path d="M6.98979 14.1433L5.99731 17.1577L8.07545 17.8644L9.06792 14.8499L6.98979 14.1433Z" fill="#FBB040"/>
<path d="M5.13239 19.8135L4.74146 22.9673L6.91565 23.2456L7.30658 20.0919L5.13239 19.8135Z" fill="#FBB040"/>
<path d="M4.63023 25.8274L4.9436 28.9901L7.12395 28.767L6.81058 25.6043L4.63023 25.8274Z" fill="#FBB040"/>
<path d="M6.17043 32.4479L7.83301 35.1404L9.68917 33.9566L8.02658 31.2642L6.17043 32.4479Z" fill="#FBB040"/>
<path d="M9.00456 37.0645L11.057 39.4631L12.7106 38.0018L10.6582 35.6032L9.00456 37.0645Z" fill="#FBB040"/>
<path d="M12.6389 30.8351C14.2123 30.8351 15.4877 29.539 15.4877 27.94C15.4877 26.3411 14.2123 25.0449 12.6389 25.0449C11.0656 25.0449 9.79016 26.3411 9.79016 27.94C9.79016 29.539 11.0656 30.8351 12.6389 30.8351Z" fill="#3C6382"/>
<path d="M38.8313 6.66467C42.9156 10.169 45.6724 15.0087 46.6286 20.3532C47.5848 25.6978 46.6808 31.2139 44.0717 35.955C41.4626 40.6961 37.3112 44.3666 32.3298 46.3364C27.3483 48.3063 21.8476 48.4528 16.7715 46.7508" stroke="#3C6382" stroke-miterlimit="10"/>
<path d="M11.66 45.054L7.92004 41.2681" stroke="#3C6382" stroke-miterlimit="10"/>
<path d="M44.9233 14.814L39.8189 16.3432L37.2418 25.7901" stroke="#3C6382" stroke-width="0.5" stroke-miterlimit="10"/>
<path d="M32.3431 18.5064L34.6032 13.319H39.7456" stroke="#3C6382" stroke-width="0.5" stroke-miterlimit="10"/>
<path d="M36.9115 27.94H41.566L43.8947 21.8959" stroke="#3C6382" stroke-width="0.5" stroke-miterlimit="10"/>
<path d="M46.0104 31.3459L43.1791 29.5762L39.1616 33.6739" stroke="#3C6382" stroke-width="0.5" stroke-miterlimit="10"/>
<path d="M30.0818 33.6604L35.6245 32.8097L37.5836 37.136" stroke="#3C6382" stroke-width="0.5" stroke-miterlimit="10"/>
<path d="M33.2537 45.9476L34.1916 39.2116L31.4918 35.886" stroke="#3C6382" stroke-width="0.5" stroke-miterlimit="10"/>
<path d="M37.499 43.4698L30.4399 40.9176L27.8774 47.5867" stroke="#3C6382" stroke-width="0.5" stroke-miterlimit="10"/>
<path d="M23.7898 38.8494V42.9471L21.4333 45.5853" stroke="#3C6382" stroke-width="0.5" stroke-miterlimit="10"/>
<path d="M31.4917 36.894C32.0396 36.894 32.4837 36.4427 32.4837 35.8859C32.4837 35.3291 32.0396 34.8778 31.4917 34.8778C30.9439 34.8778 30.4998 35.3291 30.4998 35.8859C30.4998 36.4427 30.9439 36.894 31.4917 36.894Z" fill="#3C6382"/>
<path d="M38.906 24.4361C40.4794 24.4361 41.7548 23.1399 41.7548 21.541C41.7548 19.9421 40.4794 18.6459 38.906 18.6459C37.3327 18.6459 36.0573 19.9421 36.0573 21.541C36.0573 23.1399 37.3327 24.4361 38.906 24.4361Z" fill="#FBB040"/>
<path d="M10.0369 21.5515C13.6015 22.0904 24.852 14.7413 26.4356 13.0206C30.3421 9.45736 33.6701 5.01374 36.6255 0L37.5021 0.445402C36.8754 1.39559 35.955 2.83424 34.9177 4.62475C31.1047 11.2078 29.413 16.1532 28.3012 18.7722C26.5598 22.8818 23.2056 28.4419 16.0836 34.3197C19.7271 26.684 16.8959 22.9144 10.0369 21.5515Z" fill="#3C6382"/>
<path d="M41.7447 29.2392C38.145 28.6958 26.7834 36.1177 25.1837 37.8503C21.2392 41.4447 17.8791 45.9358 14.893 51L14.0165 50.5472C14.8706 49.2605 15.6819 47.954 16.4504 46.6277C19.1954 41.9138 21.4175 37.0293 23.3064 32.0378C26.6855 22.9709 30.9134 18.3343 35.6453 16.3389C31.9595 24.0517 34.817 27.8629 41.7447 29.2392Z" fill="#FBB040"/>
<path d="M30.5 41.9257C31.0479 41.9257 31.492 41.4744 31.492 40.9176C31.492 40.3609 31.0479 39.9095 30.5 39.9095C29.9522 39.9095 29.5081 40.3609 29.5081 40.9176C29.5081 41.4744 29.9522 41.9257 30.5 41.9257Z" fill="#3C6382"/>
<path d="M37.3644 37.7359C37.9122 37.7359 38.3564 37.2846 38.3564 36.7278C38.3564 36.1711 37.9122 35.7197 37.3644 35.7197C36.8166 35.7197 36.3724 36.1711 36.3724 36.7278C36.3724 37.2846 36.8166 37.7359 37.3644 37.7359Z" fill="#3C6382"/>
<path d="M39.1613 34.682C39.7091 34.682 40.1532 34.2306 40.1532 33.6739C40.1532 33.1171 39.7091 32.6658 39.1613 32.6658C38.6134 32.6658 38.1693 33.1171 38.1693 33.6739C38.1693 34.2306 38.6134 34.682 39.1613 34.682Z" fill="#3C6382"/>
<path d="M21.5768 46.4792C22.1246 46.4792 22.5688 46.0279 22.5688 45.4711C22.5688 44.9143 22.1246 44.463 21.5768 44.463C21.029 44.463 20.5848 44.9143 20.5848 45.4711C20.5848 46.0279 21.029 46.4792 21.5768 46.4792Z" fill="#3C6382"/>
<path d="M37.2417 26.7983C37.7896 26.7983 38.2337 26.347 38.2337 25.7902C38.2337 25.2334 37.7896 24.7821 37.2417 24.7821C36.6939 24.7821 36.2498 25.2334 36.2498 25.7902C36.2498 26.347 36.6939 26.7983 37.2417 26.7983Z" fill="#3C6382"/>
<path d="M43.8801 23.0007C44.428 23.0007 44.8721 22.5493 44.8721 21.9926C44.8721 21.4358 44.428 20.9845 43.8801 20.9845C43.3323 20.9845 42.8882 21.4358 42.8882 21.9926C42.8882 22.5493 43.3323 23.0007 43.8801 23.0007Z" fill="#3C6382"/>
<path d="M39.7459 14.3271C40.2937 14.3271 40.7378 13.8758 40.7378 13.319C40.7378 12.7623 40.2937 12.3109 39.7459 12.3109C39.198 12.3109 38.7539 12.7623 38.7539 13.319C38.7539 13.8758 39.198 14.3271 39.7459 14.3271Z" fill="#3C6382"/>
</svg>
