<svg xmlns="http://www.w3.org/2000/svg" viewBox="0 0 318 343.54"><defs><style>.cls-1,.cls-2,.cls-5{fill:none;stroke-miterlimit:10;}.cls-1,.cls-5{stroke:#2b3990;}.cls-1{stroke-width:3px;}.cls-2{stroke:#fbb040;stroke-width:12px;}.cls-3{fill:#fbb040;}.cls-4{fill:#2b3990;}.cls-5{stroke-width:2px;}</style></defs><g id="Layer_2" data-name="Layer 2"><g id="Layer_1-2" data-name="Layer 1"><path class="cls-1" d="M49,278A157.53,157.53,0,0,1,230.63,25"/><path class="cls-2" d="M198.89,38.87Q119.8,15.71,63.56,72.2c-23.7,23.41-34.35,54-36.28,89.29-.84,41.8,16.33,74.46,45,102.62"/><rect class="cls-3" x="176.47" y="31.85" width="21.41" height="15" transform="translate(14.23 -42.34) rotate(13.41)"/><rect class="cls-3" x="135.28" y="31.97" width="21.41" height="15" transform="translate(-3.22 14.82) rotate(-5.75)"/><rect class="cls-3" x="92.2" y="43.34" width="21.41" height="15" transform="translate(-11.86 52.37) rotate(-27.06)"/><rect class="cls-3" x="59.48" y="67.74" width="21.41" height="15" transform="translate(-32.71 75.75) rotate(-47.27)"/><rect class="cls-3" x="35.62" y="100.3" width="21.41" height="15" transform="translate(-70.6 117.52) rotate(-71.5)"/><rect class="cls-3" x="25.3" y="137.52" width="21.41" height="15" transform="translate(-112.38 162.61) rotate(-82.82)"/><rect class="cls-3" x="24.3" y="176.36" width="21.41" height="15" transform="translate(-144.43 237.11) rotate(-95.75)"/><rect class="cls-3" x="38.36" y="216.16" width="21.41" height="15" transform="translate(-114.32 384.08) rotate(-122.11)"/><rect class="cls-3" x="58.38" y="245.3" width="21.41" height="15" transform="translate(-76.34 470.82) rotate(-131.01)"/><circle class="cls-4" cx="81.28" cy="188.19" r="19.5"/><path class="cls-1" d="M260.57,44.89a157.55,157.55,0,0,1-151,270"/><line class="cls-1" x1="74.58" y1="303.46" x2="48.98" y2="277.96"/><polyline class="cls-5" points="302.27 99.78 267.33 110.08 249.69 173.71"/><polyline class="cls-5" points="216.16 124.65 231.63 89.71 266.83 89.71"/><polyline class="cls-5" points="247.43 188.19 279.29 188.19 295.23 147.48"/><polyline class="cls-5" points="309.71 211.13 290.33 199.21 262.83 226.81"/><polyline class="cls-5" points="200.68 226.72 238.62 220.99 252.03 250.13"/><polyline class="cls-5" points="222.39 309.48 228.81 264.11 210.33 241.71"/><polyline class="cls-5" points="251.45 292.79 203.13 275.6 185.59 320.52"/><polyline class="cls-5" points="157.61 261.67 157.61 289.27 141.48 307.04"/><circle class="cls-4" cx="210.33" cy="241.71" r="6.79"/><circle class="cls-3" cx="261.08" cy="145.09" r="19.5"/><path class="cls-4" d="M63.47,145.16c24.4,3.63,101.41-45.87,112.25-57.46,26.74-24,49.52-53.93,69.75-87.7l6,3c-4.29,6.4-10.59,16.09-17.69,28.15-26.1,44.34-37.68,77.65-45.29,95.29-11.92,27.68-34.88,65.13-83.63,104.72C129.8,179.73,110.42,154.34,63.47,145.16Z"/><path class="cls-3" d="M280.51,196.94c-24.64-3.66-102.41,46.33-113.36,58-27,24.21-50,54.46-70.44,88.57l-6-3.05q8.77-13,16.66-26.4c18.79-31.75,34-64.65,46.93-98.27,23.13-61.07,52.07-92.3,84.46-105.74C213.53,162,233.09,187.67,280.51,196.94Z"/><circle class="cls-4" cx="203.54" cy="275.6" r="6.79"/><circle class="cls-4" cx="250.53" cy="247.38" r="6.79"/><circle class="cls-4" cx="262.83" cy="226.81" r="6.79"/><circle class="cls-4" cx="142.46" cy="306.27" r="6.79"/><circle class="cls-4" cx="249.69" cy="173.71" r="6.79"/><circle class="cls-4" cx="295.13" cy="148.13" r="6.79"/><circle class="cls-4" cx="266.83" cy="89.71" r="6.79"/></g></g></svg>