<svg width="53" height="56" viewBox="0 0 53 56" fill="none" xmlns="http://www.w3.org/2000/svg">
<path d="M8.72514 45.3204C4.33622 41.0282 1.63003 35.3058 1.09693 29.1902C0.563841 23.0745 2.23912 16.9702 5.8192 11.9833C9.39928 6.9965 14.6473 3.45707 20.6123 2.00641C26.5773 0.555757 32.8646 1.28985 38.335 4.07567" stroke="white" stroke-miterlimit="10"/>
<path d="M33.1607 6.33661C24.5651 3.81954 17.2111 5.63072 11.0988 11.7702C7.2352 15.5865 5.499 20.5734 5.18437 26.3265C5.04743 33.1408 7.84653 38.4652 12.5204 43.0559" stroke="#FBB040" stroke-width="4" stroke-miterlimit="10"/>
<path d="M33.2321 5.62978L29.8369 4.82031L29.2698 7.19898L32.665 8.00845L33.2321 5.62978Z" fill="#FBB040"/>
<path d="M26.1498 5.0424L22.677 5.39209L22.922 7.82513L26.3948 7.47544L26.1498 5.0424Z" fill="#FBB040"/>
<path d="M18.5116 6.40387L15.4033 7.9917L16.5158 10.1694L19.624 8.58152L18.5116 6.40387Z" fill="#FBB040"/>
<path d="M12.464 10.1556L10.0957 12.7195L11.892 14.3788L14.2603 11.8149L12.464 10.1556Z" fill="#FBB040"/>
<path d="M7.68367 15.5299L6.57617 18.8398L8.89515 19.6158L10.0026 16.3058L7.68367 15.5299Z" fill="#FBB040"/>
<path d="M5.61105 21.756L5.1748 25.219L7.60097 25.5246L8.03722 22.0617L5.61105 21.756Z" fill="#FBB040"/>
<path d="M5.0507 28.3595L5.40039 31.8323L7.83343 31.5873L7.48374 28.1145L5.0507 28.3595Z" fill="#FBB040"/>
<path d="M6.76973 35.629L8.625 38.5854L10.6963 37.2856L8.84101 34.3292L6.76973 35.629Z" fill="#FBB040"/>
<path d="M9.93222 40.6983L12.2225 43.332L14.0678 41.7274L11.7775 39.0936L9.93222 40.6983Z" fill="#FBB040"/>
<path d="M13.9875 33.8581C15.7432 33.8581 17.1665 32.4349 17.1665 30.6792C17.1665 28.9235 15.7432 27.5002 13.9875 27.5002C12.2319 27.5002 10.8086 28.9235 10.8086 30.6792C10.8086 32.4349 12.2319 33.8581 13.9875 33.8581Z" fill="white"/>
<path d="M43.2161 7.31812C47.7737 11.166 50.85 16.4802 51.917 22.3487C52.984 28.2172 51.9752 34.2742 49.0638 39.4801C46.1523 44.686 41.5197 48.7163 35.961 50.8793C30.4023 53.0423 24.264 53.2032 18.5996 51.3343" stroke="white" stroke-miterlimit="10"/>
<path d="M12.8951 49.471L8.72168 45.314" stroke="white" stroke-miterlimit="10"/>
<path d="M50.0141 16.2664L44.3181 17.9455L41.4424 28.3186" stroke="white" stroke-miterlimit="10"/>
<path d="M35.9757 20.3208L38.4977 14.6248H44.2361" stroke="white" stroke-miterlimit="10"/>
<path d="M41.0732 30.6791H46.2672L48.8657 24.0425" stroke="white" stroke-miterlimit="10"/>
<path d="M51.2265 34.4191L48.0671 32.4758L43.584 36.9753" stroke="white" stroke-miterlimit="10"/>
<path d="M33.4523 36.9605L39.6374 36.0264L41.8235 40.7769" stroke="white" stroke-miterlimit="10"/>
<path d="M36.9914 50.4524L38.0381 43.056L35.0254 39.4043" stroke="white" stroke-miterlimit="10"/>
<path d="M41.7291 47.7316L33.8519 44.9292L30.9924 52.2522" stroke="white" stroke-miterlimit="10"/>
<path d="M26.4313 42.6582V47.1576L23.8018 50.0545" stroke="white" stroke-miterlimit="10"/>
<path d="M35.0259 40.511C35.6372 40.511 36.1328 40.0154 36.1328 39.404C36.1328 38.7927 35.6372 38.2971 35.0259 38.2971C34.4145 38.2971 33.9189 38.7927 33.9189 39.404C33.9189 40.0154 34.4145 40.511 35.0259 40.511Z" fill="white"/>
<path d="M43.2991 26.8318C45.0547 26.8318 46.478 25.4085 46.478 23.6528C46.478 21.8971 45.0547 20.4739 43.2991 20.4739C41.5434 20.4739 40.1201 21.8971 40.1201 23.6528C40.1201 25.4085 41.5434 26.8318 43.2991 26.8318Z" fill="#FBB040"/>
<path d="M11.0841 23.6644C15.0619 24.2562 27.6163 16.1865 29.3834 14.2971C33.7426 10.3846 37.4563 5.50528 40.7543 0L41.7324 0.489069C41.033 1.53241 40.006 3.11211 38.8485 5.07816C34.5936 12.3066 32.7058 17.7369 31.4652 20.6126C29.522 25.1251 25.779 31.2303 17.8316 37.6844C21.8974 29.3001 18.738 25.1609 11.0841 23.6644Z" fill="white"/>
<path d="M46.4671 32.1057C42.4502 31.5091 29.772 39.6586 27.9869 41.5611C23.5852 45.5078 19.8357 50.4393 16.5035 56L15.5254 55.5028C16.4785 54.0899 17.3839 52.6553 18.2414 51.199C21.3046 46.023 23.7841 40.6595 25.892 35.1787C29.6627 25.2229 34.3806 20.1317 39.6609 17.9407C35.5479 26.4097 38.7366 30.5945 46.4671 32.1057Z" fill="#FBB040"/>
<path d="M33.9184 46.0361C34.5298 46.0361 35.0254 45.5405 35.0254 44.9292C35.0254 44.3179 34.5298 43.8223 33.9184 43.8223C33.3071 43.8223 32.8115 44.3179 32.8115 44.9292C32.8115 45.5405 33.3071 46.0361 33.9184 46.0361Z" fill="white"/>
<path d="M41.5786 41.4355C42.1899 41.4355 42.6855 40.9399 42.6855 40.3286C42.6855 39.7173 42.1899 39.2217 41.5786 39.2217C40.9673 39.2217 40.4717 39.7173 40.4717 40.3286C40.4717 40.9399 40.9673 41.4355 41.5786 41.4355Z" fill="white"/>
<path d="M43.5845 38.082C44.1958 38.082 44.6914 37.5864 44.6914 36.9751C44.6914 36.3638 44.1958 35.8682 43.5845 35.8682C42.9731 35.8682 42.4775 36.3638 42.4775 36.9751C42.4775 37.5864 42.9731 38.082 43.5845 38.082Z" fill="white"/>
<path d="M23.9615 51.0361C24.5729 51.0361 25.0685 50.5405 25.0685 49.9292C25.0685 49.3178 24.5729 48.8223 23.9615 48.8223C23.3502 48.8223 22.8546 49.3178 22.8546 49.9292C22.8546 50.5405 23.3502 51.0361 23.9615 51.0361Z" fill="white"/>
<path d="M41.4419 29.4255C42.0532 29.4255 42.5488 28.9299 42.5488 28.3186C42.5488 27.7073 42.0532 27.2117 41.4419 27.2117C40.8305 27.2117 40.335 27.7073 40.335 28.3186C40.335 28.9299 40.8305 29.4255 41.4419 29.4255Z" fill="white"/>
<path d="M48.8501 25.2556C49.4614 25.2556 49.957 24.76 49.957 24.1487C49.957 23.5373 49.4614 23.0417 48.8501 23.0417C48.2388 23.0417 47.7432 23.5373 47.7432 24.1487C47.7432 24.76 48.2388 25.2556 48.8501 25.2556Z" fill="white"/>
<path d="M44.2368 15.7317C44.8481 15.7317 45.3437 15.2361 45.3437 14.6247C45.3437 14.0134 44.8481 13.5178 44.2368 13.5178C43.6255 13.5178 43.1299 14.0134 43.1299 14.6247C43.1299 15.2361 43.6255 15.7317 44.2368 15.7317Z" fill="white"/>
</svg>
