<svg width="35" height="37" viewBox="0 0 35 37" fill="none" xmlns="http://www.w3.org/2000/svg">
<g id="Layer 2">
<g id="Layer 1">
<path id="Vector" d="M5.96639 29.1358C3.14482 26.3764 1.40505 22.6976 1.06233 18.7659C0.719618 14.8342 1.79663 10.9099 4.09821 7.70389C6.39979 4.49793 9.77366 2.22248 13.6085 1.28988C17.4433 0.35727 21.4853 0.829207 25.0021 2.62017" stroke="white" stroke-miterlimit="10"/>
<path id="Vector_2" d="M21.6756 4.07371C16.1496 2.45552 11.4219 3.6199 7.49237 7.56685C5.0085 10.0203 3.89233 13.2263 3.69005 16.9249C3.60202 21.3057 5.40152 24.7286 8.40627 27.68" stroke="#FBB040" stroke-width="4" stroke-miterlimit="10"/>
<path id="Vector_3" d="M21.7217 3.61927L19.539 3.09888L19.1744 4.62809L21.3571 5.14848L21.7217 3.61927Z" fill="#FBB040"/>
<path id="Vector_4" d="M17.1684 3.2415L14.9358 3.46631L15.0933 5.03047L17.3259 4.80566L17.1684 3.2415Z" fill="#FBB040"/>
<path id="Vector_5" d="M12.2577 4.11715L10.2595 5.13794L10.9746 6.53792L12.9729 5.51713L12.2577 4.11715Z" fill="#FBB040"/>
<path id="Vector_6" d="M8.37031 6.52899L6.84775 8.17725L8.00253 9.24397L9.5251 7.59571L8.37031 6.52899Z" fill="#FBB040"/>
<path id="Vector_7" d="M5.297 9.9839L4.58501 12.1118L6.07584 12.6106L6.78783 10.4827L5.297 9.9839Z" fill="#FBB040"/>
<path id="Vector_8" d="M3.96455 13.9866L3.6841 16.2129L5.24384 16.4094L5.5243 14.1831L3.96455 13.9866Z" fill="#FBB040"/>
<path id="Vector_9" d="M3.60429 18.2318L3.8291 20.4644L5.39326 20.3069L5.16846 18.0743L3.60429 18.2318Z" fill="#FBB040"/>
<path id="Vector_10" d="M4.70926 22.9055L5.90198 24.8062L7.23357 23.9705L6.04085 22.0699L4.70926 22.9055Z" fill="#FBB040"/>
<path id="Vector_11" d="M6.74241 26.1645L8.21481 27.8577L9.40109 26.8261L7.92868 25.1329L6.74241 26.1645Z" fill="#FBB040"/>
<path id="Vector_12" d="M9.34969 21.7668C10.4784 21.7668 11.3934 20.8518 11.3934 19.7231C11.3934 18.5944 10.4784 17.6794 9.34969 17.6794C8.22099 17.6794 7.306 18.5944 7.306 19.7231C7.306 20.8518 8.22099 21.7668 9.34969 21.7668Z" fill="white"/>
<path id="Vector_13" d="M28.1399 4.70483C31.0699 7.17858 33.0476 10.595 33.7336 14.3678C34.4195 18.1405 33.771 22.0345 31.8993 25.3813C30.0276 28.7281 27.0493 31.3191 23.4757 32.7096C19.9021 34.1002 15.9559 34.2036 12.3143 33.0021" stroke="white" stroke-miterlimit="10"/>
<path id="Vector_14" d="M8.64742 31.8041L5.96442 29.1316" stroke="white" stroke-miterlimit="10"/>
<path id="Vector_15" d="M32.5102 10.4575L28.8483 11.537L26.9996 18.2057" stroke="white" stroke-miterlimit="10"/>
<path id="Vector_16" d="M23.4853 13.064L25.1066 9.4021H28.7958" stroke="white" stroke-miterlimit="10"/>
<path id="Vector_17" d="M26.7626 19.7231H30.1017L31.7723 15.4565" stroke="white" stroke-miterlimit="10"/>
<path id="Vector_18" d="M33.2901 22.1274L31.259 20.8782L28.3768 23.7708" stroke="white" stroke-miterlimit="10"/>
<path id="Vector_19" d="M21.8631 23.7614L25.8393 23.1609L27.2448 26.2149" stroke="white" stroke-miterlimit="10"/>
<path id="Vector_20" d="M24.1385 32.4349L24.8114 27.6799L22.8746 25.3323" stroke="white" stroke-miterlimit="10"/>
<path id="Vector_21" d="M27.1841 30.6859L22.1199 28.8843L20.2816 33.5921" stroke="white" stroke-miterlimit="10"/>
<path id="Vector_22" d="M17.3492 27.4243V30.3169L15.6587 32.1793" stroke="white" stroke-miterlimit="10"/>
<path id="Vector_23" d="M22.8745 26.0439C23.2675 26.0439 23.5861 25.7253 23.5861 25.3322C23.5861 24.9392 23.2675 24.6206 22.8745 24.6206C22.4815 24.6206 22.1629 24.9392 22.1629 25.3322C22.1629 25.7253 22.4815 26.0439 22.8745 26.0439Z" fill="white"/>
<path id="Vector_24" d="M28.1934 17.2497C29.3221 17.2497 30.2371 16.3347 30.2371 15.206C30.2371 14.0773 29.3221 13.1624 28.1934 13.1624C27.0647 13.1624 26.1497 14.0773 26.1497 15.206C26.1497 16.3347 27.0647 17.2497 28.1934 17.2497Z" fill="#FBB040"/>
<path id="Vector_25" d="M7.48296 15.2135C10.0402 15.5939 18.1112 10.4061 19.2473 9.19138C22.0498 6.67607 24.4372 3.53926 26.5574 0L27.1863 0.314415C26.7367 0.985166 26.0764 2.00072 25.3323 3.26467C22.5969 7.91172 21.3832 11.4028 20.5857 13.2515C19.3364 16.1525 16.9301 20.0775 11.8208 24.2267C14.4347 18.8366 12.4035 16.1756 7.48296 15.2135Z" fill="white"/>
<path id="Vector_26" d="M30.2298 20.6402C27.6474 20.2566 19.4968 25.4958 18.3492 26.7189C15.5194 29.2562 13.1089 32.4265 10.9667 36.0014L10.3379 35.6818C10.9506 34.7735 11.5327 33.8512 12.0839 32.9149C14.0532 29.5874 15.6473 26.1393 17.0024 22.6158C19.4266 16.2153 22.4596 12.9423 25.8542 11.5337C23.21 16.9783 25.26 19.6686 30.2298 20.6402Z" fill="#FBB040"/>
<path id="Vector_27" d="M22.1631 29.5959C22.5561 29.5959 22.8747 29.2773 22.8747 28.8842C22.8747 28.4912 22.5561 28.1726 22.1631 28.1726C21.77 28.1726 21.4514 28.4912 21.4514 28.8842C21.4514 29.2773 21.77 29.5959 22.1631 29.5959Z" fill="white"/>
<path id="Vector_28" d="M27.0875 26.6383C27.4805 26.6383 27.7992 26.3197 27.7992 25.9267C27.7992 25.5337 27.4805 25.2151 27.0875 25.2151C26.6945 25.2151 26.3759 25.5337 26.3759 25.9267C26.3759 26.3197 26.6945 26.6383 27.0875 26.6383Z" fill="white"/>
<path id="Vector_29" d="M28.3766 24.4826C28.7696 24.4826 29.0882 24.164 29.0882 23.771C29.0882 23.3779 28.7696 23.0593 28.3766 23.0593C27.9836 23.0593 27.665 23.3779 27.665 23.771C27.665 24.164 27.9836 24.4826 28.3766 24.4826Z" fill="white"/>
<path id="Vector_30" d="M15.7616 32.8102C16.1547 32.8102 16.4733 32.4916 16.4733 32.0986C16.4733 31.7056 16.1547 31.387 15.7616 31.387C15.3686 31.387 15.05 31.7056 15.05 32.0986C15.05 32.4916 15.3686 32.8102 15.7616 32.8102Z" fill="white"/>
<path id="Vector_31" d="M26.9995 18.9171C27.3925 18.9171 27.7111 18.5985 27.7111 18.2055C27.7111 17.8125 27.3925 17.4939 26.9995 17.4939C26.6065 17.4939 26.2879 17.8125 26.2879 18.2055C26.2879 18.5985 26.6065 18.9171 26.9995 18.9171Z" fill="white"/>
<path id="Vector_32" d="M31.7618 16.2365C32.1548 16.2365 32.4734 15.9179 32.4734 15.5249C32.4734 15.1318 32.1548 14.8132 31.7618 14.8132C31.3688 14.8132 31.0502 15.1318 31.0502 15.5249C31.0502 15.9179 31.3688 16.2365 31.7618 16.2365Z" fill="white"/>
<path id="Vector_33" d="M28.796 10.1137C29.189 10.1137 29.5076 9.79507 29.5076 9.40205C29.5076 9.00904 29.189 8.69043 28.796 8.69043C28.403 8.69043 28.0844 9.00904 28.0844 9.40205C28.0844 9.79507 28.403 10.1137 28.796 10.1137Z" fill="white"/>
</g>
</g>
</svg>
