<svg width="812" height="873" viewBox="0 0 812 873" fill="none" xmlns="http://www.w3.org/2000/svg">
<path d="M126.399 706.323C57.9971 639.428 15.8209 550.244 7.51261 454.931C-0.795666 359.618 25.3137 264.482 81.1095 186.761C136.905 109.041 218.696 53.8787 311.661 31.2701C404.626 8.66146 502.614 20.1024 587.87 63.5196" stroke="white" stroke-width="11" stroke-miterlimit="10"/>
<path d="M507.229 98.7566C373.265 59.5278 258.653 87.7552 163.393 183.439C103.178 242.917 76.1193 320.638 71.2157 410.3C69.0815 516.502 112.706 599.482 185.548 671.029" stroke="#FBB040" stroke-width="23" stroke-miterlimit="10"/>
<path d="M508.347 87.7444L455.433 75.1288L446.595 112.201L499.508 124.816L508.347 87.7444Z" fill="#FBB040"/>
<path d="M397.957 78.5862L343.834 84.0361L347.652 121.955L401.775 116.505L397.957 78.5862Z" fill="#FBB040"/>
<path d="M278.911 99.8049L230.469 124.551L247.807 158.49L296.249 133.744L278.911 99.8049Z" fill="#FBB040"/>
<path d="M184.676 158.276L147.765 198.234L175.76 224.094L212.67 184.136L184.676 158.276Z" fill="#FBB040"/>
<path d="M110.173 242.035L92.9126 293.62L129.054 305.713L146.314 254.127L110.173 242.035Z" fill="#FBB040"/>
<path d="M77.8712 339.07L71.0723 393.04L108.884 397.803L115.683 343.833L77.8712 339.07Z" fill="#FBB040"/>
<path d="M69.1382 441.985L74.5881 496.109L112.507 492.29L107.057 438.167L69.1382 441.985Z" fill="#FBB040"/>
<path d="M95.9217 555.281L124.836 601.357L157.117 581.099L128.203 535.024L95.9217 555.281Z" fill="#FBB040"/>
<path d="M145.211 634.286L180.906 675.333L209.664 650.325L173.969 609.278L145.211 634.286Z" fill="#FBB040"/>
<path d="M208.419 527.682C235.782 527.682 257.963 505.5 257.963 478.138C257.963 450.775 235.782 428.594 208.419 428.594C181.057 428.594 158.875 450.775 158.875 478.138C158.875 505.5 181.057 527.682 208.419 527.682Z" fill="white"/>
<path d="M663.933 114.053C734.964 174.023 782.908 256.845 799.538 348.306C816.167 439.768 800.445 534.165 755.07 615.3C709.695 696.435 637.496 759.247 550.862 792.958C464.229 826.668 368.564 829.175 280.284 800.049" stroke="white" stroke-width="11" stroke-miterlimit="10"/>
<path d="M191.393 771.01L126.351 706.222" stroke="white" stroke-width="11" stroke-miterlimit="10"/>
<path d="M769.881 253.512L681.108 279.682L636.29 441.348" stroke="white" stroke-width="11" stroke-miterlimit="10"/>
<path d="M551.097 316.701L590.402 227.928H679.836" stroke="white" stroke-width="11" stroke-miterlimit="10"/>
<path d="M630.552 478.137H711.5L751.999 374.704" stroke="white" stroke-width="11" stroke-miterlimit="10"/>
<path d="M788.792 536.424L739.552 506.138L669.682 576.262" stroke="white" stroke-width="11" stroke-miterlimit="10"/>
<path d="M511.769 576.032L608.164 561.474L642.235 635.51" stroke="white" stroke-width="11" stroke-miterlimit="10"/>
<path d="M566.937 786.3L583.248 671.027L536.296 614.115" stroke="white" stroke-width="11" stroke-miterlimit="10"/>
<path d="M640.763 743.9L517.995 700.225L473.431 814.354" stroke="white" stroke-width="11" stroke-miterlimit="10"/>
<path d="M402.341 664.831V734.955L361.36 780.104" stroke="white" stroke-width="11" stroke-miterlimit="10"/>
<path d="M536.288 631.367C545.816 631.367 553.54 623.643 553.54 614.115C553.54 604.587 545.816 596.864 536.288 596.864C526.76 596.864 519.037 604.587 519.037 614.115C519.037 623.643 526.76 631.367 536.288 631.367Z" fill="white"/>
<path d="M665.234 418.175C692.597 418.175 714.778 395.993 714.778 368.631C714.778 341.269 692.597 319.087 665.234 319.087C637.872 319.087 615.69 341.269 615.69 368.631C615.69 395.993 637.872 418.175 665.234 418.175Z" fill="#FBB040"/>
<path d="M163.16 368.811C225.153 378.034 420.814 252.268 448.356 222.821C516.295 161.844 574.172 85.8002 625.571 0L640.816 7.62217C629.916 23.8828 613.909 48.5024 595.87 79.1435C529.557 191.799 500.136 276.431 480.801 321.249C450.515 391.576 392.18 486.726 268.32 587.314C331.686 456.644 282.447 392.135 163.16 368.811Z" fill="white"/>
<path d="M714.601 500.37C651.998 491.071 454.406 618.082 426.585 647.732C357.985 709.243 299.549 786.1 247.616 872.764L232.372 865.015C247.227 842.995 261.336 820.637 274.7 797.94C322.44 717.272 361.085 633.682 393.936 548.263C452.703 393.101 526.232 313.754 608.526 279.607C544.423 411.597 594.12 476.818 714.601 500.37Z" fill="#FBB040"/>
<path d="M519.044 717.477C528.572 717.477 536.296 709.753 536.296 700.225C536.296 690.697 528.572 682.973 519.044 682.973C509.516 682.973 501.793 690.697 501.793 700.225C501.793 709.753 509.516 717.477 519.044 717.477Z" fill="white"/>
<path d="M638.428 645.776C647.956 645.776 655.68 638.052 655.68 628.524C655.68 618.997 647.956 611.273 638.428 611.273C628.901 611.273 621.177 618.997 621.177 628.524C621.177 638.052 628.901 645.776 638.428 645.776Z" fill="white"/>
<path d="M669.675 593.515C679.202 593.515 686.926 585.791 686.926 576.263C686.926 566.736 679.202 559.012 669.675 559.012C660.147 559.012 652.423 566.736 652.423 576.263C652.423 585.791 660.147 593.515 669.675 593.515Z" fill="white"/>
<path d="M363.856 795.402C373.383 795.402 381.107 787.678 381.107 778.15C381.107 768.623 373.383 760.899 363.856 760.899C354.328 760.899 346.604 768.623 346.604 778.15C346.604 787.678 354.328 795.402 363.856 795.402Z" fill="white"/>
<path d="M636.29 458.599C645.818 458.599 653.542 450.875 653.542 441.347C653.542 431.82 645.818 424.096 636.29 424.096C626.762 424.096 619.039 431.82 619.039 441.347C619.039 450.875 626.762 458.599 636.29 458.599Z" fill="white"/>
<path d="M751.74 393.61C761.268 393.61 768.991 385.887 768.991 376.359C768.991 366.831 761.268 359.107 751.74 359.107C742.212 359.107 734.488 366.831 734.488 376.359C734.488 385.887 742.212 393.61 751.74 393.61Z" fill="white"/>
<path d="M679.841 245.179C689.369 245.179 697.093 237.456 697.093 227.928C697.093 218.4 689.369 210.676 679.841 210.676C670.314 210.676 662.59 218.4 662.59 227.928C662.59 237.456 670.314 245.179 679.841 245.179Z" fill="white"/>
</svg>
