<svg width="565" height="509" viewBox="0 0 565 509" fill="none" xmlns="http://www.w3.org/2000/svg">
<path d="M118.72 80.685C118.72 80.685 53.363 142.617 65.8333 228.542C78.3036 314.467 154.777 380.826 214.962 436.042C275.148 491.258 360.585 498.841 422.219 456.582C483.853 414.324 450.558 360.882 485.383 284.692C520.208 208.503 542.914 192.363 524.229 113.52C505.544 34.6761 393.69 -15.1375 282.351 5.70052C171.012 26.5386 118.72 80.685 118.72 80.685Z" fill="#3C6382"/>
<path opacity="0.7" d="M118.72 80.685C118.72 80.685 53.363 142.617 65.8333 228.542C78.3036 314.467 154.777 380.826 214.962 436.042C275.148 491.258 360.585 498.841 422.219 456.582C483.853 414.324 450.558 360.882 485.383 284.692C520.208 208.503 542.914 192.363 524.229 113.52C505.544 34.6761 393.69 -15.1375 282.351 5.70052C171.012 26.5386 118.72 80.685 118.72 80.685Z" fill="white"/>
<path d="M400.339 67.4429H302.553L303.541 53.1853H401.327L400.339 67.4429Z" fill="#3C6382"/>
<path d="M400.339 87.4144H302.553L303.541 73.1567H401.327L400.339 87.4144Z" fill="#3C6382"/>
<path d="M400.339 107.399H302.553L303.541 93.1283H401.327L400.339 107.399Z" fill="#3C6382"/>
<path d="M400.339 127.371H302.553L303.541 113.1H401.327L400.339 127.371Z" fill="#3C6382"/>
<path d="M400.339 147.342H302.553L303.541 133.071H401.327L400.339 147.342Z" fill="#3C6382"/>
<path d="M400.339 167.314H302.553L303.541 153.056H401.327L400.339 167.314Z" fill="#3C6382"/>
<path d="M400.339 187.285H302.553L303.541 173.028H401.327L400.339 187.285Z" fill="#3C6382"/>
<path d="M400.339 207.27H302.553L303.541 192.999H401.327L400.339 207.27Z" fill="#3C6382"/>
<path d="M400.339 227.242H302.553L303.541 212.971H401.327L400.339 227.242Z" fill="#3C6382"/>
<path d="M400.339 247.214H302.553L303.541 232.942H401.327L400.339 247.214Z" fill="#3C6382"/>
<path d="M400.339 267.185H302.553L303.541 252.914H401.327L400.339 267.185Z" fill="#3C6382"/>
<path d="M503.743 67.4429H405.944L406.932 53.1853H504.732L503.743 67.4429Z" fill="#3C6382"/>
<path d="M503.743 87.4144H405.944L406.932 73.1567H504.732L503.743 87.4144Z" fill="#3C6382"/>
<path d="M503.743 107.399H405.944L406.932 93.1283H504.732L503.743 107.399Z" fill="#3C6382"/>
<path d="M503.743 127.371H405.944L406.932 113.1H504.732L503.743 127.371Z" fill="#3C6382"/>
<path d="M503.743 147.342H405.944L406.932 133.071H504.732L503.743 147.342Z" fill="#3C6382"/>
<path d="M503.743 167.314H405.944L406.932 153.056H504.732L503.743 167.314Z" fill="#3C6382"/>
<path d="M503.743 187.285H405.944L406.932 173.028H504.732L503.743 187.285Z" fill="#3C6382"/>
<path d="M503.743 207.27H405.944L406.932 192.999H504.732L503.743 207.27Z" fill="#3C6382"/>
<path d="M503.743 227.242H405.944L406.932 212.971H504.732L503.743 227.242Z" fill="#3C6382"/>
<path d="M503.743 247.214H405.944L406.932 232.942H504.732L503.743 247.214Z" fill="#3C6382"/>
<path d="M503.743 267.185H405.944L406.932 252.914H504.732L503.743 267.185Z" fill="#3C6382"/>
<path d="M288.837 52.4H86.7935V225.739H288.837V52.4Z" fill="#3C6382"/>
<path d="M278.723 61.0657H96.8945V217.074H278.723V61.0657Z" fill="white"/>
<mask id="mask0_1207_8104" style="mask-type:luminance" maskUnits="userSpaceOnUse" x="96" y="61" width="183" height="157">
<path d="M278.723 61.0657H96.8945V217.074H278.723V61.0657Z" fill="white"/>
</mask>
<g mask="url(#mask0_1207_8104)">
<path d="M278.723 108.361C246.024 131.623 199.189 147.058 144.853 171.308C127.732 178.827 111.62 188.461 96.8945 199.986V217.087H278.723V108.361Z" fill="#3C6382"/>
<path d="M278.723 61.0657H205.756C197.632 68.0117 188.032 75.7701 176.686 84.0837C135.159 114.535 153.153 145.014 202.994 122.835C228.571 111.475 257.046 85.1669 278.723 62.2436V61.0657Z" fill="#3C6382"/>
<path d="M128.308 78.5594C128.308 65.8453 112.479 75.8514 96.9624 88.6332V120.737C112.06 105.924 128.308 89.933 128.308 78.5594Z" fill="#3C6382"/>
<path d="M143.472 129.091C143.472 131.967 142.619 134.778 141.021 137.17C139.423 139.561 137.152 141.425 134.495 142.526C131.838 143.626 128.914 143.914 126.093 143.353C123.272 142.792 120.681 141.407 118.647 139.373C116.614 137.34 115.229 134.749 114.668 131.928C114.107 129.107 114.394 126.183 115.495 123.526C116.596 120.869 118.46 118.597 120.851 116.999C123.242 115.402 126.054 114.549 128.93 114.549C132.787 114.549 136.486 116.081 139.213 118.808C141.94 121.535 143.472 125.234 143.472 129.091Z" fill="#3C6382"/>
<path opacity="0.75" d="M278.723 108.361C246.024 131.623 199.189 147.058 144.853 171.308C127.732 178.827 111.62 188.461 96.8945 199.986V217.087H278.723V108.361Z" fill="white"/>
<path opacity="0.75" d="M278.723 61.0657H205.756C197.632 68.0117 188.032 75.7701 176.686 84.0837C135.159 114.535 153.153 145.014 202.994 122.835C228.571 111.475 257.046 85.1669 278.723 62.2436V61.0657Z" fill="white"/>
<g opacity="0.75">
<path d="M128.308 78.5594C128.308 65.8453 112.479 75.8514 96.9624 88.6332V120.737C112.06 105.924 128.308 89.933 128.308 78.5594Z" fill="white"/>
</g>
<path opacity="0.75" d="M143.472 129.091C143.472 131.967 142.619 134.778 141.021 137.17C139.423 139.561 137.152 141.425 134.495 142.526C131.838 143.626 128.914 143.914 126.093 143.353C123.272 142.792 120.681 141.407 118.647 139.373C116.614 137.34 115.229 134.749 114.668 131.928C114.107 129.107 114.394 126.183 115.495 123.526C116.596 120.869 118.46 118.597 120.851 116.999C123.242 115.402 126.054 114.549 128.93 114.549C132.787 114.549 136.486 116.081 139.213 118.808C141.94 121.535 143.472 125.234 143.472 129.091Z" fill="white"/>
</g>
<path d="M247.296 175.465C247.296 179.3 246.159 183.05 244.028 186.239C241.896 189.427 238.867 191.913 235.324 193.38C231.78 194.847 227.881 195.23 224.119 194.481C220.358 193.732 216.903 191.884 214.192 189.171C211.481 186.458 209.635 183.001 208.888 179.239C208.142 175.477 208.528 171.578 209.997 168.036C211.467 164.493 213.954 161.466 217.145 159.337C220.335 157.208 224.085 156.073 227.92 156.076C230.466 156.076 232.987 156.577 235.338 157.552C237.69 158.527 239.827 159.955 241.626 161.756C243.425 163.556 244.852 165.694 245.825 168.046C246.798 170.398 247.298 172.919 247.296 175.465Z" fill="white"/>
<path d="M520.614 409.693C517.1 413.769 514.727 418.702 513.736 423.992L499.939 431.723V395.165L500.21 395.531L522.185 379.445C524.961 379.878 535.63 381.097 545.352 375.857C556.644 369.778 564.89 348.953 564.89 348.953C564.89 348.953 537.973 345.906 528.86 357.199C521.467 366.352 521.21 375.221 521.386 378.24L499.939 393.933V366.921C503.955 365.05 507.506 362.31 510.332 358.898C513.159 355.486 515.191 351.487 516.282 347.193C520.181 332.001 499.357 302.064 499.357 302.064C499.357 302.064 477.692 332.881 481.985 348.506C485.668 361.735 495.525 365.932 498.49 366.907V425.467L483.054 412.564C483.406 409.477 483.691 399.823 475.093 390.155C464.667 378.43 436.896 379.323 436.896 379.323C436.896 379.323 448.609 402.761 458.56 410.574C467.28 417.343 479.317 414.636 482.215 413.81L498.463 427.35V445.155H474.294L484.165 506.843H513.777L523.674 445.168H499.939V433.388L515.104 424.885C518.786 425.914 529.09 428.027 538.839 423.152C551.025 417.073 560.977 404.047 560.977 404.047C560.977 404.047 531.907 396.668 520.614 409.693Z" fill="#3C6382"/>
<path opacity="0.5" d="M520.614 409.693C517.1 413.769 514.727 418.702 513.736 423.992L499.939 431.723V395.165L500.21 395.531L522.185 379.445C524.961 379.878 535.63 381.097 545.352 375.857C556.644 369.778 564.89 348.953 564.89 348.953C564.89 348.953 537.973 345.906 528.86 357.199C521.467 366.352 521.21 375.221 521.386 378.24L499.939 393.933V366.921C503.955 365.05 507.506 362.31 510.332 358.898C513.159 355.486 515.191 351.487 516.282 347.193C520.181 332.001 499.357 302.064 499.357 302.064C499.357 302.064 477.692 332.881 481.985 348.506C485.668 361.735 495.525 365.932 498.49 366.907V425.467L483.054 412.564C483.406 409.477 483.691 399.823 475.093 390.155C464.667 378.43 436.896 379.323 436.896 379.323C436.896 379.323 448.609 402.761 458.56 410.574C467.28 417.343 479.317 414.636 482.215 413.81L498.463 427.35V445.155H474.294L484.165 506.843H513.777L523.674 445.168H499.939V433.388L515.104 424.885C518.786 425.914 529.09 428.027 538.839 423.152C551.025 417.073 560.977 404.047 560.977 404.047C560.977 404.047 531.907 396.668 520.614 409.693Z" fill="white"/>
<path d="M493.25 223.315L453.402 223.654C453.402 223.654 450.694 223.315 450.112 225.292C450.112 225.292 443.193 242.759 442.868 249.014C442.543 255.27 444.222 254.281 441.514 262.554C438.806 270.827 431.305 290.217 427.026 306.031C421.272 327.276 419.769 349.833 419.403 371.768C419.403 375.288 417.237 405.618 422.72 405.618C427.27 405.618 469.203 411.183 469.704 403.1C471.722 370.874 465.899 339.394 477.083 308.062C481.43 295.876 486.412 283.04 490.109 270.313C493.805 257.585 494.442 244.343 496.879 231.318C498.517 222.327 493.25 223.315 493.25 223.315Z" fill="#144368"/>
<path d="M497.163 227.269C496.77 222.666 493.25 223.315 493.25 223.315L453.402 223.654C453.402 223.654 450.694 223.315 450.111 225.292C450.111 225.292 443.193 242.759 442.868 249.014C442.77 250.667 442.815 252.325 443.003 253.97L443.842 255.324C443.842 255.324 445.196 266.847 460.971 267.51C476.745 268.173 485.681 260.916 488.971 253.97C492.261 247.024 493.588 235.853 496.215 229.26C496.497 228.581 496.814 227.916 497.163 227.269Z" fill="#3C6382"/>
<path d="M487.915 240.132C485.207 249.759 486.846 252.426 484.178 268.999C481.511 285.572 471.884 304.203 468.133 321.386C464.383 338.568 466.008 398.889 466.536 401.57C466.745 402.99 466.822 404.427 466.766 405.862C468.567 405.185 469.65 404.264 469.731 403.005C471.749 370.78 465.926 339.299 477.11 307.968C481.457 295.782 486.439 282.946 490.136 270.218C493.832 257.49 494.469 244.248 496.906 231.223C497.921 225.807 496.324 224.033 494.929 223.505C491.901 228.73 489.544 234.317 487.915 240.132Z" fill="#3C6382"/>
<path d="M410.941 483.351L410.67 483.134V445.927H416.018V422.408H396.25V445.927H401.585V483.771L354.276 498.854V502.591C354.276 503.726 354.727 504.815 355.529 505.617C356.331 506.419 357.42 506.87 358.554 506.87C359.689 506.87 360.778 506.419 361.58 505.617C362.382 504.815 362.833 503.726 362.833 502.591V502.063L402.397 497.46V503.133C402.397 504.124 402.791 505.075 403.492 505.776C404.192 506.476 405.143 506.87 406.134 506.87C407.125 506.87 408.076 506.476 408.777 505.776C409.477 505.075 409.871 504.124 409.871 503.133V497.27L451.033 502.063V502.591C451.033 503.726 451.483 504.815 452.286 505.617C453.088 506.419 454.177 506.87 455.311 506.87C456.446 506.87 457.534 506.419 458.337 505.617C459.139 504.815 459.59 503.726 459.59 502.591V498.854L410.941 483.351Z" fill="#656565"/>
<path d="M467.348 399.471H349.862C346.871 399.471 344.446 401.896 344.446 404.887V421.338C344.446 424.329 346.871 426.754 349.862 426.754H467.348C470.34 426.754 472.764 424.329 472.764 421.338V404.887C472.764 401.896 470.34 399.471 467.348 399.471Z" fill="#656565"/>
<path d="M4.87687 223.315L44.7251 223.654C44.7251 223.654 47.4331 223.315 48.0289 225.292C48.0289 225.292 54.9478 242.759 55.2728 249.014C55.5977 255.27 53.9188 254.281 56.6268 262.554C59.3348 270.827 66.8359 290.217 71.1146 306.031C76.8826 327.276 78.372 349.833 78.7376 371.768C78.7376 375.288 80.904 405.618 75.4203 405.618C70.8844 405.618 28.951 411.183 28.4365 403.1C26.4325 370.874 32.2412 339.394 21.0572 308.062C16.7108 295.876 11.7281 283.04 8.04523 270.313C4.36235 257.585 3.71243 244.343 1.27523 231.318C-0.322492 222.327 4.87687 223.315 4.87687 223.315Z" fill="#144368"/>
<path d="M1.03174 227.269C1.4244 222.666 4.93126 223.315 4.93126 223.315L44.7795 223.654C44.7795 223.654 47.4875 223.315 48.0832 225.292C48.0832 225.292 55.0022 242.759 55.3271 249.014C55.4153 250.668 55.3655 252.325 55.1782 253.97L54.3387 255.324C54.3387 255.324 52.9847 266.847 37.2106 267.51C21.4365 268.173 12.4595 260.916 9.15574 253.956C5.85198 246.997 4.55214 235.84 1.91184 229.246C1.65708 228.571 1.36321 227.91 1.03174 227.269Z" fill="#3C6382"/>
<path d="M10.2117 240.132C12.9197 249.759 11.2814 252.426 13.9488 268.999C16.6162 285.572 26.2566 304.203 29.9937 321.386C33.7307 338.568 32.1736 398.889 31.5914 401.57C31.3884 402.991 31.3114 404.427 31.3612 405.862C29.5739 405.185 28.4772 404.264 28.396 403.005C26.392 370.78 32.2007 339.299 21.0167 307.968C16.6703 295.782 11.6876 282.946 8.00472 270.218C4.32184 257.49 3.67192 244.248 1.23472 231.223C0.232759 225.807 1.83048 224.033 3.21156 223.505C6.24163 228.728 8.59396 234.315 10.2117 240.132Z" fill="#3C6382"/>
<path d="M87.1866 483.351L87.4574 483.134V445.927H82.0414V422.408H101.823V445.927H96.4751V483.771L143.784 498.854V502.591C143.784 503.726 143.333 504.815 142.531 505.617C141.728 506.419 140.64 506.87 139.505 506.87C138.37 506.87 137.282 506.419 136.48 505.617C135.677 504.815 135.227 503.726 135.227 502.591V502.063L95.8116 497.46V503.133C95.7542 504.087 95.3348 504.983 94.639 505.638C93.9432 506.294 93.0235 506.658 92.0678 506.658C91.1121 506.658 90.1924 506.294 89.4966 505.638C88.8008 504.983 88.3814 504.087 88.324 503.133V497.27L47.0676 502.063V502.591C47.1003 503.173 47.0141 503.755 46.8142 504.301C46.6143 504.848 46.305 505.348 45.9051 505.771C45.5052 506.194 45.0232 506.531 44.4885 506.762C43.9539 506.992 43.3779 507.111 42.7957 507.111C42.2136 507.111 41.6376 506.992 41.1029 506.762C40.5683 506.531 40.0863 506.194 39.6864 505.771C39.2865 505.348 38.9771 504.848 38.7772 504.301C38.5773 503.755 38.4911 503.173 38.5239 502.591V498.854L87.1866 483.351Z" fill="#656565"/>
<path d="M30.7786 426.74H148.265C151.256 426.74 153.681 424.316 153.681 421.324V404.873C153.681 401.882 151.256 399.457 148.265 399.457H30.7786C27.7874 399.457 25.3626 401.882 25.3626 404.873V421.324C25.3626 424.316 27.7874 426.74 30.7786 426.74Z" fill="#656565"/>
<path d="M443.789 322.848H122.079V507.75H443.789V322.848Z" fill="#CCCCCC"/>
<path d="M443.545 327.289H122.241V332.407H443.545V327.289Z" fill="#263238"/>
<path d="M446.172 319.815H114.916V327.898H446.172V319.815Z" fill="#CCCCCC"/>
<path d="M207.733 303.757C207.733 303.757 211.524 320.695 211.307 325.421C211.091 330.146 202.168 342.806 201.938 339.908C202.013 337.453 202.546 335.033 203.508 332.773C203.508 332.773 200.38 337.011 199.27 336.835C198.16 336.659 200.164 330.809 200.164 330.809C200.164 330.809 196.819 334.154 195.696 333.517C194.572 332.881 198.146 327.939 198.146 327.939C198.146 327.939 194.084 332.177 193.922 330.837C193.759 329.496 197.483 323.931 197.483 323.931C197.483 323.931 193.692 315.902 193.421 312.558C193.445 310.222 194.224 307.956 195.641 306.099L207.733 303.757Z" fill="white"/>
<mask id="mask1_1207_8104" style="mask-type:luminance" maskUnits="userSpaceOnUse" x="193" y="303" width="19" height="38">
<path d="M207.733 303.757C207.733 303.757 211.524 320.695 211.307 325.421C211.091 330.146 202.168 342.806 201.938 339.908C202.013 337.453 202.546 335.033 203.508 332.773C203.508 332.773 200.38 337.011 199.27 336.835C198.16 336.659 200.164 330.809 200.164 330.809C200.164 330.809 196.819 334.154 195.696 333.517C194.572 332.881 198.146 327.939 198.146 327.939C198.146 327.939 194.084 332.177 193.922 330.837C193.759 329.496 197.483 323.931 197.483 323.931C197.483 323.931 193.692 315.902 193.421 312.558C193.445 310.222 194.224 307.956 195.641 306.099L207.733 303.757Z" fill="white"/>
</mask>
<g mask="url(#mask1_1207_8104)">
<path d="M207.733 303.757C207.733 303.757 211.524 320.695 211.307 325.421C211.091 330.146 202.168 342.806 201.938 339.908C202.013 337.453 202.546 335.033 203.508 332.773C203.508 332.773 200.38 337.011 199.27 336.835C198.16 336.659 200.164 330.809 200.164 330.809C200.164 330.809 196.819 334.154 195.696 333.517C194.572 332.881 198.146 327.939 198.146 327.939C198.146 327.939 194.084 332.177 193.922 330.837C193.759 329.496 197.483 323.931 197.483 323.931C197.483 323.931 193.692 315.902 193.421 312.558C193.445 310.222 194.224 307.956 195.641 306.099L207.733 303.757Z" fill="#D9D9D9"/>
</g>
<path d="M207.733 303.757C207.733 303.757 211.524 320.695 211.307 325.421C211.091 330.146 202.168 342.806 201.938 339.908C202.013 337.453 202.546 335.033 203.508 332.773C203.508 332.773 200.38 337.011 199.27 336.835C198.16 336.659 200.164 330.809 200.164 330.809C200.164 330.809 196.819 334.154 195.696 333.517C194.572 332.881 198.146 327.939 198.146 327.939C198.146 327.939 194.084 332.177 193.922 330.837C193.759 329.496 197.483 323.931 197.483 323.931C197.483 323.931 193.692 315.902 193.421 312.558C193.445 310.222 194.224 307.956 195.641 306.099L207.733 303.757Z" stroke="#263238" stroke-linecap="round" stroke-linejoin="round"/>
<path d="M206.839 303.757C206.839 303.757 209.547 315.577 209.303 318.921C209.06 322.266 205.729 332.069 203.278 330.281C200.827 328.494 204.835 321.819 204.835 321.819C204.835 321.819 197.957 316.985 196.373 312.449C194.788 307.913 195.696 305.991 195.696 305.991L206.839 303.757Z" fill="white"/>
<mask id="mask2_1207_8104" style="mask-type:luminance" maskUnits="userSpaceOnUse" x="195" y="303" width="15" height="28">
<path d="M206.839 303.757C206.839 303.757 209.547 315.577 209.303 318.921C209.06 322.266 205.729 332.069 203.278 330.281C200.827 328.494 204.835 321.819 204.835 321.819C204.835 321.819 197.957 316.985 196.373 312.449C194.788 307.913 195.696 305.991 195.696 305.991L206.839 303.757Z" fill="white"/>
</mask>
<g mask="url(#mask2_1207_8104)">
<path d="M206.839 303.757C206.839 303.757 209.547 315.577 209.303 318.921C209.06 322.266 205.729 332.069 203.278 330.281C200.827 328.494 204.835 321.819 204.835 321.819C204.835 321.819 197.957 316.985 196.373 312.449C194.788 307.913 195.696 305.991 195.696 305.991L206.839 303.757Z" fill="#D9D9D9"/>
</g>
<path d="M206.839 303.757C206.839 303.757 209.547 315.577 209.303 318.921C209.06 322.266 205.729 332.069 203.278 330.281C200.827 328.494 204.835 321.819 204.835 321.819C204.835 321.819 197.957 316.985 196.373 312.449C194.788 307.913 195.696 305.991 195.696 305.991L206.839 303.757Z" stroke="#263238" stroke-linecap="round" stroke-linejoin="round"/>
<path d="M198.675 248.364L208.166 304.894L194.789 307.913L181.411 264.328L198.675 248.364Z" fill="#263238" stroke="#263238" stroke-linecap="round" stroke-linejoin="round"/>
<path d="M194.789 275.986C194.789 275.986 195.655 343.307 196.941 361.437C198.228 379.567 193.489 403.736 189.183 410.641C184.877 417.547 165.867 460.739 166.734 463.298C167.6 465.857 171.486 473.656 171.486 475.809V484.868C171.486 484.868 193.055 499.112 194.789 499.112C196.522 499.112 198.674 502.564 194.355 505.164C190.036 507.764 141.698 507.75 139.545 506.017C138.125 504.743 137.081 503.104 136.526 501.278C136.526 501.278 129.62 503.864 130.054 497.392C130.487 490.92 138.245 463.298 138.245 463.298C138.245 463.298 133.506 433.077 135.226 413.661C136.946 394.244 142.998 370.928 142.998 366.189C142.998 361.45 136.959 329.929 136.093 324.757C135.226 319.585 122.715 304.894 128.321 293.25C133.926 281.605 138.245 263.028 139.979 261.742C141.712 260.456 165.014 259.576 174.506 261.742C183.997 263.908 194.355 263.895 194.789 275.986Z" fill="#263238" stroke="#263238" stroke-linecap="round" stroke-linejoin="round"/>
<path d="M152.002 140.288C152.002 140.288 144.623 146.896 143.35 149.184C142.077 151.472 126.588 173.556 126.33 189.344C126.073 205.131 137.785 252.873 137.785 252.873L120.183 297.65L125.274 299.681L130.352 294.089V302.484C130.352 302.484 136.201 307.819 151.447 312.896C166.693 317.974 186.272 312.138 186.272 312.138L192.108 274.984V311.637L198.972 307.06L199.528 246.022C199.528 246.022 205.12 213.242 205.12 204.048C205.12 194.854 189.616 166.136 182.751 157.795C175.887 149.455 164.445 142.549 161.087 140.004C157.73 137.458 152.002 140.288 152.002 140.288Z" fill="#263238"/>
<mask id="mask3_1207_8104" style="mask-type:luminance" maskUnits="userSpaceOnUse" x="120" y="138" width="86" height="177">
<path d="M152.002 140.288C152.002 140.288 144.623 146.896 143.35 149.184C142.077 151.472 126.588 173.556 126.33 189.344C126.073 205.131 137.785 252.873 137.785 252.873L120.183 297.65L125.274 299.681L130.352 294.089V302.484C130.352 302.484 136.201 307.819 151.447 312.896C166.693 317.974 186.272 312.138 186.272 312.138L192.108 274.984V311.637L198.972 307.06L199.528 246.022C199.528 246.022 205.12 213.242 205.12 204.048C205.12 194.854 189.616 166.136 182.751 157.795C175.887 149.455 164.445 142.549 161.087 140.004C157.73 137.458 152.002 140.288 152.002 140.288Z" fill="white"/>
</mask>
<g mask="url(#mask3_1207_8104)">
<path opacity="0.17" d="M152.002 140.288C152.002 140.288 144.623 146.896 143.35 149.184C142.077 151.472 126.588 173.556 126.33 189.344C126.073 205.131 137.785 252.873 137.785 252.873L120.183 297.65L125.274 299.681L130.352 294.089V302.484C130.352 302.484 136.201 307.819 151.447 312.896C166.693 317.974 186.272 312.138 186.272 312.138L192.108 274.984V311.637L198.972 307.06L199.528 246.022C199.528 246.022 205.12 213.242 205.12 204.048C205.12 194.854 189.616 166.136 182.751 157.795C175.887 149.455 164.445 142.549 161.087 140.004C157.73 137.458 152.002 140.288 152.002 140.288Z" fill="white"/>
<path d="M130.284 194.408C130.284 194.408 139.518 200.947 145.666 203.249" stroke="#263238" stroke-linecap="round" stroke-linejoin="round"/>
<path d="M132.979 201.34C132.979 201.34 143.364 204.048 148.739 204.048" stroke="#263238" stroke-linecap="round" stroke-linejoin="round"/>
<path d="M147.981 262.839L177.2 266.305L175.278 272.452L148.36 269.379" stroke="#263238" stroke-linecap="round" stroke-linejoin="round"/>
</g>
<path d="M152.002 140.288C152.002 140.288 144.623 146.896 143.35 149.184C142.077 151.472 126.588 173.556 126.33 189.344C126.073 205.131 137.785 252.873 137.785 252.873L120.183 297.65L125.274 299.681L130.352 294.089V302.484C130.352 302.484 136.201 307.819 151.447 312.896C166.693 317.974 186.272 312.138 186.272 312.138L192.108 274.984V311.637L198.972 307.06L199.528 246.022C199.528 246.022 205.12 213.242 205.12 204.048C205.12 194.854 189.616 166.136 182.751 157.795C175.887 149.455 164.445 142.549 161.087 140.004C157.73 137.458 152.002 140.288 152.002 140.288Z" stroke="#263238" stroke-linecap="round" stroke-linejoin="round"/>
<path d="M150.472 141.764L178.69 172.27L195.208 203.791C195.208 203.791 191.647 180.407 188.601 174.003C185.554 167.598 171.825 151.729 170.281 148.168C168.738 144.607 150.472 141.764 150.472 141.764Z" fill="white" stroke="#263238" stroke-linecap="round" stroke-linejoin="round"/>
<path d="M187.396 188.924L195.208 203.818C195.208 203.818 192.785 187.881 190.212 178.742L188.601 174.07C186.438 170.276 183.984 166.654 181.262 163.238L176.834 162.358L178.689 172.324L184.403 176.995L187.396 188.924Z" fill="#263238" stroke="#263238" stroke-linecap="round" stroke-linejoin="round"/>
<path d="M179.867 153.259L181.33 154.952L185.92 160.368L188.628 174.125L176.861 162.385C176.861 162.385 178.405 155.304 179.867 153.259Z" fill="white" stroke="#263238" stroke-linecap="round" stroke-linejoin="round"/>
<path d="M193.177 96.5675C193.177 96.5675 199.351 101.306 200.123 105.883C200.895 110.46 198.593 115.551 198.85 117.324C199.108 119.098 203.671 123.174 203.427 125.205C203.183 127.236 199.365 127.994 199.365 127.994C199.365 127.994 195.222 143.077 194.206 145.596C193.191 148.114 188.1 147.37 184.295 146.869L177.43 167.179L154.791 140.545L158.352 129.862C158.352 129.862 148.698 118.177 147.926 105.721C147.155 93.2637 157.079 84.6252 171.31 82.8515C185.54 81.0777 197.496 87.929 199.013 90.7317C200.529 93.5345 193.177 96.5675 193.177 96.5675Z" fill="white"/>
<mask id="mask4_1207_8104" style="mask-type:luminance" maskUnits="userSpaceOnUse" x="147" y="82" width="57" height="86">
<path d="M193.177 96.5675C193.177 96.5675 199.351 101.306 200.123 105.883C200.895 110.46 198.593 115.551 198.85 117.324C199.108 119.098 203.671 123.174 203.427 125.205C203.183 127.236 199.365 127.994 199.365 127.994C199.365 127.994 195.222 143.077 194.206 145.596C193.191 148.114 188.1 147.37 184.295 146.869L177.43 167.179L154.791 140.545L158.352 129.862C158.352 129.862 148.698 118.177 147.926 105.721C147.155 93.2637 157.079 84.6252 171.31 82.8515C185.54 81.0777 197.496 87.929 199.013 90.7317C200.529 93.5345 193.177 96.5675 193.177 96.5675Z" fill="white"/>
</mask>
<g mask="url(#mask4_1207_8104)">
<path d="M193.177 96.5675C193.177 96.5675 199.351 101.306 200.123 105.883C200.895 110.46 198.593 115.551 198.85 117.324C199.108 119.098 203.671 123.174 203.427 125.205C203.183 127.236 199.365 127.994 199.365 127.994C199.365 127.994 195.222 143.077 194.206 145.596C193.191 148.114 188.1 147.37 184.295 146.869L177.43 167.179L154.791 140.545L158.352 129.862C158.352 129.862 148.698 118.177 147.926 105.721C147.155 93.2637 157.079 84.6252 171.31 82.8515C185.54 81.0777 197.496 87.929 199.013 90.7317C200.529 93.5345 193.177 96.5675 193.177 96.5675Z" fill="#D9D9D9"/>
<path d="M166.801 154.708C170.619 153.937 177.024 152.61 182.792 151.31L184.281 146.896C187.449 147.315 191.511 147.911 193.353 146.625C189.02 144.838 178.296 141.71 176.103 137.689C173.395 132.692 182.873 118.15 182.873 110.879C182.873 103.608 173.788 95.4302 173.788 95.4302C169.414 91.2734 161.439 90.0142 154.358 90.0142C152.129 91.9607 150.383 94.3995 149.26 97.1374C148.137 99.8752 147.666 102.837 147.886 105.788C148.657 118.245 158.311 129.93 158.311 129.93L154.75 140.613L166.801 154.708Z" fill="#B8B8B8"/>
</g>
<path d="M193.177 96.5675C193.177 96.5675 199.351 101.306 200.123 105.883C200.895 110.46 198.593 115.551 198.85 117.324C199.108 119.098 203.671 123.174 203.427 125.205C203.183 127.236 199.365 127.994 199.365 127.994C199.365 127.994 195.222 143.077 194.206 145.596C193.191 148.114 188.1 147.37 184.295 146.869L177.43 167.179L154.791 140.545L158.352 129.862C158.352 129.862 148.698 118.177 147.926 105.721C147.155 93.2637 157.079 84.6252 171.31 82.8515C185.54 81.0777 197.496 87.929 199.013 90.7317C200.529 93.5345 193.177 96.5675 193.177 96.5675Z" stroke="#263238" stroke-linecap="round" stroke-linejoin="round"/>
<path d="M193.177 96.5674C193.177 96.5674 200.543 93.5209 199.013 90.7317C197.483 87.9425 185.541 81.0641 171.31 82.8514C157.079 84.6387 147.168 93.2637 147.926 105.72C148.685 118.177 158.352 129.862 158.352 129.862L157.811 131.487C163.078 134.06 168.521 129.862 168.521 129.862C167.527 130.364 166.399 130.535 165.302 130.353C164.204 130.17 163.192 129.643 162.414 128.847C159.368 126.058 159.11 117.162 162.929 116.39C166.747 115.618 169.279 117.162 169.279 119.951C169.279 122.74 170.037 120.967 172.082 120.709C174.126 120.452 172.326 114.359 173.598 113.344C175.656 112.07 177.464 110.432 178.933 108.51C181.221 105.463 174.614 102.931 173.856 100.128C173.097 97.3257 193.177 96.5674 193.177 96.5674Z" fill="#263238" stroke="#263238" stroke-linecap="round" stroke-linejoin="round"/>
<path d="M194.992 116.417L190.28 117.988H194.545" stroke="#263238" stroke-linecap="round" stroke-linejoin="round"/>
<path d="M196.792 111.705C196.792 111.705 194.775 108.794 192.527 110.135C190.28 111.475 190.063 112.382 190.063 112.382" stroke="#263238" stroke-linecap="round" stroke-linejoin="round"/>
<path d="M191.945 132.124C193.323 133.066 195.006 133.453 196.657 133.207" stroke="#263238" stroke-linecap="round" stroke-linejoin="round"/>
<path d="M153.776 135.712L182.237 163.672L179.705 175.614L149.457 143.077L153.776 135.712Z" fill="white" stroke="#263238" stroke-linecap="round" stroke-linejoin="round"/>
<path d="M263.111 242.61C263.111 242.61 253.091 236.652 251.467 237.194C249.842 237.735 234.135 249.109 235.219 251.817C236.302 254.525 244.697 258.045 249.571 259.941C254.445 261.837 264.465 257.775 264.465 257.775L263.111 242.61Z" fill="white" stroke="#263238" stroke-linecap="round" stroke-linejoin="round"/>
<path d="M233.919 240.444C233.919 240.444 242.584 235.569 243.938 235.569C245.292 235.569 253.146 242.61 253.146 242.61L249.896 247.484C249.896 247.484 260.186 252.629 259.103 254.525C258.02 256.421 253.958 259.399 249.625 259.941C245.292 260.483 233.106 252.629 233.106 252.629L233.919 240.444Z" fill="white"/>
<mask id="mask5_1207_8104" style="mask-type:luminance" maskUnits="userSpaceOnUse" x="233" y="235" width="27" height="25">
<path d="M233.919 240.444C233.919 240.444 242.584 235.569 243.938 235.569C245.292 235.569 253.146 242.61 253.146 242.61L249.896 247.484C249.896 247.484 260.186 252.629 259.103 254.525C258.02 256.421 253.958 259.399 249.625 259.941C245.292 260.483 233.106 252.629 233.106 252.629L233.919 240.444Z" fill="white"/>
</mask>
<g mask="url(#mask5_1207_8104)">
<path d="M233.919 240.444C233.919 240.444 242.584 235.569 243.938 235.569C245.292 235.569 253.146 242.61 253.146 242.61L249.896 247.484C249.896 247.484 260.186 252.629 259.103 254.525C258.02 256.421 253.958 259.399 249.625 259.941C245.292 260.483 233.106 252.629 233.106 252.629L233.919 240.444Z" fill="#D9D9D9"/>
</g>
<path d="M233.919 240.443C233.919 240.443 242.584 235.569 243.938 235.569C245.292 235.569 253.146 242.61 253.146 242.61L249.896 247.484C249.896 247.484 260.186 252.629 259.103 254.525C258.02 256.421 253.958 259.399 249.625 259.941C245.292 260.483 233.106 252.629 233.106 252.629L233.919 240.443Z" stroke="#263238" stroke-linecap="round" stroke-linejoin="round"/>
<path d="M227.907 238.277L235.49 239.631L233.052 252.63L226.553 250.463L227.907 238.277Z" fill="white" stroke="#263238" stroke-linecap="round" stroke-linejoin="round"/>
<path d="M139.911 162.724C139.911 162.724 132.599 176.805 131.787 183.846C130.974 190.887 160.762 246.943 162.929 248.838C165.095 250.734 228.449 252.629 228.449 252.629L231.157 238.819L176.997 223.383L158.582 166.786" fill="#263238"/>
<mask id="mask6_1207_8104" style="mask-type:luminance" maskUnits="userSpaceOnUse" x="131" y="162" width="101" height="91">
<path d="M139.911 162.724C139.911 162.724 132.599 176.805 131.787 183.846C130.974 190.887 160.762 246.943 162.929 248.838C165.095 250.734 228.449 252.629 228.449 252.629L231.157 238.819L176.997 223.383L158.582 166.786" fill="white"/>
</mask>
<g mask="url(#mask6_1207_8104)">
<path opacity="0.17" d="M139.911 162.724C139.911 162.724 132.599 176.805 131.787 183.846C130.974 190.887 160.762 246.943 162.929 248.838C165.095 250.734 228.449 252.629 228.449 252.629L231.157 238.819L176.997 223.383L158.582 166.786" fill="white"/>
</g>
<path d="M139.911 162.724C139.911 162.724 132.599 176.805 131.787 183.846C130.974 190.887 160.762 246.943 162.929 248.838C165.095 250.734 228.449 252.629 228.449 252.629L231.157 238.819L176.997 223.383L158.582 166.786" stroke="#263238" stroke-linecap="round" stroke-linejoin="round"/>
<path d="M253.633 238.548C253.633 238.548 249.842 235.298 248.488 239.09C247.134 242.881 238.739 252.088 242.53 252.359C246.321 252.63 253.362 244.776 253.362 244.776" fill="white"/>
<path d="M253.633 238.548C253.633 238.548 249.842 235.298 248.488 239.09C247.134 242.881 238.739 252.088 242.53 252.359C246.321 252.63 253.362 244.776 253.362 244.776" stroke="#263238" stroke-linecap="round" stroke-linejoin="round"/>
<path d="M236.844 253.713C236.844 253.713 235.869 258.276 238.198 260.212C239.836 261.566 240.757 257.775 240.364 255.067C239.971 252.359 237.656 251.546 236.844 253.713Z" fill="white" stroke="#263238" stroke-linecap="round" stroke-linejoin="round"/>
<path d="M240.689 254.796C240.689 254.796 239.714 259.359 242.043 261.295C243.681 262.649 244.602 258.858 244.209 256.15C243.817 253.442 241.447 252.629 240.689 254.796Z" fill="white" stroke="#263238" stroke-linecap="round" stroke-linejoin="round"/>
<path d="M244.426 256.421C244.426 256.421 243.451 260.984 245.78 262.92C247.418 264.274 248.339 260.483 247.946 257.775C247.554 255.067 245.238 254.254 244.426 256.421Z" fill="white" stroke="#263238" stroke-linecap="round" stroke-linejoin="round"/>
<path d="M248.176 258.628C248.176 258.628 247.283 261.701 249.422 263.001C250.925 263.922 251.778 261.363 251.412 259.535C251.047 257.707 248.921 257.165 248.176 258.628Z" fill="white" stroke="#263238" stroke-linecap="round" stroke-linejoin="round"/>
<path d="M263.111 242.61L263.923 259.941L269.881 258.316L268.527 242.339L263.111 242.61Z" stroke="#263238" stroke-linecap="round" stroke-linejoin="round"/>
<path d="M267.173 240.985L269.881 261.566L315.104 256.692L316.188 229.882L267.173 240.985Z" fill="#263238" stroke="#263238" stroke-linecap="round" stroke-linejoin="round"/>
<path d="M187.883 323.024C187.883 323.024 179.678 377.834 179.678 396.397C179.678 414.961 167.167 446.035 166.733 463.298" stroke="white" stroke-linecap="round" stroke-linejoin="round"/>
<path d="M139.545 505.99C141.698 507.723 190.036 507.723 194.355 505.137C198.674 502.551 196.508 499.085 194.788 499.085C193.069 499.085 171.486 484.84 171.486 484.84C171.486 484.84 159.828 493.912 153.356 496.065C146.884 498.218 136.526 498.651 136.526 498.651V501.251C137.081 503.077 138.125 504.715 139.545 505.99Z" fill="white" stroke="#263238" stroke-linecap="round" stroke-linejoin="round"/>
<path d="M194.355 505.164C196.63 503.81 197.063 502.185 196.792 500.98C190.444 502.235 183.995 502.911 177.525 502.998C164.486 503.35 143.973 502.551 136.905 502.253C137.49 503.708 138.419 505 139.613 506.017C141.698 507.75 190.036 507.75 194.355 505.164Z" fill="white" stroke="#263238" stroke-linecap="round" stroke-linejoin="round"/>
<path d="M135.267 501.617L136.526 498.678L138.246 463.298C138.246 463.298 130.474 490.92 130.054 497.392C129.729 502.104 133.304 502.009 135.267 501.617Z" fill="#263238" stroke="#263238" stroke-linecap="round" stroke-linejoin="round"/>
<path d="M321.671 312.233C321.671 312.233 317.366 376.548 321.671 402.436C325.977 428.324 336.823 473.223 338.502 478.829C339.56 482.175 340.018 485.681 339.856 489.187L364.025 492.64C364.025 492.64 356.686 407.622 356.686 397.697C356.686 387.772 364.891 313.532 364.891 313.532L321.671 312.233Z" fill="#263238" stroke="#263238" stroke-linecap="round" stroke-linejoin="round"/>
<path d="M339.801 489.187C339.801 489.187 313.48 500.412 310.447 502.564C307.414 504.717 316.932 507.75 328.577 507.75C340.221 507.75 351.893 506.396 351.893 506.396L356.632 503.81L357.065 506.83H369.576C369.576 506.83 371.742 496.471 370.93 493.885C370.314 492.116 369.596 490.384 368.777 488.699L339.801 489.187Z" fill="#263238" stroke="#263238" stroke-linecap="round" stroke-linejoin="round"/>
<path d="M317.785 307.06C317.785 307.06 319.952 368.776 325.124 390.792C330.296 412.808 339.368 466.318 339.368 471.923C339.401 475.128 338.968 478.321 338.082 481.401L336.348 487.034C336.644 488.378 337.099 489.683 337.702 490.92C337.702 490.92 348.914 493.506 356.252 493.506C360.839 493.465 365.398 492.777 369.792 491.462C369.792 491.462 370.022 477.922 370.456 471.49C370.889 465.059 368.736 423.586 368.736 413.661C368.736 403.736 366.136 398.117 366.136 386.039C366.136 373.961 363.984 341.587 364.417 336.402C364.85 331.216 370.889 325.57 372.189 319.138C373.489 312.707 374.775 305.76 374.775 305.76L317.785 307.06Z" fill="#263238" stroke="#263238" stroke-linecap="round" stroke-linejoin="round"/>
<path d="M322.958 371.944C322.958 371.944 335.022 455.635 338.041 460.915C339.842 464.285 340.325 468.204 339.395 471.91" stroke="white" stroke-linecap="round" stroke-linejoin="round"/>
<path d="M307.427 258.289C307.427 258.289 305.816 274.794 305.816 287.414C305.816 294.455 305.748 303.662 305.68 310.323C305.661 313.065 306.596 315.727 308.326 317.854C310.055 319.982 312.471 321.441 315.158 321.981C317.993 322.605 320.882 322.954 323.783 323.024L313.642 260.225C313.642 260.225 309.052 252.467 307.427 258.289Z" fill="#263238" stroke="#263238" stroke-linecap="round" stroke-linejoin="round"/>
<path d="M355.345 145.826C357.818 147.127 360.074 148.804 362.034 150.795C363.762 153.067 365.293 155.481 366.611 158.012C366.611 158.012 384.957 179.161 385.391 181.314C385.824 183.467 375.033 251.452 375.033 251.452L387.327 315.753C387.327 315.753 367.477 326.761 352.367 327.411C341.738 327.871 325.747 324.473 317.163 322.415C315.455 322.01 313.917 321.078 312.768 319.751C311.618 318.425 310.915 316.77 310.758 315.022C309.919 305.977 308.348 287.942 307.427 270.868C306.371 251.032 309.377 211.739 311.489 197.928C313.602 184.117 320.345 165.351 325.517 157.579C330.689 149.807 344.947 141.764 355.345 145.826Z" fill="#263238" stroke="#263238" stroke-linecap="round" stroke-linejoin="round"/>
<path d="M366.611 158.012C365.306 155.516 363.793 153.133 362.088 150.89C360.129 148.898 357.872 147.222 355.4 145.921C346.788 142.522 335.523 147.451 328.983 153.679C328.117 155.602 321.292 171.173 318.056 183.9C314.604 197.44 315.037 214.555 315.037 214.555C315.037 214.555 326.478 199.878 342.009 182.614C349.763 173.985 358.233 166.027 367.328 158.824L366.611 158.012Z" fill="#263238"/>
<mask id="mask7_1207_8104" style="mask-type:luminance" maskUnits="userSpaceOnUse" x="315" y="144" width="53" height="71">
<path d="M366.611 158.012C365.306 155.516 363.793 153.133 362.088 150.89C360.129 148.898 357.872 147.222 355.4 145.921C346.788 142.522 335.523 147.451 328.983 153.679C328.117 155.602 321.292 171.173 318.056 183.9C314.604 197.44 315.037 214.555 315.037 214.555C315.037 214.555 326.478 199.878 342.009 182.614C349.763 173.985 358.233 166.027 367.328 158.824L366.611 158.012Z" fill="white"/>
</mask>
<g mask="url(#mask7_1207_8104)">
<path opacity="0.17" d="M366.611 158.012C365.306 155.516 363.793 153.133 362.088 150.89C360.129 148.898 357.872 147.222 355.4 145.921C346.788 142.522 335.523 147.451 328.983 153.679C328.117 155.602 321.292 171.173 318.056 183.9C314.604 197.44 315.037 214.555 315.037 214.555C315.037 214.555 326.478 199.878 342.009 182.614C349.763 173.985 358.233 166.027 367.328 158.824L366.611 158.012Z" fill="white"/>
</g>
<path d="M366.611 158.012C365.306 155.516 363.793 153.133 362.088 150.89C360.129 148.898 357.872 147.222 355.4 145.921C346.788 142.522 335.523 147.451 328.983 153.679C328.117 155.602 321.292 171.173 318.056 183.9C314.604 197.44 315.037 214.555 315.037 214.555C315.037 214.555 326.478 199.878 342.009 182.614C349.763 173.985 358.233 166.027 367.328 158.824L366.611 158.012Z" stroke="#263238" stroke-linecap="round" stroke-linejoin="round"/>
<path d="M327.507 163.604C327.507 163.604 321.671 181.897 319.898 187.069C318.124 192.241 317.948 200.352 317.948 200.352C317.948 200.352 339.801 167.652 345.136 162.155C350.471 156.658 357.444 148.074 357.444 148.074L352.746 146.72L327.507 163.604Z" fill="white" stroke="#263238" stroke-linecap="round" stroke-linejoin="round"/>
<path d="M329.118 156.969C329.118 156.969 326.532 164.579 326.532 165.093C326.532 165.608 325.882 172.865 325.882 172.865L335.103 160.395L329.118 156.969Z" fill="white" stroke="#263238" stroke-linecap="round" stroke-linejoin="round"/>
<path d="M352.583 141.764L327.345 162.318L331.231 173.637L357.119 147.261L352.583 141.764Z" fill="white" stroke="#263238" stroke-linecap="round" stroke-linejoin="round"/>
<path d="M349.32 304.786C349.32 304.786 345.732 313.708 344.662 316.633C343.592 319.558 344.134 331.013 344.269 332.218C344.405 333.423 346.531 333.68 346.531 333.68C346.531 333.68 347.194 342.86 347.993 343.158C348.823 343.365 349.671 343.496 350.525 343.551C350.525 343.551 351.987 348.222 353.856 347.816C354.417 347.644 354.917 347.314 355.294 346.865C355.671 346.415 355.91 345.866 355.982 345.284C356.596 345.341 357.214 345.236 357.775 344.98C358.336 344.723 358.819 344.324 359.177 343.821C359.938 342.702 360.565 341.498 361.046 340.233C361.046 340.233 364.241 338.636 364.498 337.43C364.755 336.225 365.568 332.014 365.568 332.014C365.568 332.014 366.502 331.744 366.502 328.954C366.502 326.165 364.376 308.983 364.376 308.983L349.32 304.786Z" fill="white" stroke="#263238" stroke-linecap="round" stroke-linejoin="round"/>
<path d="M346.531 333.68L346.923 325.583" stroke="#263238" stroke-linecap="round" stroke-linejoin="round"/>
<path d="M350.525 343.524L351.391 331.541" stroke="#263238" stroke-linecap="round" stroke-linejoin="round"/>
<path d="M355.981 345.257L356.604 332.285" stroke="#263238" stroke-linecap="round" stroke-linejoin="round"/>
<path d="M361.045 340.206L361.817 331.175" stroke="#263238" stroke-linecap="round" stroke-linejoin="round"/>
<path d="M375.628 175.424L385.336 181.247L382.1 248.364L364.837 311.799L348.44 307.494L353.612 257.396L351.026 206.905C351.026 206.905 354.695 195.139 363.104 188.667" fill="#263238"/>
<path d="M375.628 175.424L385.336 181.247L382.1 248.364L364.837 311.799L348.44 307.494L353.612 257.396L351.026 206.905C351.026 206.905 354.695 195.139 363.104 188.667" stroke="#263238" stroke-linecap="round" stroke-linejoin="round"/>
<path d="M355.657 186.757C355.657 186.757 351.243 197.968 351.026 206.932" stroke="white" stroke-linecap="round" stroke-linejoin="round"/>
<path d="M359.34 192.092C359.34 192.092 351.784 204.427 351.784 210.006C351.784 215.584 353.775 262.135 353.775 262.135L348.603 302.321" stroke="white" stroke-linecap="round" stroke-linejoin="round"/>
<path d="M312.451 100.643C312.451 100.643 307.265 115.374 307.752 117.487C308.24 119.599 308.727 122.821 308.727 122.821C308.727 122.821 300.603 132.855 301.605 133.992C302.607 135.129 307.102 136.416 307.102 136.416C307.102 136.416 310.826 151.96 312.288 153.408C313.751 154.857 322.809 151.635 322.809 151.635L332.517 163.929L352.421 144.838L349.997 134.804C349.997 134.804 360.518 116.349 360.355 107.603C360.193 98.8557 342.239 87.2113 329.443 87.3738C316.648 87.5362 304.679 92.2346 307.102 95.6331C308.53 97.646 310.349 99.35 312.451 100.643Z" fill="white"/>
<mask id="mask8_1207_8104" style="mask-type:luminance" maskUnits="userSpaceOnUse" x="301" y="87" width="60" height="77">
<path d="M312.451 100.643C312.451 100.643 307.265 115.374 307.752 117.487C308.24 119.599 308.727 122.821 308.727 122.821C308.727 122.821 300.603 132.855 301.605 133.992C302.607 135.129 307.102 136.416 307.102 136.416C307.102 136.416 310.826 151.96 312.288 153.408C313.751 154.857 322.809 151.635 322.809 151.635L332.517 163.929L352.421 144.838L349.997 134.804C349.997 134.804 360.518 116.349 360.355 107.603C360.193 98.8557 342.239 87.2113 329.443 87.3738C316.648 87.5362 304.679 92.2346 307.102 95.6331C308.53 97.646 310.349 99.35 312.451 100.643Z" fill="white"/>
</mask>
<g mask="url(#mask8_1207_8104)">
<path d="M354.073 97.4882C351.606 97.8483 349.198 98.5312 346.91 99.5192L327.832 107.25C327.832 107.25 318.747 114.968 319.708 120.872C320.669 126.775 328.793 134.953 326.979 140.857C325.165 146.76 313.805 153.124 313.805 153.124L317.366 153.259C320.074 152.623 322.863 151.635 322.863 151.635L324.352 153.517L342.74 154.18L352.475 144.838L350.051 134.804C350.051 134.804 360.572 116.349 360.409 107.603C360.301 104.38 357.81 100.765 354.073 97.4882Z" fill="#B8B8B8"/>
</g>
<path d="M312.451 100.643C312.451 100.643 307.265 115.374 307.752 117.487C308.24 119.599 308.727 122.821 308.727 122.821C308.727 122.821 300.603 132.855 301.605 133.992C302.607 135.129 307.102 136.416 307.102 136.416C307.102 136.416 310.826 151.96 312.288 153.408C313.751 154.857 322.809 151.635 322.809 151.635L332.517 163.929L352.421 144.838L349.997 134.804C349.997 134.804 360.518 116.349 360.355 107.603C360.193 98.8557 342.239 87.2113 329.443 87.3738C316.648 87.5362 304.679 92.2346 307.102 95.6331C308.53 97.646 310.349 99.35 312.451 100.643Z" stroke="#263238" stroke-linecap="round" stroke-linejoin="round"/>
<path d="M349.997 134.804C349.997 134.804 360.518 116.349 360.355 107.603C360.193 98.8557 342.239 87.2113 329.443 87.3738C316.648 87.5362 304.679 92.2346 307.102 95.6331C308.53 97.646 310.349 99.35 312.451 100.643C312.451 100.643 320.385 104.366 320.385 105.341C320.385 106.316 315.687 111.488 317.311 113.763C318.936 116.038 326.695 118.773 326.695 118.773C326.695 118.773 325.341 123.146 327.345 123.634C329.349 124.121 330.256 122.172 331.542 120.926C332.828 119.68 337.378 117.839 338.028 123.35C338.41 127.302 337.373 131.262 335.103 134.52C334.467 134.994 343.362 140.992 347.289 139.205C348.305 138.745 349.496 138.135 350.688 137.499L349.997 134.804Z" fill="#263238" stroke="#263238" stroke-linecap="round" stroke-linejoin="round"/>
<path d="M311.151 126.87C311.779 126.87 312.288 124.912 312.288 122.497C312.288 120.081 311.779 118.123 311.151 118.123C310.523 118.123 310.014 120.081 310.014 122.497C310.014 124.912 310.523 126.87 311.151 126.87Z" stroke="#263238" stroke-linecap="round" stroke-linejoin="round"/>
<path d="M312.451 120.723L331.542 120.885" stroke="#263238" stroke-linecap="round" stroke-linejoin="round"/>
<path d="M309.31 115.456C309.31 115.456 311.124 112.558 312.938 116.173" stroke="#263238" stroke-linecap="round" stroke-linejoin="round"/>
<path d="M308.944 139.056C310.908 138.256 312.735 137.155 314.36 135.793" stroke="#263238" stroke-linecap="round" stroke-linejoin="round"/>
<path d="M12.229 507.75H545.122" stroke="#263238" stroke-width="2" stroke-miterlimit="10"/>
</svg>
