<svg width="564" height="508" viewBox="0 0 564 508" fill="none" xmlns="http://www.w3.org/2000/svg">
<path d="M117.799 79.737C117.799 79.737 52.4421 141.669 64.9124 227.594C77.3827 313.519 153.856 379.878 214.042 435.094C274.227 490.31 359.664 497.893 421.298 455.634C482.932 413.376 449.637 359.934 484.462 283.744C519.287 207.555 541.993 191.415 523.308 112.572C504.623 33.7281 392.769 -16.0855 281.43 4.75252C170.091 25.5906 117.799 79.737 117.799 79.737Z" fill="#3C6382"/>
<path opacity="0.7" d="M117.799 79.737C117.799 79.737 52.4421 141.669 64.9124 227.594C77.3827 313.519 153.856 379.878 214.042 435.094C274.227 490.31 359.664 497.893 421.298 455.634C482.932 413.376 449.637 359.934 484.462 283.744C519.287 207.555 541.993 191.415 523.308 112.572C504.623 33.7281 392.769 -16.0855 281.43 4.75252C170.091 25.5906 117.799 79.737 117.799 79.737Z" fill="white"/>
<path d="M399.418 66.4949H301.632L302.62 52.2373H400.406L399.418 66.4949Z" fill="#3C6382"/>
<path d="M399.418 86.4664H301.632L302.62 72.2088H400.406L399.418 86.4664Z" fill="#3C6382"/>
<path d="M399.418 106.451H301.632L302.62 92.1803H400.406L399.418 106.451Z" fill="#3C6382"/>
<path d="M399.418 126.423H301.632L302.62 112.152H400.406L399.418 126.423Z" fill="#3C6382"/>
<path d="M399.418 146.394H301.632L302.62 132.123H400.406L399.418 146.394Z" fill="#3C6382"/>
<path d="M399.418 166.366H301.632L302.62 152.108H400.406L399.418 166.366Z" fill="#3C6382"/>
<path d="M399.418 186.337H301.632L302.62 172.08H400.406L399.418 186.337Z" fill="#3C6382"/>
<path d="M399.418 206.323H301.632L302.62 192.051H400.406L399.418 206.323Z" fill="#3C6382"/>
<path d="M399.418 226.294H301.632L302.62 212.023H400.406L399.418 226.294Z" fill="#3C6382"/>
<path d="M399.418 246.265H301.632L302.62 231.994H400.406L399.418 246.265Z" fill="#3C6382"/>
<path d="M399.418 266.237H301.632L302.62 251.966H400.406L399.418 266.237Z" fill="#3C6382"/>
<path d="M502.822 66.4949H405.023L406.011 52.2373H503.811L502.822 66.4949Z" fill="#3C6382"/>
<path d="M502.822 86.4664H405.023L406.011 72.2088H503.811L502.822 86.4664Z" fill="#3C6382"/>
<path d="M502.822 106.451H405.023L406.011 92.1803H503.811L502.822 106.451Z" fill="#3C6382"/>
<path d="M502.822 126.423H405.023L406.011 112.152H503.811L502.822 126.423Z" fill="#3C6382"/>
<path d="M502.822 146.394H405.023L406.011 132.123H503.811L502.822 146.394Z" fill="#3C6382"/>
<path d="M502.822 166.366H405.023L406.011 152.108H503.811L502.822 166.366Z" fill="#3C6382"/>
<path d="M502.822 186.337H405.023L406.011 172.08H503.811L502.822 186.337Z" fill="#3C6382"/>
<path d="M502.822 206.323H405.023L406.011 192.051H503.811L502.822 206.323Z" fill="#3C6382"/>
<path d="M502.822 226.294H405.023L406.011 212.023H503.811L502.822 226.294Z" fill="#3C6382"/>
<path d="M502.822 246.265H405.023L406.011 231.994H503.811L502.822 246.265Z" fill="#3C6382"/>
<path d="M502.822 266.237H405.023L406.011 251.966H503.811L502.822 266.237Z" fill="#3C6382"/>
<path d="M287.916 51.452H85.8726V224.791H287.916V51.452Z" fill="#3C6382"/>
<path d="M277.802 60.1176H95.9736V216.125H277.802V60.1176Z" fill="white"/>
<mask id="mask0_1618_11348" style="mask-type:luminance" maskUnits="userSpaceOnUse" x="95" y="60" width="183" height="157">
<path d="M277.802 60.1176H95.9736V216.125H277.802V60.1176Z" fill="white"/>
</mask>
<g mask="url(#mask0_1618_11348)">
<path d="M277.802 107.413C245.103 130.675 198.268 146.11 143.932 170.36C126.811 177.879 110.699 187.513 95.9736 199.038V216.139H277.802V107.413Z" fill="#3C6382"/>
<path d="M277.802 60.1176H204.835C196.711 67.0636 187.111 74.8221 175.765 83.1356C134.238 113.587 152.232 144.066 202.073 121.887C227.65 110.527 256.125 84.2188 277.802 61.2956V60.1176Z" fill="#3C6382"/>
<path d="M127.387 77.6113C127.387 64.8972 111.558 74.9033 96.0415 87.6851V119.788C111.139 104.976 127.387 88.9849 127.387 77.6113Z" fill="#3C6382"/>
<path d="M142.551 128.143C142.551 131.019 141.698 133.83 140.1 136.222C138.503 138.613 136.231 140.477 133.574 141.578C130.917 142.678 127.993 142.966 125.172 142.405C122.351 141.844 119.76 140.459 117.727 138.425C115.693 136.392 114.308 133.8 113.747 130.98C113.186 128.159 113.474 125.235 114.574 122.578C115.675 119.92 117.539 117.649 119.93 116.051C122.322 114.453 125.133 113.601 128.009 113.601C131.866 113.601 135.565 115.133 138.292 117.86C141.019 120.587 142.551 124.286 142.551 128.143Z" fill="#3C6382"/>
<path opacity="0.75" d="M277.802 107.413C245.103 130.675 198.268 146.11 143.932 170.36C126.811 177.879 110.699 187.513 95.9736 199.038V216.139H277.802V107.413Z" fill="white"/>
<path opacity="0.75" d="M277.802 60.1176H204.835C196.711 67.0636 187.111 74.8221 175.765 83.1356C134.238 113.587 152.232 144.066 202.073 121.887C227.65 110.527 256.125 84.2188 277.802 61.2956V60.1176Z" fill="white"/>
<g opacity="0.75">
<path d="M127.387 77.6113C127.387 64.8972 111.558 74.9033 96.0415 87.6851V119.788C111.139 104.976 127.387 88.9849 127.387 77.6113Z" fill="white"/>
</g>
<path opacity="0.75" d="M142.551 128.143C142.551 131.019 141.698 133.83 140.1 136.222C138.503 138.613 136.231 140.477 133.574 141.578C130.917 142.678 127.993 142.966 125.172 142.405C122.351 141.844 119.76 140.459 117.727 138.425C115.693 136.392 114.308 133.8 113.747 130.98C113.186 128.159 113.474 125.235 114.574 122.578C115.675 119.92 117.539 117.649 119.93 116.051C122.322 114.453 125.133 113.601 128.009 113.601C131.866 113.601 135.565 115.133 138.292 117.86C141.019 120.587 142.551 124.286 142.551 128.143Z" fill="white"/>
</g>
<path d="M246.375 174.517C246.375 178.352 245.238 182.102 243.107 185.291C240.976 188.479 237.947 190.965 234.403 192.432C230.859 193.899 226.96 194.282 223.198 193.533C219.437 192.784 215.982 190.936 213.271 188.223C210.56 185.51 208.714 182.053 207.968 178.291C207.221 174.529 207.607 170.63 209.077 167.088C210.546 163.545 213.033 160.518 216.224 158.389C219.414 156.26 223.164 155.125 227 155.128C229.545 155.128 232.066 155.629 234.417 156.604C236.769 157.579 238.906 159.007 240.705 160.808C242.504 162.608 243.931 164.746 244.904 167.098C245.877 169.45 246.377 171.971 246.375 174.517Z" fill="white"/>
<path d="M519.693 408.745C516.179 412.821 513.806 417.754 512.815 423.044L499.018 430.775V394.217L499.289 394.583L521.264 378.497C524.04 378.93 534.709 380.149 544.431 374.909C555.723 368.83 563.969 348.005 563.969 348.005C563.969 348.005 537.052 344.958 527.939 356.251C520.546 365.404 520.289 374.273 520.465 377.292L499.018 392.985V365.973C503.035 364.102 506.585 361.362 509.412 357.95C512.238 354.538 514.27 350.539 515.361 346.245C519.26 331.053 498.436 301.116 498.436 301.116C498.436 301.116 476.772 331.933 481.064 347.558C484.747 360.787 494.604 364.984 497.569 365.959V424.52L482.133 411.616C482.485 408.529 482.77 398.875 474.172 389.207C463.746 377.482 435.976 378.375 435.976 378.375C435.976 378.375 447.688 401.813 457.64 409.626C466.359 416.396 478.396 413.688 481.294 412.862L497.542 426.402V444.207H473.373L483.244 505.895H512.856L522.753 444.22H499.018V432.44L514.183 423.937C517.866 424.966 528.169 427.079 537.918 422.204C550.104 416.125 560.056 403.099 560.056 403.099C560.056 403.099 530.986 395.72 519.693 408.745Z" fill="#3C6382"/>
<path opacity="0.5" d="M519.693 408.745C516.179 412.821 513.806 417.754 512.815 423.044L499.018 430.775V394.217L499.289 394.583L521.264 378.497C524.04 378.93 534.709 380.149 544.431 374.909C555.723 368.83 563.969 348.005 563.969 348.005C563.969 348.005 537.052 344.958 527.939 356.251C520.546 365.404 520.289 374.273 520.465 377.292L499.018 392.985V365.973C503.035 364.102 506.585 361.362 509.412 357.95C512.238 354.538 514.27 350.539 515.361 346.245C519.26 331.053 498.436 301.116 498.436 301.116C498.436 301.116 476.772 331.933 481.064 347.558C484.747 360.787 494.604 364.984 497.569 365.959V424.52L482.133 411.616C482.485 408.529 482.77 398.875 474.172 389.207C463.746 377.482 435.976 378.375 435.976 378.375C435.976 378.375 447.688 401.813 457.64 409.626C466.359 416.396 478.396 413.688 481.294 412.862L497.542 426.402V444.207H473.373L483.244 505.895H512.856L522.753 444.22H499.018V432.44L514.183 423.937C517.866 424.966 528.169 427.079 537.918 422.204C550.104 416.125 560.056 403.099 560.056 403.099C560.056 403.099 530.986 395.72 519.693 408.745Z" fill="white"/>
<path d="M492.329 222.367L452.481 222.706C452.481 222.706 449.773 222.367 449.191 224.344C449.191 224.344 442.272 241.811 441.947 248.066C441.622 254.322 443.301 253.333 440.593 261.606C437.885 269.879 430.384 289.269 426.105 305.083C420.351 326.328 418.848 348.885 418.482 370.82C418.482 374.34 416.316 404.67 421.799 404.67C426.349 404.67 468.282 410.235 468.783 402.152C470.801 369.926 464.978 338.446 476.163 307.114C480.509 294.928 485.492 282.092 489.188 269.365C492.884 256.637 493.521 243.395 495.958 230.37C497.596 221.379 492.329 222.367 492.329 222.367Z" fill="#144368"/>
<path d="M496.242 226.321C495.849 221.718 492.329 222.367 492.329 222.367L452.481 222.706C452.481 222.706 449.773 222.367 449.191 224.344C449.191 224.344 442.272 241.811 441.947 248.066C441.849 249.719 441.894 251.377 442.082 253.022L442.922 254.376C442.922 254.376 444.276 265.899 460.05 266.562C475.824 267.225 484.76 259.968 488.05 253.022C491.341 246.076 492.668 234.905 495.294 228.312C495.577 227.633 495.893 226.968 496.242 226.321Z" fill="#13324A"/>
<path d="M486.994 239.184C484.286 248.811 485.925 251.478 483.257 268.051C480.59 284.624 470.963 303.255 467.212 320.438C463.462 337.62 465.087 397.941 465.615 400.622C465.824 402.042 465.901 403.479 465.845 404.914C467.646 404.237 468.729 403.316 468.81 402.057C470.828 369.832 465.005 338.351 476.189 307.02C480.536 294.834 485.519 281.998 489.215 269.27C492.911 256.542 493.548 243.3 495.985 230.275C497 224.859 495.403 223.085 494.008 222.557C490.98 227.782 488.623 233.369 486.994 239.184Z" fill="#3C6382"/>
<path d="M410.02 482.403L409.749 482.187V444.979H415.097V421.46H395.329V444.979H400.664V482.823L353.355 497.906V501.643C353.355 502.778 353.806 503.867 354.608 504.669C355.411 505.471 356.499 505.922 357.634 505.922C358.768 505.922 359.857 505.471 360.659 504.669C361.461 503.867 361.912 502.778 361.912 501.643V501.115L401.476 496.512V502.185C401.476 503.176 401.87 504.127 402.571 504.828C403.271 505.528 404.222 505.922 405.213 505.922C406.204 505.922 407.155 505.528 407.856 504.828C408.556 504.127 408.95 503.176 408.95 502.185V496.322L450.112 501.115V501.643C450.112 502.778 450.563 503.867 451.365 504.669C452.167 505.471 453.256 505.922 454.39 505.922C455.525 505.922 456.613 505.471 457.416 504.669C458.218 503.867 458.669 502.778 458.669 501.643V497.906L410.02 482.403Z" fill="#656565"/>
<path d="M466.427 398.523H348.941C345.95 398.523 343.525 400.948 343.525 403.939V420.39C343.525 423.381 345.95 425.806 348.941 425.806H466.427C469.419 425.806 471.843 423.381 471.843 420.39V403.939C471.843 400.948 469.419 398.523 466.427 398.523Z" fill="#656565"/>
<path d="M3.95597 222.367L43.8042 222.706C43.8042 222.706 46.5122 222.367 47.108 224.344C47.108 224.344 54.0269 241.811 54.3519 248.066C54.6768 254.322 52.9979 253.333 55.7059 261.606C58.4139 269.879 65.915 289.269 70.1937 305.083C75.9617 326.328 77.4511 348.885 77.8167 370.82C77.8167 374.34 79.9831 404.67 74.4994 404.67C69.9635 404.67 28.0301 410.235 27.5156 402.152C25.5117 369.926 31.3203 338.446 20.1363 307.114C15.7899 294.928 10.8072 282.092 7.12433 269.365C3.44145 256.637 2.79153 243.395 0.35433 230.37C-1.24339 221.379 3.95597 222.367 3.95597 222.367Z" fill="#144368"/>
<path d="M0.11084 226.321C0.5035 221.718 4.01036 222.367 4.01036 222.367L43.8586 222.706C43.8586 222.706 46.5666 222.367 47.1623 224.344C47.1623 224.344 54.0813 241.811 54.4062 248.066C54.4944 249.72 54.4446 251.377 54.2573 253.022L53.4178 254.376C53.4178 254.376 52.0638 265.899 36.2897 266.562C20.5156 267.225 11.5386 259.968 8.23484 253.008C4.93108 246.049 3.63124 234.892 0.990942 228.298C0.736179 227.623 0.442313 226.962 0.11084 226.321Z" fill="#3C6382"/>
<path d="M9.29084 239.184C11.9988 248.811 10.3605 251.478 13.0279 268.051C15.6953 284.624 25.3357 303.255 29.0728 320.438C32.8098 337.62 31.2527 397.941 30.6705 400.622C30.4675 402.043 30.3905 403.479 30.4403 404.914C28.653 404.237 27.5563 403.316 27.4751 402.057C25.4711 369.832 31.2798 338.351 20.0958 307.02C15.7494 294.834 10.7667 281.998 7.08382 269.27C3.40094 256.542 2.75102 243.3 0.31382 230.275C-0.68814 224.859 0.909579 223.085 2.29066 222.557C5.32073 227.78 7.67306 233.367 9.29084 239.184Z" fill="#3C6382"/>
<path d="M86.2657 482.403L86.5365 482.187V444.979H81.1205V421.46H100.902V444.979H95.5542V482.823L142.863 497.906V501.643C142.863 502.778 142.412 503.867 141.61 504.669C140.807 505.471 139.719 505.922 138.584 505.922C137.45 505.922 136.361 505.471 135.559 504.669C134.756 503.867 134.306 502.778 134.306 501.643V501.115L94.8907 496.512V502.185C94.8333 503.139 94.4139 504.035 93.7181 504.69C93.0223 505.346 92.1026 505.71 91.1469 505.71C90.1912 505.71 89.2715 505.346 88.5757 504.69C87.8799 504.035 87.4605 503.139 87.4031 502.185V496.322L46.1467 501.115V501.643C46.1794 502.225 46.0932 502.807 45.8933 503.353C45.6934 503.9 45.3841 504.4 44.9842 504.823C44.5843 505.246 44.1023 505.583 43.5676 505.814C43.033 506.044 42.457 506.163 41.8748 506.163C41.2927 506.163 40.7167 506.044 40.182 505.814C39.6474 505.583 39.1654 505.246 38.7655 504.823C38.3656 504.4 38.0562 503.9 37.8563 503.353C37.6564 502.807 37.5702 502.225 37.603 501.643V497.906L86.2657 482.403Z" fill="#656565"/>
<path d="M29.8577 425.792H147.344C150.335 425.792 152.76 423.368 152.76 420.376V403.925C152.76 400.934 150.335 398.509 147.344 398.509H29.8577C26.8665 398.509 24.4417 400.934 24.4417 403.925V420.376C24.4417 423.368 26.8665 425.792 29.8577 425.792Z" fill="#656565"/>
<path d="M442.868 321.9H121.158V506.802H442.868V321.9Z" fill="#CCCCCC"/>
<path d="M442.625 326.341H121.32V331.459H442.625V326.341Z" fill="#263238"/>
<path d="M445.251 318.867H113.995V326.95H445.251V318.867Z" fill="#CCCCCC"/>
<path d="M206.812 302.809C206.812 302.809 210.603 319.747 210.386 324.473C210.17 329.198 201.247 341.858 201.017 338.96C201.092 336.505 201.625 334.085 202.587 331.825C202.587 331.825 199.46 336.063 198.349 335.887C197.239 335.711 199.243 329.861 199.243 329.861C199.243 329.861 195.899 333.206 194.775 332.569C193.651 331.933 197.225 326.991 197.225 326.991C197.225 326.991 193.163 331.229 193.001 329.889C192.839 328.548 196.562 322.983 196.562 322.983C196.562 322.983 192.771 314.954 192.5 311.61C192.524 309.274 193.303 307.008 194.721 305.151L206.812 302.809Z" fill="white"/>
<mask id="mask1_1618_11348" style="mask-type:luminance" maskUnits="userSpaceOnUse" x="192" y="302" width="19" height="38">
<path d="M206.812 302.809C206.812 302.809 210.603 319.747 210.386 324.473C210.17 329.198 201.247 341.858 201.017 338.96C201.092 336.505 201.625 334.085 202.587 331.825C202.587 331.825 199.46 336.063 198.349 335.887C197.239 335.711 199.243 329.861 199.243 329.861C199.243 329.861 195.899 333.206 194.775 332.569C193.651 331.933 197.225 326.991 197.225 326.991C197.225 326.991 193.163 331.229 193.001 329.889C192.839 328.548 196.562 322.983 196.562 322.983C196.562 322.983 192.771 314.954 192.5 311.61C192.524 309.274 193.303 307.008 194.721 305.151L206.812 302.809Z" fill="white"/>
</mask>
<g mask="url(#mask1_1618_11348)">
<path d="M206.812 302.809C206.812 302.809 210.603 319.747 210.386 324.473C210.17 329.198 201.247 341.858 201.017 338.96C201.092 336.505 201.625 334.085 202.587 331.825C202.587 331.825 199.46 336.063 198.349 335.887C197.239 335.711 199.243 329.861 199.243 329.861C199.243 329.861 195.899 333.206 194.775 332.569C193.651 331.933 197.225 326.991 197.225 326.991C197.225 326.991 193.163 331.229 193.001 329.889C192.839 328.548 196.562 322.983 196.562 322.983C196.562 322.983 192.771 314.954 192.5 311.61C192.524 309.274 193.303 307.008 194.721 305.151L206.812 302.809Z" fill="#D9D9D9"/>
</g>
<path d="M206.812 302.809C206.812 302.809 210.603 319.747 210.386 324.473C210.17 329.198 201.247 341.858 201.017 338.96C201.092 336.505 201.625 334.085 202.587 331.825C202.587 331.825 199.46 336.063 198.349 335.887C197.239 335.711 199.243 329.861 199.243 329.861C199.243 329.861 195.899 333.206 194.775 332.569C193.651 331.933 197.225 326.991 197.225 326.991C197.225 326.991 193.163 331.229 193.001 329.889C192.839 328.548 196.562 322.983 196.562 322.983C196.562 322.983 192.771 314.954 192.5 311.61C192.524 309.274 193.303 307.008 194.721 305.151L206.812 302.809Z" stroke="#263238" stroke-linecap="round" stroke-linejoin="round"/>
<path d="M205.918 302.809C205.918 302.809 208.626 314.629 208.382 317.973C208.139 321.318 204.808 331.121 202.357 329.333C199.906 327.546 203.914 320.871 203.914 320.871C203.914 320.871 197.036 316.037 195.452 311.501C193.867 306.965 194.775 305.043 194.775 305.043L205.918 302.809Z" fill="white"/>
<mask id="mask2_1618_11348" style="mask-type:luminance" maskUnits="userSpaceOnUse" x="194" y="302" width="15" height="28">
<path d="M205.918 302.809C205.918 302.809 208.626 314.629 208.382 317.973C208.139 321.318 204.808 331.121 202.357 329.333C199.906 327.546 203.914 320.871 203.914 320.871C203.914 320.871 197.036 316.037 195.452 311.501C193.867 306.965 194.775 305.043 194.775 305.043L205.918 302.809Z" fill="white"/>
</mask>
<g mask="url(#mask2_1618_11348)">
<path d="M205.918 302.809C205.918 302.809 208.626 314.629 208.382 317.973C208.139 321.318 204.808 331.121 202.357 329.333C199.906 327.546 203.914 320.871 203.914 320.871C203.914 320.871 197.036 316.037 195.452 311.501C193.867 306.965 194.775 305.043 194.775 305.043L205.918 302.809Z" fill="#D9D9D9"/>
</g>
<path d="M205.918 302.809C205.918 302.809 208.626 314.629 208.382 317.973C208.139 321.318 204.808 331.121 202.357 329.333C199.906 327.546 203.914 320.871 203.914 320.871C203.914 320.871 197.036 316.037 195.452 311.501C193.867 306.965 194.775 305.043 194.775 305.043L205.918 302.809Z" stroke="#263238" stroke-linecap="round" stroke-linejoin="round"/>
<path d="M197.754 247.416L207.245 303.946L193.868 306.965L180.49 263.38L197.754 247.416Z" fill="#263238" stroke="#263238" stroke-linecap="round" stroke-linejoin="round"/>
<path d="M193.868 275.038C193.868 275.038 194.734 342.359 196.02 360.489C197.307 378.619 192.568 402.788 188.262 409.693C183.956 416.599 164.946 459.791 165.813 462.35C166.679 464.909 170.565 472.708 170.565 474.861V483.92C170.565 483.92 192.134 498.164 193.868 498.164C195.601 498.164 197.754 501.616 193.434 504.216C189.115 506.816 140.777 506.802 138.624 505.069C137.204 503.795 136.16 502.156 135.605 500.33C135.605 500.33 128.7 502.916 129.133 496.444C129.566 489.972 137.325 462.35 137.325 462.35C137.325 462.35 132.586 432.129 134.305 412.713C136.025 393.296 142.077 369.98 142.077 365.241C142.077 360.502 136.038 328.981 135.172 323.809C134.305 318.637 121.794 303.946 127.4 292.302C133.005 280.657 137.325 262.08 139.058 260.794C140.791 259.508 164.093 258.628 173.585 260.794C183.076 262.96 193.434 262.947 193.868 275.038Z" fill="#263238" stroke="#263238" stroke-linecap="round" stroke-linejoin="round"/>
<path d="M151.081 139.34C151.081 139.34 143.702 145.948 142.429 148.236C141.156 150.524 125.667 172.608 125.409 188.396C125.152 204.183 136.864 251.925 136.864 251.925L119.262 296.702L124.353 298.733L129.431 293.141V301.536C129.431 301.536 135.28 306.871 150.526 311.948C165.772 317.026 185.351 311.19 185.351 311.19L191.187 274.036V310.689L198.051 306.112L198.607 245.074C198.607 245.074 204.199 212.294 204.199 203.1C204.199 193.906 188.695 165.188 181.831 156.847C174.966 148.507 163.524 141.601 160.167 139.056C156.809 136.51 151.081 139.34 151.081 139.34Z" fill="#263238"/>
<mask id="mask3_1618_11348" style="mask-type:luminance" maskUnits="userSpaceOnUse" x="119" y="137" width="86" height="178">
<path d="M151.081 139.34C151.081 139.34 143.702 145.948 142.429 148.236C141.156 150.524 125.667 172.608 125.409 188.396C125.152 204.183 136.864 251.925 136.864 251.925L119.262 296.702L124.353 298.733L129.431 293.141V301.536C129.431 301.536 135.28 306.871 150.526 311.948C165.772 317.026 185.351 311.19 185.351 311.19L191.187 274.036V310.689L198.051 306.112L198.607 245.074C198.607 245.074 204.199 212.294 204.199 203.1C204.199 193.906 188.695 165.188 181.831 156.847C174.966 148.507 163.524 141.601 160.167 139.056C156.809 136.51 151.081 139.34 151.081 139.34Z" fill="white"/>
</mask>
<g mask="url(#mask3_1618_11348)">
<path opacity="0.17" d="M151.081 139.34C151.081 139.34 143.702 145.948 142.429 148.236C141.156 150.524 125.667 172.608 125.409 188.396C125.152 204.183 136.864 251.925 136.864 251.925L119.262 296.702L124.353 298.733L129.431 293.141V301.536C129.431 301.536 135.28 306.871 150.526 311.948C165.772 317.026 185.351 311.19 185.351 311.19L191.187 274.036V310.689L198.051 306.112L198.607 245.074C198.607 245.074 204.199 212.294 204.199 203.1C204.199 193.906 188.695 165.188 181.831 156.847C174.966 148.507 163.524 141.601 160.167 139.056C156.809 136.51 151.081 139.34 151.081 139.34Z" fill="white"/>
<path d="M129.363 193.459C129.363 193.459 138.598 199.999 144.745 202.301" stroke="#263238" stroke-linecap="round" stroke-linejoin="round"/>
<path d="M132.058 200.392C132.058 200.392 142.443 203.1 147.818 203.1" stroke="#263238" stroke-linecap="round" stroke-linejoin="round"/>
<path d="M147.06 261.891L176.279 265.357L174.357 271.504L147.439 268.43" stroke="#263238" stroke-linecap="round" stroke-linejoin="round"/>
</g>
<path d="M151.081 139.34C151.081 139.34 143.702 145.948 142.429 148.236C141.156 150.524 125.667 172.608 125.409 188.396C125.152 204.183 136.864 251.925 136.864 251.925L119.262 296.702L124.353 298.733L129.431 293.141V301.536C129.431 301.536 135.28 306.871 150.526 311.948C165.772 317.026 185.351 311.19 185.351 311.19L191.187 274.036V310.689L198.051 306.112L198.607 245.074C198.607 245.074 204.199 212.294 204.199 203.1C204.199 193.906 188.695 165.188 181.831 156.847C174.966 148.507 163.524 141.601 160.167 139.056C156.809 136.51 151.081 139.34 151.081 139.34Z" stroke="#263238" stroke-linecap="round" stroke-linejoin="round"/>
<path d="M149.551 140.816L177.769 171.322L194.287 202.843C194.287 202.843 190.726 179.459 187.68 173.055C184.633 166.65 170.904 150.781 169.36 147.22C167.817 143.659 149.551 140.816 149.551 140.816Z" fill="white" stroke="#263238" stroke-linecap="round" stroke-linejoin="round"/>
<path d="M186.475 187.976L194.287 202.87C194.287 202.87 191.864 186.933 189.291 177.794L187.68 173.122C185.517 169.328 183.063 165.706 180.341 162.29L175.914 161.41L177.769 171.376L183.482 176.047L186.475 187.976Z" fill="#263238" stroke="#263238" stroke-linecap="round" stroke-linejoin="round"/>
<path d="M178.946 152.311L180.409 154.004L184.999 159.42L187.707 173.177L175.94 161.437C175.94 161.437 177.484 154.356 178.946 152.311Z" fill="white" stroke="#263238" stroke-linecap="round" stroke-linejoin="round"/>
<path d="M192.256 95.6194C192.256 95.6194 198.43 100.358 199.202 104.935C199.974 109.511 197.672 114.603 197.929 116.376C198.187 118.15 202.75 122.226 202.506 124.257C202.262 126.288 198.444 127.046 198.444 127.046C198.444 127.046 194.301 142.129 193.285 144.648C192.27 147.166 187.179 146.422 183.374 145.921L176.509 166.231L153.87 139.597L157.431 128.914C157.431 128.914 147.777 117.229 147.005 104.772C146.234 92.3157 156.158 83.6771 170.389 81.9034C184.62 80.1297 196.575 86.9809 198.092 89.7837C199.608 92.5865 192.256 95.6194 192.256 95.6194Z" fill="white"/>
<mask id="mask4_1618_11348" style="mask-type:luminance" maskUnits="userSpaceOnUse" x="146" y="81" width="57" height="86">
<path d="M192.256 95.6194C192.256 95.6194 198.43 100.358 199.202 104.935C199.974 109.511 197.672 114.603 197.929 116.376C198.187 118.15 202.75 122.226 202.506 124.257C202.262 126.288 198.444 127.046 198.444 127.046C198.444 127.046 194.301 142.129 193.285 144.648C192.27 147.166 187.179 146.422 183.374 145.921L176.509 166.231L153.87 139.597L157.431 128.914C157.431 128.914 147.777 117.229 147.005 104.772C146.234 92.3157 156.158 83.6771 170.389 81.9034C184.62 80.1297 196.575 86.9809 198.092 89.7837C199.608 92.5865 192.256 95.6194 192.256 95.6194Z" fill="white"/>
</mask>
<g mask="url(#mask4_1618_11348)">
<path d="M192.256 95.6194C192.256 95.6194 198.43 100.358 199.202 104.935C199.974 109.511 197.672 114.603 197.929 116.376C198.187 118.15 202.75 122.226 202.506 124.257C202.262 126.288 198.444 127.046 198.444 127.046C198.444 127.046 194.301 142.129 193.285 144.648C192.27 147.166 187.179 146.422 183.374 145.921L176.509 166.231L153.87 139.597L157.431 128.914C157.431 128.914 147.777 117.229 147.005 104.772C146.234 92.3157 156.158 83.6771 170.389 81.9034C184.62 80.1297 196.575 86.9809 198.092 89.7837C199.608 92.5865 192.256 95.6194 192.256 95.6194Z" fill="#D9D9D9"/>
<path d="M165.88 153.76C169.698 152.988 176.103 151.661 181.871 150.362L183.36 145.948C186.529 146.367 190.591 146.963 192.432 145.677C188.099 143.889 177.375 140.762 175.182 136.74C172.474 131.744 181.952 117.202 181.952 109.931C181.952 102.66 172.867 94.482 172.867 94.482C168.493 90.3253 160.518 89.066 153.437 89.066C151.208 91.0126 149.462 93.4514 148.339 96.1892C147.216 98.9271 146.745 101.889 146.965 104.84C147.736 117.297 157.39 128.982 157.39 128.982L153.829 139.665L165.88 153.76Z" fill="#B8B8B8"/>
</g>
<path d="M192.256 95.6194C192.256 95.6194 198.43 100.358 199.202 104.935C199.974 109.511 197.672 114.603 197.929 116.376C198.187 118.15 202.75 122.226 202.506 124.257C202.262 126.288 198.444 127.046 198.444 127.046C198.444 127.046 194.301 142.129 193.285 144.648C192.27 147.166 187.179 146.422 183.374 145.921L176.509 166.231L153.87 139.597L157.431 128.914C157.431 128.914 147.777 117.229 147.005 104.772C146.234 92.3157 156.158 83.6771 170.389 81.9034C184.62 80.1297 196.575 86.9809 198.092 89.7837C199.608 92.5865 192.256 95.6194 192.256 95.6194Z" stroke="#263238" stroke-linecap="round" stroke-linejoin="round"/>
<path d="M192.256 95.6194C192.256 95.6194 199.622 92.5729 198.092 89.7837C196.562 86.9945 184.62 80.1161 170.389 81.9034C156.159 83.6907 146.247 92.3157 147.006 104.772C147.764 117.229 157.431 128.914 157.431 128.914L156.89 130.539C162.157 133.112 167.6 128.914 167.6 128.914C166.606 129.416 165.479 129.587 164.381 129.405C163.283 129.222 162.271 128.695 161.493 127.899C158.447 125.11 158.19 116.214 162.008 115.442C165.826 114.67 168.358 116.214 168.358 119.003C168.358 121.792 169.116 120.019 171.161 119.761C173.205 119.504 171.405 113.411 172.677 112.396C174.735 111.122 176.543 109.484 178.012 107.562C180.3 104.515 173.693 101.983 172.935 99.1805C172.176 96.3777 192.256 95.6194 192.256 95.6194Z" fill="#263238" stroke="#263238" stroke-linecap="round" stroke-linejoin="round"/>
<path d="M194.071 115.469L189.359 117.04H193.624" stroke="#263238" stroke-linecap="round" stroke-linejoin="round"/>
<path d="M195.871 110.757C195.871 110.757 193.854 107.846 191.606 109.187C189.359 110.527 189.142 111.434 189.142 111.434" stroke="#263238" stroke-linecap="round" stroke-linejoin="round"/>
<path d="M191.024 131.175C192.402 132.118 194.085 132.504 195.736 132.259" stroke="#263238" stroke-linecap="round" stroke-linejoin="round"/>
<path d="M152.855 134.764L181.316 162.724L178.784 174.666L148.536 142.129L152.855 134.764Z" fill="white" stroke="#263238" stroke-linecap="round" stroke-linejoin="round"/>
<path d="M262.19 241.662C262.19 241.662 252.17 235.704 250.546 236.246C248.921 236.787 233.214 248.161 234.298 250.869C235.381 253.577 243.776 257.097 248.65 258.993C253.524 260.889 263.544 256.827 263.544 256.827L262.19 241.662Z" fill="white" stroke="#263238" stroke-linecap="round" stroke-linejoin="round"/>
<path d="M232.998 239.496C232.998 239.496 241.664 234.621 243.018 234.621C244.372 234.621 252.225 241.662 252.225 241.662L248.975 246.536C248.975 246.536 259.266 251.681 258.182 253.577C257.099 255.473 253.037 258.451 248.704 258.993C244.372 259.535 232.186 251.682 232.186 251.682L232.998 239.496Z" fill="white"/>
<mask id="mask5_1618_11348" style="mask-type:luminance" maskUnits="userSpaceOnUse" x="232" y="234" width="27" height="26">
<path d="M232.998 239.496C232.998 239.496 241.664 234.621 243.018 234.621C244.372 234.621 252.225 241.662 252.225 241.662L248.975 246.536C248.975 246.536 259.266 251.681 258.182 253.577C257.099 255.473 253.037 258.451 248.704 258.993C244.372 259.535 232.186 251.682 232.186 251.682L232.998 239.496Z" fill="white"/>
</mask>
<g mask="url(#mask5_1618_11348)">
<path d="M232.998 239.496C232.998 239.496 241.664 234.621 243.018 234.621C244.372 234.621 252.225 241.662 252.225 241.662L248.975 246.536C248.975 246.536 259.266 251.681 258.182 253.577C257.099 255.473 253.037 258.451 248.704 258.993C244.372 259.535 232.186 251.682 232.186 251.682L232.998 239.496Z" fill="#D9D9D9"/>
</g>
<path d="M232.998 239.496C232.998 239.496 241.664 234.621 243.018 234.621C244.372 234.621 252.225 241.662 252.225 241.662L248.975 246.536C248.975 246.536 259.266 251.681 258.182 253.577C257.099 255.473 253.037 258.451 248.704 258.993C244.372 259.535 232.186 251.682 232.186 251.682L232.998 239.496Z" stroke="#263238" stroke-linecap="round" stroke-linejoin="round"/>
<path d="M226.986 237.329L234.569 238.683L232.132 251.682L225.632 249.515L226.986 237.329Z" fill="white" stroke="#263238" stroke-linecap="round" stroke-linejoin="round"/>
<path d="M138.99 161.776C138.99 161.776 131.678 175.857 130.866 182.898C130.054 189.939 159.842 245.995 162.008 247.89C164.174 249.786 227.528 251.681 227.528 251.681L230.236 237.871L176.076 222.435L157.662 165.838" fill="#263238"/>
<mask id="mask6_1618_11348" style="mask-type:luminance" maskUnits="userSpaceOnUse" x="130" y="161" width="101" height="91">
<path d="M138.99 161.776C138.99 161.776 131.678 175.857 130.866 182.898C130.054 189.939 159.842 245.995 162.008 247.89C164.174 249.786 227.528 251.681 227.528 251.681L230.236 237.871L176.076 222.435L157.662 165.838" fill="white"/>
</mask>
<g mask="url(#mask6_1618_11348)">
<path opacity="0.17" d="M138.99 161.776C138.99 161.776 131.678 175.857 130.866 182.898C130.054 189.939 159.842 245.995 162.008 247.89C164.174 249.786 227.528 251.681 227.528 251.681L230.236 237.871L176.076 222.435L157.662 165.838" fill="white"/>
</g>
<path d="M138.99 161.776C138.99 161.776 131.678 175.857 130.866 182.898C130.054 189.939 159.842 245.995 162.008 247.89C164.174 249.786 227.528 251.681 227.528 251.681L230.236 237.871L176.076 222.435L157.662 165.838" stroke="#263238" stroke-linecap="round" stroke-linejoin="round"/>
<path d="M252.712 237.6C252.712 237.6 248.921 234.35 247.567 238.141C246.213 241.933 237.818 251.14 241.609 251.411C245.4 251.681 252.441 243.828 252.441 243.828" fill="white"/>
<path d="M252.712 237.6C252.712 237.6 248.921 234.35 247.567 238.141C246.213 241.933 237.818 251.14 241.609 251.411C245.4 251.681 252.441 243.828 252.441 243.828" stroke="#263238" stroke-linecap="round" stroke-linejoin="round"/>
<path d="M235.923 252.765C235.923 252.765 234.948 257.328 237.277 259.264C238.915 260.618 239.836 256.827 239.443 254.119C239.05 251.411 236.735 250.598 235.923 252.765Z" fill="white" stroke="#263238" stroke-linecap="round" stroke-linejoin="round"/>
<path d="M239.768 253.848C239.768 253.848 238.793 258.411 241.122 260.347C242.76 261.701 243.681 257.91 243.288 255.202C242.896 252.494 240.526 251.681 239.768 253.848Z" fill="white" stroke="#263238" stroke-linecap="round" stroke-linejoin="round"/>
<path d="M243.505 255.473C243.505 255.473 242.53 260.036 244.859 261.972C246.498 263.326 247.418 259.535 247.026 256.827C246.633 254.119 244.318 253.306 243.505 255.473Z" fill="white" stroke="#263238" stroke-linecap="round" stroke-linejoin="round"/>
<path d="M247.255 257.68C247.255 257.68 246.362 260.753 248.501 262.053C250.004 262.974 250.857 260.415 250.492 258.587C250.126 256.759 248 256.217 247.255 257.68Z" fill="white" stroke="#263238" stroke-linecap="round" stroke-linejoin="round"/>
<path d="M262.19 241.662L263.002 258.993L268.96 257.368L267.606 241.391L262.19 241.662Z" stroke="#263238" stroke-linecap="round" stroke-linejoin="round"/>
<path d="M266.252 240.037L268.96 260.618L314.184 255.744L315.267 228.934L266.252 240.037Z" fill="#263238" stroke="#263238" stroke-linecap="round" stroke-linejoin="round"/>
<path d="M186.962 322.076C186.962 322.076 178.757 376.886 178.757 395.449C178.757 414.013 166.246 445.087 165.812 462.35" stroke="white" stroke-linecap="round" stroke-linejoin="round"/>
<path d="M138.624 505.042C140.777 506.775 189.115 506.775 193.434 504.189C197.754 501.603 195.587 498.137 193.868 498.137C192.148 498.137 170.565 483.892 170.565 483.892C170.565 483.892 158.907 492.964 152.435 495.117C145.963 497.27 135.605 497.703 135.605 497.703V500.303C136.16 502.129 137.204 503.767 138.624 505.042Z" fill="white" stroke="#263238" stroke-linecap="round" stroke-linejoin="round"/>
<path d="M193.434 504.216C195.709 502.862 196.142 501.237 195.871 500.032C189.523 501.287 183.074 501.963 176.604 502.05C163.565 502.402 143.052 501.603 135.984 501.305C136.569 502.76 137.498 504.052 138.692 505.069C140.777 506.802 189.115 506.802 193.434 504.216Z" fill="white" stroke="#263238" stroke-linecap="round" stroke-linejoin="round"/>
<path d="M134.346 500.669L135.605 497.73L137.325 462.35C137.325 462.35 129.553 489.972 129.133 496.444C128.808 501.156 132.383 501.061 134.346 500.669Z" fill="#263238" stroke="#263238" stroke-linecap="round" stroke-linejoin="round"/>
<path d="M320.751 311.285C320.751 311.285 316.445 375.6 320.751 401.488C325.056 427.376 335.902 472.275 337.581 477.881C338.639 481.227 339.097 484.733 338.935 488.239L363.104 491.692C363.104 491.692 355.765 406.674 355.765 396.749C355.765 386.824 363.97 312.584 363.97 312.584L320.751 311.285Z" fill="#263238" stroke="#263238" stroke-linecap="round" stroke-linejoin="round"/>
<path d="M338.88 488.239C338.88 488.239 312.559 499.463 309.526 501.616C306.493 503.769 316.011 506.802 327.656 506.802C339.3 506.802 350.972 505.448 350.972 505.448L355.711 502.862L356.144 505.881H368.655C368.655 505.881 370.821 495.523 370.009 492.937C369.394 491.168 368.675 489.436 367.856 487.751L338.88 488.239Z" fill="#263238" stroke="#263238" stroke-linecap="round" stroke-linejoin="round"/>
<path d="M316.864 306.112C316.864 306.112 319.031 367.828 324.203 389.844C329.375 411.86 338.447 465.37 338.447 470.975C338.48 474.18 338.047 477.373 337.161 480.453L335.428 486.086C335.723 487.43 336.178 488.735 336.782 489.972C336.782 489.972 347.993 492.558 355.331 492.558C359.918 492.517 364.477 491.829 368.871 490.514C368.871 490.514 369.102 476.974 369.535 470.542C369.968 464.111 367.815 422.638 367.815 412.713C367.815 402.788 365.216 397.169 365.216 385.091C365.216 373.013 363.063 340.639 363.496 335.453C363.929 330.268 369.968 324.621 371.268 318.19C372.568 311.758 373.854 304.812 373.854 304.812L316.864 306.112Z" fill="#263238" stroke="#263238" stroke-linecap="round" stroke-linejoin="round"/>
<path d="M322.037 370.996C322.037 370.996 334.101 454.687 337.12 459.967C338.921 463.337 339.404 467.256 338.474 470.962" stroke="white" stroke-linecap="round" stroke-linejoin="round"/>
<path d="M306.506 257.341C306.506 257.341 304.895 273.846 304.895 286.466C304.895 293.507 304.827 302.714 304.76 309.375C304.74 312.117 305.676 314.779 307.405 316.907C309.134 319.034 311.55 320.493 314.238 321.033C317.072 321.657 319.961 322.006 322.863 322.076L312.721 259.277C312.721 259.277 308.131 251.519 306.506 257.341Z" fill="#263238" stroke="#263238" stroke-linecap="round" stroke-linejoin="round"/>
<path d="M354.425 144.878C356.897 146.179 359.153 147.856 361.113 149.847C362.841 152.119 364.372 154.533 365.69 157.064C365.69 157.064 384.036 178.213 384.47 180.366C384.903 182.519 374.112 250.503 374.112 250.503L386.406 314.805C386.406 314.805 366.556 325.813 351.446 326.463C340.817 326.923 324.826 323.525 316.242 321.467C314.534 321.062 312.996 320.13 311.847 318.803C310.697 317.477 309.994 315.822 309.837 314.074C308.998 305.029 307.427 286.994 306.506 269.92C305.45 250.084 308.456 210.791 310.568 196.98C312.681 183.169 319.424 164.403 324.596 156.631C329.768 148.859 344.026 140.816 354.425 144.878Z" fill="#263238" stroke="#263238" stroke-linecap="round" stroke-linejoin="round"/>
<path d="M365.69 157.064C364.385 154.568 362.872 152.185 361.168 149.942C359.208 147.95 356.951 146.274 354.479 144.973C345.867 141.574 334.602 146.503 328.062 152.731C327.196 154.654 320.372 170.225 317.136 182.952C313.683 196.492 314.116 213.607 314.116 213.607C314.116 213.607 325.557 198.93 341.088 181.666C348.842 173.037 357.313 165.079 366.408 157.876L365.69 157.064Z" fill="#263238"/>
<mask id="mask7_1618_11348" style="mask-type:luminance" maskUnits="userSpaceOnUse" x="314" y="143" width="53" height="71">
<path d="M365.69 157.064C364.385 154.568 362.872 152.185 361.168 149.942C359.208 147.95 356.951 146.274 354.479 144.973C345.867 141.574 334.602 146.503 328.062 152.731C327.196 154.654 320.372 170.225 317.136 182.952C313.683 196.492 314.116 213.607 314.116 213.607C314.116 213.607 325.557 198.93 341.088 181.666C348.842 173.037 357.313 165.079 366.408 157.876L365.69 157.064Z" fill="white"/>
</mask>
<g mask="url(#mask7_1618_11348)">
<path opacity="0.17" d="M365.69 157.064C364.385 154.568 362.872 152.185 361.168 149.942C359.208 147.95 356.951 146.274 354.479 144.973C345.867 141.574 334.602 146.503 328.062 152.731C327.196 154.654 320.372 170.225 317.136 182.952C313.683 196.492 314.116 213.607 314.116 213.607C314.116 213.607 325.557 198.93 341.088 181.666C348.842 173.037 357.313 165.079 366.408 157.876L365.69 157.064Z" fill="white"/>
</g>
<path d="M365.69 157.064C364.385 154.568 362.872 152.185 361.168 149.942C359.208 147.95 356.951 146.274 354.479 144.973C345.867 141.574 334.602 146.503 328.062 152.731C327.196 154.654 320.372 170.225 317.136 182.952C313.683 196.492 314.116 213.607 314.116 213.607C314.116 213.607 325.557 198.93 341.088 181.666C348.842 173.037 357.313 165.079 366.408 157.876L365.69 157.064Z" stroke="#263238" stroke-linecap="round" stroke-linejoin="round"/>
<path d="M326.586 162.656C326.586 162.656 320.75 180.949 318.977 186.121C317.203 191.293 317.027 199.404 317.027 199.404C317.027 199.404 338.88 166.704 344.215 161.207C349.55 155.71 356.523 147.126 356.523 147.126L351.825 145.772L326.586 162.656Z" fill="white" stroke="#263238" stroke-linecap="round" stroke-linejoin="round"/>
<path d="M328.197 156.021C328.197 156.021 325.611 163.631 325.611 164.145C325.611 164.66 324.961 171.917 324.961 171.917L334.182 159.447L328.197 156.021Z" fill="white" stroke="#263238" stroke-linecap="round" stroke-linejoin="round"/>
<path d="M351.662 140.816L326.424 161.37L330.31 172.689L356.198 146.313L351.662 140.816Z" fill="white" stroke="#263238" stroke-linecap="round" stroke-linejoin="round"/>
<path d="M348.399 303.838C348.399 303.838 344.811 312.76 343.741 315.685C342.672 318.61 343.213 330.065 343.349 331.27C343.484 332.475 345.61 332.732 345.61 332.732C345.61 332.732 346.273 341.912 347.072 342.21C347.902 342.417 348.75 342.548 349.604 342.603C349.604 342.603 351.066 347.274 352.935 346.868C353.496 346.697 353.996 346.366 354.373 345.917C354.75 345.467 354.989 344.918 355.061 344.336C355.675 344.393 356.293 344.288 356.854 344.032C357.415 343.775 357.898 343.376 358.256 342.873C359.017 341.754 359.644 340.55 360.125 339.285C360.125 339.285 363.32 337.688 363.577 336.483C363.835 335.277 364.647 331.067 364.647 331.067C364.647 331.067 365.581 330.796 365.581 328.006C365.581 325.217 363.455 308.035 363.455 308.035L348.399 303.838Z" fill="white" stroke="#263238" stroke-linecap="round" stroke-linejoin="round"/>
<path d="M345.61 332.732L346.002 324.635" stroke="#263238" stroke-linecap="round" stroke-linejoin="round"/>
<path d="M349.604 342.576L350.471 330.593" stroke="#263238" stroke-linecap="round" stroke-linejoin="round"/>
<path d="M355.061 344.309L355.683 331.337" stroke="#263238" stroke-linecap="round" stroke-linejoin="round"/>
<path d="M360.125 339.258L360.896 330.227" stroke="#263238" stroke-linecap="round" stroke-linejoin="round"/>
<path d="M374.707 174.476L384.416 180.299L381.18 247.416L363.916 310.851L347.519 306.546L352.691 256.448L350.105 205.957C350.105 205.957 353.775 194.191 362.183 187.719" fill="#263238"/>
<path d="M374.707 174.476L384.416 180.299L381.18 247.416L363.916 310.851L347.519 306.546L352.691 256.448L350.105 205.957C350.105 205.957 353.775 194.191 362.183 187.719" stroke="#263238" stroke-linecap="round" stroke-linejoin="round"/>
<path d="M354.736 185.809C354.736 185.809 350.322 197.021 350.105 205.984" stroke="white" stroke-linecap="round" stroke-linejoin="round"/>
<path d="M358.419 191.144C358.419 191.144 350.864 203.479 350.864 209.058C350.864 214.636 352.854 261.187 352.854 261.187L347.682 301.373" stroke="white" stroke-linecap="round" stroke-linejoin="round"/>
<path d="M311.53 99.695C311.53 99.695 306.344 114.427 306.831 116.539C307.319 118.651 307.806 121.874 307.806 121.874C307.806 121.874 299.682 131.907 300.684 133.044C301.686 134.181 306.181 135.468 306.181 135.468C306.181 135.468 309.905 151.012 311.367 152.46C312.83 153.909 321.888 150.687 321.888 150.687L331.596 162.981L351.5 143.89L349.076 133.856C349.076 133.856 359.597 115.401 359.434 106.655C359.272 97.9077 341.318 86.2633 328.522 86.4258C315.727 86.5883 303.758 91.2867 306.181 94.6852C307.609 96.6981 309.428 98.402 311.53 99.695Z" fill="white"/>
<mask id="mask8_1618_11348" style="mask-type:luminance" maskUnits="userSpaceOnUse" x="300" y="86" width="60" height="77">
<path d="M311.53 99.695C311.53 99.695 306.344 114.427 306.831 116.539C307.319 118.651 307.806 121.874 307.806 121.874C307.806 121.874 299.682 131.907 300.684 133.044C301.686 134.181 306.181 135.468 306.181 135.468C306.181 135.468 309.905 151.012 311.367 152.46C312.83 153.909 321.888 150.687 321.888 150.687L331.596 162.981L351.5 143.89L349.076 133.856C349.076 133.856 359.597 115.401 359.434 106.655C359.272 97.9077 341.318 86.2633 328.522 86.4258C315.727 86.5883 303.758 91.2867 306.181 94.6852C307.609 96.6981 309.428 98.402 311.53 99.695Z" fill="white"/>
</mask>
<g mask="url(#mask8_1618_11348)">
<path d="M353.152 96.5402C350.685 96.9004 348.277 97.5832 345.989 98.5712L326.911 106.303C326.911 106.303 317.826 114.02 318.787 119.924C319.749 125.827 327.873 134.005 326.058 139.909C324.244 145.812 312.884 152.176 312.884 152.176L316.445 152.311C319.153 151.675 321.942 150.687 321.942 150.687L323.431 152.569L341.819 153.232L351.554 143.89L349.13 133.856C349.13 133.856 359.651 115.401 359.488 106.655C359.38 103.432 356.889 99.8169 353.152 96.5402Z" fill="#B8B8B8"/>
</g>
<path d="M311.53 99.695C311.53 99.695 306.344 114.427 306.831 116.539C307.319 118.651 307.806 121.874 307.806 121.874C307.806 121.874 299.682 131.907 300.684 133.044C301.686 134.181 306.181 135.468 306.181 135.468C306.181 135.468 309.905 151.012 311.367 152.46C312.83 153.909 321.888 150.687 321.888 150.687L331.596 162.981L351.5 143.89L349.076 133.856C349.076 133.856 359.597 115.401 359.434 106.655C359.272 97.9077 341.318 86.2633 328.522 86.4258C315.727 86.5883 303.758 91.2867 306.181 94.6852C307.609 96.6981 309.428 98.402 311.53 99.695Z" stroke="#263238" stroke-linecap="round" stroke-linejoin="round"/>
<path d="M349.076 133.856C349.076 133.856 359.597 115.401 359.434 106.655C359.272 97.9077 341.318 86.2633 328.522 86.4258C315.727 86.5883 303.758 91.2867 306.181 94.6852C307.609 96.6981 309.428 98.402 311.53 99.695C311.53 99.695 319.464 103.419 319.464 104.393C319.464 105.368 314.766 110.541 316.391 112.815C318.015 115.09 325.774 117.825 325.774 117.825C325.774 117.825 324.42 122.198 326.424 122.686C328.428 123.173 329.335 121.224 330.621 119.978C331.907 118.732 336.457 116.891 337.107 122.402C337.489 126.354 336.453 130.314 334.182 133.572C333.546 134.046 342.442 140.044 346.368 138.257C347.384 137.797 348.575 137.187 349.767 136.551L349.076 133.856Z" fill="#263238" stroke="#263238" stroke-linecap="round" stroke-linejoin="round"/>
<path d="M310.23 125.922C310.858 125.922 311.367 123.964 311.367 121.549C311.367 119.133 310.858 117.175 310.23 117.175C309.602 117.175 309.093 119.133 309.093 121.549C309.093 123.964 309.602 125.922 310.23 125.922Z" stroke="#263238" stroke-linecap="round" stroke-linejoin="round"/>
<path d="M311.53 119.775L330.621 119.937" stroke="#263238" stroke-linecap="round" stroke-linejoin="round"/>
<path d="M308.389 114.508C308.389 114.508 310.203 111.61 312.017 115.225" stroke="#263238" stroke-linecap="round" stroke-linejoin="round"/>
<path d="M308.023 138.108C309.987 137.308 311.814 136.207 313.439 134.845" stroke="#263238" stroke-linecap="round" stroke-linejoin="round"/>
<path d="M11.3081 506.802H544.201" stroke="#263238" stroke-width="2" stroke-miterlimit="10"/>
</svg>
