<svg width="245" height="337" viewBox="0 0 245 337" fill="none" xmlns="http://www.w3.org/2000/svg">
<path d="M91.1067 84.5506V84.5506C98.2205 90.0371 108.487 84.61 107.96 75.6418L107.895 74.5329L105.35 54.4665L105.171 51.6538C104.9 47.388 108.968 44.1609 113.06 45.3954V45.3954C113.31 45.4707 113.552 45.5685 113.784 45.6876L135.146 56.6543M135.146 56.6543L133.202 56.1162C129.454 55.0788 125.524 54.8752 121.688 55.5199V55.5199M135.146 56.6543L134.623 56.0191C131.49 52.2186 128.968 47.9532 127.148 43.3765V43.3765" stroke="white" stroke-linecap="round"/>
<path d="M133.5 70.0703C133.5 69.6211 133.611 69.2266 133.834 68.8867C134.061 68.5469 134.357 68.2832 134.725 68.0957C135.096 67.9043 135.496 67.8086 135.926 67.8086C136.262 67.8086 136.604 67.877 136.951 68.0137C137.303 68.1465 137.633 68.3594 137.941 68.6523L137.268 69.9062C137.053 69.7109 136.832 69.5703 136.605 69.4844C136.383 69.3945 136.172 69.3496 135.973 69.3496C135.684 69.3496 135.439 69.4199 135.24 69.5605C135.045 69.7012 134.947 69.875 134.947 70.082C134.947 70.2461 135.004 70.3945 135.117 70.5273C135.234 70.6602 135.379 70.7969 135.551 70.9375C135.723 71.0742 135.895 71.2324 136.066 71.4121C136.238 71.5918 136.381 71.8125 136.494 72.0742C136.611 72.3359 136.67 72.6582 136.67 73.041V73.1934H135.211V73.0469C135.211 72.7852 135.168 72.5703 135.082 72.4023C135 72.2344 134.895 72.0918 134.766 71.9746C134.637 71.8535 134.5 71.7422 134.355 71.6406C134.211 71.5352 134.072 71.418 133.939 71.2891C133.811 71.1562 133.705 70.9941 133.623 70.8027C133.541 70.6074 133.5 70.3633 133.5 70.0703ZM134.918 75.0098C134.918 74.7324 135.018 74.5 135.217 74.3125C135.416 74.125 135.656 74.0312 135.938 74.0312C136.219 74.0312 136.459 74.125 136.658 74.3125C136.857 74.5 136.957 74.7324 136.957 75.0098C136.957 75.291 136.857 75.5254 136.658 75.7129C136.459 75.9004 136.219 75.9941 135.938 75.9941C135.652 75.9941 135.41 75.9004 135.211 75.7129C135.016 75.5254 134.918 75.291 134.918 75.0098ZM145.477 79.0117C144.633 79.0117 143.941 78.8516 143.402 78.5312C142.867 78.2148 142.471 77.7832 142.213 77.2363C141.959 76.6934 141.832 76.0801 141.832 75.3965C141.832 75.0098 141.871 74.5957 141.949 74.1543C142.031 73.709 142.164 73.2422 142.348 72.7539L143.678 73.2637C143.537 73.6777 143.43 74.0586 143.355 74.4062C143.285 74.7539 143.25 75.0684 143.25 75.3496C143.25 75.7324 143.316 76.084 143.449 76.4043C143.586 76.7246 143.816 76.9805 144.141 77.1719C144.465 77.3633 144.91 77.459 145.477 77.459C146.09 77.459 146.588 77.3926 146.971 77.2598C147.357 77.127 147.641 76.9766 147.82 76.8086C148 76.6406 148.09 76.5039 148.09 76.3984C148.09 76.2539 148.02 76.1504 147.879 76.0879C147.742 76.0293 147.523 76 147.223 76H146.314C146.166 76 146.07 75.9609 146.027 75.8828C145.988 75.8047 145.949 75.6992 145.91 75.5664L145.682 74.7227C145.65 74.625 145.645 74.5527 145.664 74.5059C145.684 74.4551 145.752 74.4297 145.869 74.4297H149.338V76C149.369 76.0859 149.389 76.1562 149.396 76.2109C149.404 76.2656 149.408 76.3262 149.408 76.3926C149.408 76.7324 149.322 77.0586 149.15 77.3711C148.979 77.6875 148.725 77.9688 148.389 78.2148C148.053 78.4609 147.641 78.6543 147.152 78.7949C146.664 78.9395 146.105 79.0117 145.477 79.0117ZM149.771 76H149.121V74.4238H149.76C150.139 74.4238 150.416 74.3555 150.592 74.2188C150.771 74.0781 150.861 73.8223 150.861 73.4512C150.861 73.2363 150.838 72.957 150.791 72.6133C150.748 72.2695 150.672 71.8867 150.562 71.4648L151.98 71.084C152.078 71.4668 152.15 71.8438 152.197 72.2148C152.248 72.582 152.273 72.9336 152.273 73.2695C152.273 73.8164 152.195 74.2949 152.039 74.7051C151.883 75.1113 151.623 75.4297 151.26 75.6602C150.896 75.8867 150.4 76 149.771 76ZM150.744 68.3945L151.758 69.4082L150.744 70.4219L149.73 69.4082L150.744 68.3945ZM157.846 74.7578C157.846 75.6406 157.682 76.3789 157.354 76.9727C157.029 77.5703 156.562 78.0469 155.953 78.4023C155.348 78.7617 154.625 79.0215 153.785 79.1816L153.252 77.7402C153.799 77.6348 154.283 77.4961 154.705 77.3242C155.131 77.1562 155.479 76.9531 155.748 76.7148C156.021 76.4805 156.203 76.2168 156.293 75.9238C156.184 75.9473 156.066 75.9688 155.941 75.9883C155.82 76.0039 155.711 76.0117 155.613 76.0117C154.883 76.0117 154.309 75.8516 153.891 75.5312C153.477 75.207 153.27 74.6836 153.27 73.9609C153.27 73.6484 153.316 73.3301 153.41 73.0059C153.504 72.6777 153.641 72.377 153.82 72.1035C154 71.8262 154.227 71.6035 154.5 71.4355C154.773 71.2637 155.09 71.1777 155.449 71.1777C155.875 71.1777 156.238 71.2793 156.539 71.4824C156.844 71.6855 157.092 71.9609 157.283 72.3086C157.475 72.6523 157.615 73.0371 157.705 73.4629C157.799 73.8848 157.846 74.3164 157.846 74.7578ZM155.602 74.4473C155.766 74.4473 155.92 74.4375 156.064 74.418C156.213 74.3945 156.34 74.3691 156.445 74.3418C156.43 74.1621 156.398 73.9766 156.352 73.7852C156.305 73.5938 156.242 73.418 156.164 73.2578C156.086 73.0938 155.988 72.9629 155.871 72.8652C155.754 72.7637 155.609 72.7129 155.438 72.7129C155.238 72.7129 155.08 72.7852 154.963 72.9297C154.85 73.0703 154.77 73.2344 154.723 73.4219C154.68 73.6055 154.658 73.7656 154.658 73.9023C154.658 74.125 154.744 74.2715 154.916 74.3418C155.092 74.4121 155.32 74.4473 155.602 74.4473ZM162.199 73.5449C162.199 73.4473 162.176 73.3184 162.129 73.1582C162.086 72.998 162.039 72.8633 161.988 72.7539L160.857 70.2285L162.158 69.6016L163.588 72.918C163.717 73.2188 163.832 73.4824 163.934 73.709C164.035 73.9355 164.146 74.1113 164.268 74.2363C164.389 74.3613 164.541 74.4238 164.725 74.4238H164.965V76H164.725C164.428 76 164.174 75.9629 163.963 75.8887C163.756 75.8105 163.572 75.7031 163.412 75.5664C163.256 75.4297 163.109 75.2695 162.973 75.0859C162.781 75.2812 162.561 75.4473 162.311 75.584C162.064 75.7207 161.785 75.8242 161.473 75.8945C161.16 75.9609 160.807 75.9941 160.412 75.9941C160.084 75.9941 159.801 75.9824 159.562 75.959C159.328 75.9355 159.09 75.8945 158.848 75.8359V74.2656C159.09 74.3203 159.34 74.3633 159.598 74.3945C159.855 74.4258 160.098 74.4414 160.324 74.4414C160.648 74.4414 160.953 74.4141 161.238 74.3594C161.523 74.3008 161.754 74.207 161.93 74.0781C162.109 73.9453 162.199 73.7676 162.199 73.5449ZM164.73 74.4238H165.012V76H164.73V74.4238ZM165.938 76.7324L166.951 77.7461L165.938 78.7598L164.924 77.7461L165.938 76.7324ZM165.51 76H164.859V74.4238H165.498C165.877 74.4238 166.154 74.3555 166.33 74.2188C166.51 74.0781 166.6 73.8223 166.6 73.4512C166.6 73.2363 166.576 72.957 166.529 72.6133C166.486 72.2695 166.41 71.8867 166.301 71.4648L167.719 71.084C167.816 71.4668 167.889 71.8438 167.936 72.2148C167.986 72.582 168.012 72.9336 168.012 73.2695C168.012 73.8164 167.934 74.2949 167.777 74.7051C167.621 75.1113 167.361 75.4297 166.998 75.6602C166.635 75.8867 166.139 76 165.51 76ZM176.244 76C176.057 76 175.883 75.9785 175.723 75.9355C175.562 75.8926 175.43 75.8379 175.324 75.7715C175.23 76.3535 175.037 76.877 174.744 77.3418C174.451 77.8066 174.059 78.1953 173.566 78.5078C173.078 78.8242 172.49 79.0508 171.803 79.1875L171.264 77.7461C171.842 77.6172 172.332 77.4453 172.734 77.2305C173.141 77.0195 173.449 76.7402 173.66 76.3926C173.871 76.0449 173.977 75.6113 173.977 75.0918C173.977 74.7402 173.924 74.3496 173.818 73.9199C173.717 73.4902 173.602 73.0859 173.473 72.707L174.926 72.2266L175.266 73.5332C175.336 73.8027 175.439 74.0195 175.576 74.1836C175.717 74.3438 175.918 74.4238 176.18 74.4238H176.402V76H176.244ZM176.174 74.4238H176.59V76H176.174V74.4238ZM178.77 68.957L179.736 69.918L178.77 70.8906L177.803 69.918L178.77 68.957ZM176.789 68.957L177.768 69.918L176.789 70.8906L175.834 69.918L176.789 68.957ZM178.113 71.9629L179.484 71.7988L179.602 73.416C179.613 73.6191 179.654 73.7969 179.725 73.9492C179.799 74.1016 179.906 74.2188 180.047 74.3008C180.188 74.3828 180.367 74.4238 180.586 74.4238H180.703V76H180.574C180.309 76 180.07 75.9668 179.859 75.9004C179.648 75.834 179.463 75.7422 179.303 75.625C179.143 75.5078 179.004 75.3711 178.887 75.2148C178.656 75.4648 178.375 75.6582 178.043 75.7949C177.715 75.9316 177.365 76 176.994 76H176.438V74.4238H176.994C177.436 74.4238 177.742 74.3242 177.914 74.125C178.086 73.9258 178.172 73.623 178.172 73.2168C178.172 72.998 178.166 72.7852 178.154 72.5781C178.146 72.3672 178.133 72.1621 178.113 71.9629ZM185.812 67.7031L186.727 68.6172L185.812 69.5312L184.898 68.6172L185.812 67.7031ZM186.832 69.1973L187.746 70.1113L186.832 71.0254L185.918 70.1113L186.832 69.1973ZM184.793 69.1973L185.707 70.1113L184.793 71.0254L183.879 70.1113L184.793 69.1973ZM187.682 76C187.33 76 187.029 75.9277 186.779 75.7832C186.529 75.6348 186.324 75.4473 186.164 75.2207C185.961 75.4551 185.717 75.6445 185.432 75.7891C185.146 75.9297 184.836 76 184.5 76C184.094 76 183.758 75.9316 183.492 75.7949C183.23 75.6543 183.018 75.4668 182.854 75.2324C182.643 75.4707 182.381 75.6582 182.068 75.7949C181.756 75.9316 181.365 76 180.896 76H180.486V74.4238H180.908C181.35 74.4238 181.676 74.3438 181.887 74.1836C182.098 74.0195 182.203 73.7266 182.203 73.3047C182.203 73.2422 182.199 73.1484 182.191 73.0234C182.184 72.8984 182.174 72.7578 182.162 72.6016C182.154 72.4453 182.145 72.293 182.133 72.1445L183.504 71.9746L183.627 73.4629C183.639 73.6426 183.678 73.8066 183.744 73.9551C183.814 74.0996 183.912 74.2148 184.037 74.3008C184.166 74.3828 184.324 74.4238 184.512 74.4238C184.855 74.4238 185.1 74.3281 185.244 74.1367C185.389 73.9414 185.461 73.6641 185.461 73.3047C185.461 73.2461 185.457 73.1543 185.449 73.0293C185.445 72.9004 185.438 72.7578 185.426 72.6016C185.414 72.4453 185.402 72.293 185.391 72.1445L186.762 71.9746L186.885 73.4629C186.896 73.6348 186.93 73.7949 186.984 73.9434C187.043 74.0879 187.129 74.2051 187.242 74.2949C187.355 74.3809 187.5 74.4238 187.676 74.4238C187.84 74.4238 187.971 74.377 188.068 74.2832C188.166 74.1855 188.236 74.0527 188.279 73.8848C188.322 73.7168 188.344 73.5273 188.344 73.3164C188.344 73.1758 188.336 72.9844 188.32 72.7422C188.309 72.4961 188.293 72.252 188.273 72.0098L189.645 71.8398L189.768 73.4629C189.779 73.666 189.82 73.8398 189.891 73.9844C189.965 74.125 190.07 74.2344 190.207 74.3125C190.344 74.3867 190.516 74.4238 190.723 74.4238H190.887V76H190.734C190.363 76 190.039 75.9355 189.762 75.8066C189.488 75.6738 189.277 75.4922 189.129 75.2617C188.973 75.4766 188.777 75.6543 188.543 75.7949C188.312 75.9316 188.025 76 187.682 76ZM190.658 74.4238H191.127V76H190.658V74.4238ZM192.791 76.7852L193.758 77.7461L192.791 78.7188L191.824 77.7461L192.791 76.7852ZM190.811 76.7852L191.789 77.7461L190.811 78.7188L189.855 77.7461L190.811 76.7852ZM192.662 71.9629L194.033 71.7988L194.15 73.416C194.162 73.6191 194.203 73.7969 194.273 73.9492C194.348 74.1016 194.455 74.2188 194.596 74.3008C194.736 74.3828 194.916 74.4238 195.135 74.4238H195.252V76H195.123C194.857 76 194.619 75.9668 194.408 75.9004C194.197 75.834 194.012 75.7422 193.852 75.625C193.691 75.5078 193.553 75.3711 193.436 75.2148C193.205 75.4648 192.924 75.6582 192.592 75.7949C192.264 75.9316 191.914 76 191.543 76H190.986V74.4238H191.543C191.984 74.4238 192.291 74.3242 192.463 74.125C192.635 73.9258 192.721 73.623 192.721 73.2168C192.721 72.998 192.715 72.7852 192.703 72.5781C192.695 72.3672 192.682 72.1621 192.662 71.9629ZM195.023 74.4238H195.305V76H195.023V74.4238ZM196.23 76.7324L197.244 77.7461L196.23 78.7598L195.217 77.7461L196.23 76.7324ZM195.803 76H195.152V74.4238H195.791C196.17 74.4238 196.447 74.3555 196.623 74.2188C196.803 74.0781 196.893 73.8223 196.893 73.4512C196.893 73.2363 196.869 72.957 196.822 72.6133C196.779 72.2695 196.703 71.8867 196.594 71.4648L198.012 71.084C198.109 71.4668 198.182 71.8438 198.229 72.2148C198.279 72.582 198.305 72.9336 198.305 73.2695C198.305 73.8164 198.227 74.2949 198.07 74.7051C197.914 75.1113 197.654 75.4297 197.291 75.6602C196.928 75.8867 196.432 76 195.803 76ZM205.98 78.9531C205.137 78.9531 204.445 78.793 203.906 78.4727C203.371 78.1562 202.975 77.7246 202.717 77.1777C202.463 76.6348 202.336 76.0215 202.336 75.3379C202.336 74.8809 202.385 74.4102 202.482 73.9258C202.584 73.4375 202.727 72.9551 202.91 72.4785L204.24 72.9941C204.104 73.3965 203.988 73.7949 203.895 74.1895C203.801 74.5801 203.754 74.9473 203.754 75.291C203.754 75.6738 203.82 76.0254 203.953 76.3457C204.09 76.666 204.32 76.9219 204.645 77.1133C204.969 77.3047 205.414 77.4004 205.98 77.4004C206.418 77.4004 206.803 77.3594 207.135 77.2773C207.467 77.1992 207.742 77.0957 207.961 76.9668C208.18 76.8418 208.344 76.709 208.453 76.5684C208.566 76.4277 208.623 76.2988 208.623 76.1816C208.623 76.1113 208.604 76.0527 208.564 76.0059C208.525 75.9629 208.455 75.9414 208.354 75.9414H207.404C207.186 75.9414 206.969 75.9199 206.754 75.877C206.543 75.8301 206.35 75.7422 206.174 75.6133C206.002 75.4805 205.863 75.291 205.758 75.0449C205.656 74.7988 205.605 74.4785 205.605 74.084C205.605 73.6816 205.67 73.2949 205.799 72.9238C205.932 72.5527 206.119 72.2207 206.361 71.9277C206.607 71.6348 206.902 71.4043 207.246 71.2363C207.59 71.0684 207.975 70.9844 208.4 70.9844C208.674 70.9844 208.947 71.0254 209.221 71.1074C209.494 71.1855 209.748 71.3086 209.982 71.4766L209.484 72.8535C209.285 72.748 209.096 72.6738 208.916 72.6309C208.736 72.5879 208.566 72.5664 208.406 72.5664C208.117 72.5664 207.867 72.6328 207.656 72.7656C207.449 72.8984 207.291 73.0781 207.182 73.3047C207.072 73.5312 207.018 73.7891 207.018 74.0781C207.018 74.1953 207.051 74.2734 207.117 74.3125C207.188 74.3516 207.285 74.3711 207.41 74.3711H208.295C208.725 74.3711 209.062 74.4414 209.309 74.582C209.555 74.7188 209.729 74.9102 209.83 75.1562C209.932 75.3984 209.982 75.6777 209.982 75.9941C209.982 76.5293 209.83 77.0215 209.525 77.4707C209.221 77.9199 208.77 78.2793 208.172 78.5488C207.578 78.8184 206.848 78.9531 205.98 78.9531ZM212.736 67.7559V75.9941H211.248V67.7559H212.736ZM216.223 71.1602C216.598 71.1602 216.926 71.248 217.207 71.4238C217.488 71.5957 217.727 71.834 217.922 72.1387C218.121 72.4395 218.275 72.7871 218.385 73.1816C218.498 73.5723 218.566 73.9863 218.59 74.4238H219.076V76H218.484C218.348 76.5664 218.117 77.0586 217.793 77.4766C217.469 77.8984 217.041 78.25 216.51 78.5312C215.979 78.8164 215.328 79.0332 214.559 79.1816L214.025 77.7402C214.537 77.6387 215.002 77.5059 215.42 77.3418C215.842 77.1816 216.195 76.9883 216.48 76.7617C216.766 76.5352 216.957 76.2812 217.055 76H216.434C215.652 76 215.059 75.8379 214.652 75.5137C214.246 75.1895 214.043 74.6719 214.043 73.9609C214.043 73.668 214.086 73.3594 214.172 73.0352C214.262 72.7109 214.396 72.4062 214.576 72.1211C214.756 71.8359 214.982 71.6055 215.256 71.4297C215.529 71.25 215.852 71.1602 216.223 71.1602ZM216.416 74.4238H217.219C217.203 74.2207 217.172 74.0176 217.125 73.8145C217.078 73.6113 217.014 73.4277 216.932 73.2637C216.854 73.0957 216.754 72.9629 216.633 72.8652C216.516 72.7637 216.375 72.7129 216.211 72.7129C216.016 72.7129 215.859 72.7832 215.742 72.9238C215.629 73.0605 215.549 73.2227 215.502 73.4102C215.455 73.5938 215.432 73.7578 215.432 73.9023C215.432 74.1211 215.52 74.2637 215.695 74.3301C215.871 74.3926 216.111 74.4238 216.416 74.4238ZM222.504 67.8555L223.518 68.8691L222.504 69.8828L221.49 68.8691L222.504 67.8555ZM218.865 74.4238H219.85C220.377 74.4238 220.871 74.3652 221.332 74.248C221.797 74.1309 222.268 73.9668 222.744 73.7559C223.225 73.541 223.746 73.2891 224.309 73C224.164 72.9375 224.002 72.8711 223.822 72.8008C223.646 72.7305 223.471 72.6621 223.295 72.5957C223.123 72.5254 222.971 72.4668 222.838 72.4199C222.701 72.3652 222.578 72.3203 222.469 72.2852C222.363 72.2461 222.271 72.2168 222.193 72.1973C222.119 72.1777 222.059 72.168 222.012 72.168C221.793 72.168 221.584 72.2363 221.385 72.373C221.189 72.5059 221.033 72.6484 220.916 72.8008L220.635 73.1523L219.404 72.5488L219.633 72.1797C219.902 71.7344 220.24 71.3672 220.646 71.0781C221.053 70.7891 221.51 70.6445 222.018 70.6445C222.365 70.6445 222.697 70.707 223.014 70.832C223.334 70.9531 223.656 71.0938 223.98 71.2539C224.328 71.4258 224.631 71.5684 224.889 71.6816C225.146 71.791 225.377 71.8809 225.58 71.9512C225.787 72.0176 225.988 72.0684 226.184 72.1035C226.379 72.1348 226.59 72.1562 226.816 72.168V73.6152C226.547 73.6504 226.287 73.7129 226.037 73.8027C225.787 73.8887 225.52 74.002 225.234 74.1426C224.949 74.2832 224.621 74.4531 224.25 74.6523C223.75 74.918 223.27 75.1523 222.809 75.3555C222.352 75.5586 221.883 75.7168 221.402 75.8301C220.926 75.9434 220.402 76 219.832 76H218.865V74.4238ZM234.422 79.0117C233.578 79.0117 232.887 78.8516 232.348 78.5312C231.812 78.2148 231.416 77.7832 231.158 77.2363C230.904 76.6934 230.777 76.0801 230.777 75.3965C230.777 75.0098 230.816 74.5957 230.895 74.1543C230.977 73.709 231.109 73.2422 231.293 72.7539L232.623 73.2637C232.482 73.6777 232.375 74.0586 232.301 74.4062C232.23 74.7539 232.195 75.0684 232.195 75.3496C232.195 75.7324 232.262 76.084 232.395 76.4043C232.531 76.7246 232.762 76.9805 233.086 77.1719C233.41 77.3633 233.855 77.459 234.422 77.459C235.035 77.459 235.533 77.3926 235.916 77.2598C236.303 77.127 236.586 76.9766 236.766 76.8086C236.945 76.6406 237.035 76.5039 237.035 76.3984C237.035 76.2539 236.965 76.1504 236.824 76.0879C236.688 76.0293 236.469 76 236.168 76H235.26C235.111 76 235.016 75.9609 234.973 75.8828C234.934 75.8047 234.895 75.6992 234.855 75.5664L234.627 74.7227C234.596 74.625 234.59 74.5527 234.609 74.5059C234.629 74.4551 234.697 74.4297 234.814 74.4297H238.283V76C238.314 76.0859 238.334 76.1562 238.342 76.2109C238.35 76.2656 238.354 76.3262 238.354 76.3926C238.354 76.7324 238.268 77.0586 238.096 77.3711C237.924 77.6875 237.67 77.9688 237.334 78.2148C236.998 78.4609 236.586 78.6543 236.098 78.7949C235.609 78.9395 235.051 79.0117 234.422 79.0117ZM238.061 74.4238H238.459V76H238.061V74.4238ZM242.127 72.8184C241.959 72.8184 241.807 72.875 241.67 72.9883C241.537 73.1016 241.418 73.2402 241.312 73.4043C241.211 73.5645 241.125 73.7207 241.055 73.873C241.168 73.9824 241.277 74.0781 241.383 74.1602C241.492 74.2383 241.594 74.3047 241.688 74.3594C241.832 74.4414 241.965 74.5 242.086 74.5352C242.211 74.5703 242.32 74.5879 242.414 74.5879C242.637 74.5879 242.797 74.5137 242.895 74.3652C242.996 74.2168 243.047 74.0371 243.047 73.8262C243.047 73.5488 242.965 73.3125 242.801 73.1172C242.637 72.918 242.412 72.8184 242.127 72.8184ZM242.408 76.1348C242.139 76.1348 241.883 76.0957 241.641 76.0176C241.398 75.9395 241.162 75.8301 240.932 75.6895C240.705 75.5488 240.477 75.3867 240.246 75.2031C240.102 75.3555 239.955 75.4922 239.807 75.6133C239.658 75.7305 239.486 75.8242 239.291 75.8945C239.096 75.9648 238.85 76 238.553 76H238.307V74.4238H238.523C238.73 74.4238 238.912 74.3496 239.068 74.2012C239.225 74.0527 239.375 73.8613 239.52 73.627C239.664 73.3887 239.812 73.1387 239.965 72.877C240.121 72.6113 240.295 72.3594 240.486 72.1211C240.678 71.8828 240.902 71.6895 241.16 71.541C241.418 71.3926 241.725 71.3184 242.08 71.3184C242.561 71.3184 242.977 71.4336 243.328 71.6641C243.684 71.8906 243.957 72.1914 244.148 72.5664C244.34 72.9414 244.436 73.3516 244.436 73.7969C244.436 74.25 244.359 74.6523 244.207 75.0039C244.055 75.3555 243.828 75.6328 243.527 75.8359C243.23 76.0352 242.857 76.1348 242.408 76.1348Z" fill="#FBB040"/>
<path d="M3.29631 337C3.39255 337 3.48484 336.962 3.55289 336.894C3.62094 336.826 3.65918 336.733 3.65918 336.637V0.362865C3.65918 0.266627 3.62094 0.174331 3.55289 0.10628C3.48484 0.03823 3.39255 0 3.29631 0C3.20008 0 3.10779 0.03823 3.03974 0.10628C2.97169 0.174331 2.93345 0.266627 2.93345 0.362865V336.637C2.93531 336.733 2.97412 336.824 3.04177 336.892C3.10943 336.959 3.20066 336.998 3.29631 337Z" fill="#303952"/>
<path d="M3.29609 152.911C5.39344 148.245 17.8107 120.515 21.9111 111.966C25.0247 105.756 28.9036 99.9607 33.4574 94.715L65.4404 108.504C65.4404 108.504 66.1661 109.955 66.4056 114.854C66.6378 119.579 7.95527 215.404 3.26705 222.988L3.29609 152.911Z" fill="white"/>
<path d="M3.29609 223.343C3.35858 223.343 3.41996 223.327 3.47453 223.296C3.5291 223.266 3.57506 223.222 3.60815 223.169C10.0962 212.581 67.0079 119.608 66.7467 114.818C66.4999 109.883 65.7742 108.388 65.7452 108.286C65.7055 108.211 65.6415 108.153 65.5637 108.119L33.5808 94.3304C33.5105 94.3018 33.4331 94.2955 33.3591 94.3124C33.2851 94.3293 33.2181 94.3685 33.1671 94.4247C33.0946 94.5046 25.9897 102.473 21.5555 111.762C17.397 120.471 4.40644 149.442 2.94046 152.715C2.91755 152.76 2.90515 152.81 2.90419 152.861V222.93C2.90463 223.009 2.93114 223.086 2.97964 223.149C3.02815 223.212 3.09598 223.257 3.1727 223.278L3.29609 223.343ZM65.1646 108.765C65.3242 109.186 65.8395 110.841 66.0427 114.854C66.2241 118.533 27.2452 183.203 3.62992 221.696V152.991C5.24829 149.362 18.0865 120.791 22.2159 112.125C26.2074 103.736 32.4196 96.4277 33.53 95.1505L65.1646 108.765Z" fill="#303952"/>
<path d="M3.29631 173.508L28.6969 132.729L29.2774 122.148L41.2012 118.49L42.7397 130.806L30.4313 137.156L5.61139 201.02L3.29631 187.659V173.508Z" fill="#303952"/>
<path d="M5.61142 201.383C5.68513 201.383 5.75725 201.361 5.81819 201.32C5.87912 201.278 5.92598 201.219 5.95251 201.151L30.7217 137.41L42.9067 131.125C42.9737 131.093 43.0289 131.041 43.0641 130.976C43.0994 130.91 43.1129 130.836 43.1026 130.762L41.5641 118.425C41.5576 118.372 41.5401 118.322 41.5125 118.277C41.485 118.232 41.4481 118.193 41.4044 118.163C41.3569 118.14 41.3048 118.128 41.252 118.128C41.1992 118.128 41.1471 118.14 41.0996 118.163L29.1686 121.792C29.0975 121.813 29.0348 121.856 28.9892 121.915C28.9437 121.973 28.9176 122.044 28.9146 122.119L28.3413 132.605L2.99152 173.312C2.9551 173.368 2.93501 173.433 2.93347 173.5V187.667L5.25579 201.093C5.26954 201.17 5.30813 201.241 5.36573 201.295C5.42334 201.348 5.49682 201.382 5.57512 201.39L5.61142 201.383ZM42.3479 130.595L30.2645 136.865C30.1872 136.907 30.126 136.974 30.0903 137.054L5.74931 199.706L3.6592 187.638V173.616L29.0089 132.917C29.0398 132.867 29.0573 132.81 29.0598 132.751L29.6258 122.423L40.8964 118.969L42.3479 130.595Z" fill="#303952"/>
<path d="M65.4404 108.489C65.4404 108.489 66.7903 112.118 66.4057 114.84C66.021 117.561 59.2862 128.686 56.3978 132.917C53.5094 137.148 42.1663 138.317 42.1663 138.317L38.3199 122.54L22.5425 128.309C22.5425 128.309 22.3538 114.266 22.5425 109.839C22.7312 105.412 28.6967 98.3001 31.0045 96.5656C33.3124 94.8312 34.8582 95.0271 34.8582 95.0271L65.4404 108.489Z" fill="white"/>
<path d="M42.1663 138.672H42.2026C42.6743 138.629 53.7562 137.453 56.7172 133.135C59.4532 129.115 66.3694 117.75 66.7758 114.898C67.1823 112.045 65.8542 108.526 65.7961 108.366C65.7803 108.32 65.7555 108.278 65.7231 108.242C65.6907 108.205 65.6513 108.176 65.6074 108.156L34.9961 94.6933C34.9626 94.6868 34.9281 94.6868 34.8945 94.6933C34.8219 94.6933 33.1745 94.5046 30.7796 96.2971C28.3847 98.0897 22.3684 105.361 22.1725 109.847C21.9765 114.332 22.1725 128.2 22.1725 128.338C22.1722 128.396 22.1868 128.453 22.2147 128.504C22.2426 128.555 22.283 128.598 22.3321 128.628C22.3781 128.663 22.4324 128.686 22.4897 128.693C22.5469 128.701 22.6052 128.694 22.6587 128.672L38.0514 123.04L41.8035 138.418C41.8285 138.494 41.8773 138.56 41.9427 138.606C42.0081 138.652 42.0865 138.675 42.1663 138.672ZM65.1502 108.758C65.3897 109.447 66.3694 112.51 66.0428 114.789C65.6727 117.416 58.9525 128.534 56.1003 132.714C53.6038 136.379 44.2782 137.686 42.4421 137.91L38.6683 122.445C38.6574 122.395 38.6354 122.349 38.604 122.308C38.5726 122.268 38.5326 122.236 38.4869 122.213C38.4415 122.192 38.3919 122.181 38.3417 122.181C38.2915 122.181 38.242 122.192 38.1966 122.213L22.8982 127.808C22.8982 125.239 22.7385 113.758 22.8982 109.876C23.0796 105.674 28.9072 98.6049 31.2151 96.8704C33.1673 95.419 34.5099 95.419 34.7566 95.419L65.1502 108.758Z" fill="#303952"/>
<path d="M3.29618 81.4487C5.31371 80.4109 8.37628 78.8723 9.72614 78.3716C11.867 77.5951 14.0079 79.54 14.0079 79.54L33.4575 94.715C33.4575 94.715 24.1246 113.584 17.1213 125.646C12.1356 134.224 6.27167 146.641 3.29618 153.093V81.4487Z" fill="#3C6382"/>
<path d="M3.29607 153.456C3.36609 153.456 3.43486 153.437 3.49409 153.4C3.55333 153.362 3.6005 153.309 3.6299 153.245C6.65619 146.663 12.4766 134.376 17.4188 125.827C24.3495 113.896 33.6751 95.0634 33.7695 94.8747C33.8083 94.8009 33.8194 94.7157 33.8007 94.6345C33.7821 94.5533 33.735 94.4814 33.6679 94.432L14.2183 79.257C14.1457 79.1844 11.9105 77.1886 9.58814 78.0305C8.23102 78.524 5.32086 79.99 3.11464 81.1221C3.05595 81.1543 3.00688 81.2015 2.97245 81.2589C2.93802 81.3163 2.91945 81.3818 2.91868 81.4487V153.093C2.91866 153.176 2.94755 153.257 3.00045 153.322C3.05334 153.387 3.12703 153.432 3.20899 153.448L3.29607 153.456ZM33.0002 94.8166C31.839 97.1535 23.2754 114.324 16.8019 125.464C12.1935 133.404 6.83763 144.609 3.65894 151.445V81.6664C5.48052 80.7302 8.50681 79.2062 9.84941 78.7127C11.7508 77.9869 13.7466 79.794 13.7611 79.8085L33.0002 94.8166Z" fill="#303952"/>
<path d="M3.29618 118.265L14.1821 117.292L10.118 108.562C10.118 108.562 17.31 100.194 21.9837 97.8647C25.3947 96.152 29.241 93.9312 31.0336 92.8571L33.4575 94.7513C33.4575 94.7513 24.1246 113.62 17.1213 125.682C12.1356 134.26 6.27167 146.677 3.29618 153.129V118.265Z" fill="#3C6382"/>
<path d="M3.29607 153.456C3.36609 153.456 3.43486 153.437 3.49409 153.4C3.55333 153.362 3.6005 153.309 3.6299 153.245C6.65619 146.663 12.4766 134.376 17.4188 125.827C24.3495 113.896 33.6751 95.0634 33.7695 94.8747C33.8083 94.8009 33.8194 94.7157 33.8007 94.6345C33.7821 94.5533 33.735 94.4814 33.6679 94.432L31.2439 92.5378C31.1828 92.4966 31.1108 92.4746 31.0371 92.4746C30.9634 92.4746 30.8914 92.4966 30.8303 92.5378C28.8998 93.6845 25.1623 95.8544 21.8022 97.5309C17.1285 99.875 10.1179 107.974 9.82764 108.315C9.78183 108.368 9.75203 108.433 9.74175 108.503C9.73147 108.572 9.74112 108.643 9.76957 108.707L13.6377 116.995L3.25977 117.917C3.2083 117.923 3.15869 117.94 3.11384 117.967C3.06899 117.993 3.0298 118.028 2.99852 118.069C2.94958 118.134 2.92171 118.213 2.91868 118.294V153.129C2.91866 153.213 2.94755 153.294 3.00045 153.359C3.05334 153.423 3.12703 153.468 3.20899 153.485L3.29607 153.456ZM33.0002 94.8166C31.839 97.1535 23.2754 114.324 16.8019 125.464C12.1935 133.404 6.83763 144.609 3.65894 151.445V118.584L14.2328 117.641C14.291 117.636 14.3471 117.617 14.3964 117.585C14.4457 117.554 14.4867 117.511 14.5159 117.461C14.5451 117.41 14.5617 117.353 14.5642 117.295C14.5667 117.237 14.5551 117.178 14.5304 117.126L10.5461 108.562C11.6129 107.35 17.9631 100.216 22.1578 98.1332C25.4163 96.5003 29.0304 94.4175 31.0189 93.2418L33.0002 94.8166Z" fill="#303952"/>
<path d="M67.748 103.678C67.748 103.678 64.1194 115.224 60.2512 117.721C56.3831 120.217 44.8585 124.252 41.7814 123.686C39.9473 123.349 38.2277 122.555 36.7811 121.378C36.7811 121.378 31.7736 105.601 31.9695 103.293C32.1655 100.985 35.4748 90.7017 35.4748 90.7017C35.4748 90.7017 42.5507 105.601 45.0472 106.951C47.5437 108.301 67.748 103.678 67.748 103.678Z" fill="white"/>
<path d="M42.4927 124.107C46.5641 124.107 56.942 120.304 60.4473 118.025C64.359 115.485 67.9441 104.237 68.0965 103.787C68.1165 103.726 68.1197 103.66 68.1056 103.598C68.0916 103.535 68.0608 103.478 68.0167 103.431C67.9734 103.384 67.9184 103.349 67.8572 103.33C67.796 103.311 67.7308 103.308 67.6683 103.322C59.6055 105.173 46.9633 107.568 45.2215 106.632C43.2548 105.572 37.7537 94.6642 35.787 90.5493C35.7556 90.4848 35.7057 90.4311 35.6437 90.3949C35.5817 90.3587 35.5103 90.3418 35.4387 90.3461C35.3664 90.349 35.2969 90.3744 35.2396 90.4186C35.1824 90.4628 35.1404 90.5237 35.1194 90.5929C34.9815 91.0138 31.7882 100.942 31.5923 103.264C31.3963 105.586 36.2152 120.841 36.4184 121.487C36.439 121.548 36.4738 121.603 36.52 121.647C38.0171 122.87 39.7998 123.694 41.7017 124.042C41.9626 124.089 42.2276 124.111 42.4927 124.107ZM67.2039 104.208C66.3911 106.602 63.2486 115.377 60.0482 117.452C56.122 120.014 44.7643 123.911 41.8469 123.367C40.1112 123.031 38.4812 122.285 37.0933 121.19C35.6854 116.748 32.1801 105.166 32.3325 103.344C32.4849 101.522 34.742 94.2361 35.5403 91.7323C37.1659 95.0852 42.6089 106.087 44.8804 107.314C47.1519 108.54 63.3648 105.035 67.2039 104.208Z" fill="#303952"/>
<path d="M67.748 103.678C67.748 103.678 64.1194 115.224 60.2512 117.721C58.4153 118.81 56.4871 119.735 54.4889 120.486L45.0545 106.951C47.551 108.293 67.748 103.678 67.748 103.678Z" fill="#303952"/>
<path d="M54.4894 120.849H54.62C56.6358 120.092 58.579 119.154 60.4258 118.047C64.3375 115.507 67.9226 104.258 68.075 103.808C68.095 103.747 68.0982 103.682 68.0841 103.62C68.0701 103.557 68.0394 103.499 67.9952 103.453C67.9519 103.406 67.8969 103.371 67.8357 103.351C67.7745 103.332 67.7093 103.33 67.6468 103.344C59.584 105.195 46.949 107.589 45.2 106.653C45.1283 106.614 45.0451 106.6 44.9644 106.614C44.8838 106.629 44.8106 106.671 44.7573 106.733C44.706 106.795 44.678 106.874 44.678 106.954C44.678 107.035 44.706 107.113 44.7573 107.176L54.1918 120.718C54.2286 120.76 54.2743 120.794 54.3258 120.817C54.3773 120.84 54.4332 120.85 54.4894 120.849ZM67.2042 104.157C66.3913 106.552 63.2489 115.326 60.0484 117.401C58.3216 118.438 56.5048 119.318 54.62 120.028L45.9112 107.495C50.1568 107.916 63.7279 104.933 67.2042 104.208V104.157Z" fill="#303952"/>
<path d="M77.582 57.3254C78.2252 57.1745 78.9004 57.2442 79.4993 57.5232C80.0981 57.8023 80.5858 58.2744 80.8841 58.864C81.6957 60.3869 82.4037 61.9629 83.0032 63.5812L81.1163 62.7539C81.1163 62.7539 84.07 65.8165 84.4256 68.4146C84.7812 71.0127 83.3588 78.0886 82.4153 79.3804C81.4719 80.6722 68.8514 104.861 67.5596 105.449C66.2678 106.036 51.6371 113.236 49.6269 112.996C47.6166 112.757 41.847 111.82 40.548 109.578C39.2489 107.335 34.8873 96.2463 35.4679 90.709C36.0484 85.1717 43.1316 56.861 45.258 54.6257C47.3844 52.3905 49.8591 52.2598 51.8621 50.3729C53.0514 49.2624 53.8075 47.7655 53.9957 46.1492C54.595 46.7337 55.2249 47.286 55.8826 47.8038C56.5407 48.2971 57.0667 48.9453 57.4139 49.6907C57.4139 49.6907 60.5999 47.0926 61.6595 46.8604C62.719 46.6282 65.905 45.2057 66.1445 46.5048C66.384 47.8038 64.1342 50.5036 64.1342 50.5036C64.1342 50.5036 72.2769 49.6762 75.579 50.7358C78.881 51.7954 80.7679 53.9218 80.5284 54.633C80.2889 55.3442 75.4483 56.0844 75.4483 56.0844L77.582 57.3254Z" fill="white"/>
<path d="M49.714 113.366C51.6081 113.366 59.6275 109.643 66.4711 106.37L67.7048 105.775C68.5322 105.405 72.0592 99.0549 78.7867 86.6885C80.7317 83.1034 82.4154 80.0045 82.7129 79.5981C83.6999 78.2337 85.1514 71.0635 84.7813 68.3638C84.5563 66.6946 83.3298 64.8803 82.4299 63.7191L82.8581 63.9078C82.9234 63.9388 82.9965 63.9491 83.0678 63.9374C83.1392 63.9258 83.2052 63.8926 83.2572 63.8425C83.3073 63.7936 83.3421 63.7313 83.3576 63.663C83.373 63.5948 83.3684 63.5235 83.3443 63.4579C82.7413 61.8188 82.026 60.2232 81.2034 58.6825C80.875 58.05 80.3524 57.5394 79.7123 57.2259C79.0722 56.9124 78.3484 56.8125 77.6473 56.9408L76.4934 56.2151C78.5472 55.8667 80.6591 55.366 80.8478 54.7056C80.9177 54.4108 80.8682 54.1003 80.7099 53.8419C80.1656 52.7678 78.3585 51.222 75.6298 50.3584C72.9011 49.4948 67.0517 49.8504 64.8745 50.0318C65.5567 49.0957 66.6307 47.4265 66.4421 46.4032C66.419 46.2682 66.3668 46.1398 66.2891 46.027C66.2114 45.9142 66.11 45.8197 65.9921 45.75C65.2664 45.3291 63.9601 45.6992 62.436 46.1927C62.0659 46.3161 61.7466 46.4177 61.5216 46.4685C60.5927 46.679 58.372 48.3844 57.4793 49.0884C57.0964 48.4705 56.6046 47.9271 56.0278 47.4845C54.8812 46.5629 54.1772 45.8662 54.17 45.8589C54.1203 45.8101 54.0576 45.7766 53.9894 45.7624C53.9212 45.7483 53.8504 45.7541 53.7853 45.7791C53.7194 45.8034 53.6622 45.8467 53.6208 45.9035C53.5795 45.9604 53.5559 46.0282 53.5531 46.0984C53.3695 47.6248 52.6584 49.0392 51.5428 50.0972C50.6792 50.8544 49.699 51.467 48.6399 51.9115C47.2616 52.4753 46.0086 53.3065 44.9532 54.3572C42.7034 56.7303 35.6276 85.3531 35.0615 90.6437C34.4519 96.4495 39.0312 107.742 40.1852 109.738C41.6366 112.285 48.2335 113.185 49.5326 113.366H49.714ZM81.1236 62.391C81.0646 62.3918 81.0065 62.406 80.9538 62.4324C80.901 62.4588 80.8548 62.4967 80.8188 62.5434C80.7732 62.6142 80.752 62.6979 80.7586 62.7818C80.7651 62.8657 80.799 62.9451 80.8551 63.0079C80.8551 63.0079 83.758 66.0197 84.0628 68.4654C84.3676 70.9111 83.0105 77.9507 82.1251 79.1699C81.7985 79.6199 80.2672 82.443 78.1481 86.3474C74.4686 93.1475 68.2999 104.527 67.3928 105.129L66.1518 105.71C56.2891 110.434 50.73 112.757 49.6704 112.633C46.2377 112.234 41.8761 111.138 40.8601 109.397C39.4086 106.929 35.2647 96.0867 35.838 90.7453C36.4404 85.0846 43.5235 56.9843 45.5265 54.8652C46.5289 53.8867 47.7088 53.1084 49.0028 52.5719C50.1378 52.0973 51.1891 51.443 52.1162 50.6342C53.1931 49.6213 53.9371 48.3054 54.2498 46.8604C54.5764 47.158 55.0554 47.5861 55.6505 48.0579C56.2698 48.5076 56.7684 49.1034 57.1019 49.7924C57.1235 49.8452 57.157 49.8924 57.1998 49.9301C57.2426 49.9679 57.2935 49.9953 57.3487 50.0101C57.4032 50.0254 57.4607 50.0275 57.5163 50.0162C57.5718 50.0048 57.6238 49.9803 57.668 49.9448C58.9235 48.9215 61.0499 47.3466 61.7684 47.187C62.0079 47.1289 62.3562 47.0201 62.7481 46.8894C63.677 46.5919 65.2228 46.0911 65.7091 46.3814C65.7373 46.3983 65.7612 46.4215 65.7789 46.4492C65.7965 46.4769 65.8074 46.5084 65.8107 46.5411C65.9631 47.3684 64.7076 49.2553 63.8875 50.2568C63.8418 50.3117 63.8132 50.3788 63.8055 50.4498C63.7977 50.5208 63.8111 50.5925 63.844 50.656C63.8772 50.7197 63.929 50.7718 63.9925 50.8055C64.056 50.8392 64.1282 50.8528 64.1996 50.8447C64.2794 50.8447 72.306 50.0391 75.4919 51.0696C78.7867 52.1292 80.3108 54.125 80.2164 54.5023C79.9624 54.8072 77.5312 55.366 75.4339 55.6708C75.3596 55.6825 75.2906 55.7165 75.2362 55.7684C75.1817 55.8202 75.1443 55.8874 75.129 55.9611C75.1152 56.0335 75.1238 56.1084 75.1537 56.1758C75.1835 56.2432 75.2331 56.2999 75.296 56.3384L77.4224 57.6375C77.5078 57.6872 77.6089 57.7028 77.7054 57.681C78.2715 57.5435 78.8675 57.603 79.3952 57.8497C79.923 58.0964 80.3508 58.5156 80.6083 59.0382C81.2824 60.2882 81.881 61.5774 82.4009 62.899L81.305 62.4201C81.2488 62.3924 81.1856 62.3823 81.1236 62.391Z" fill="#303952"/>
<path d="M38.5449 78.9086C38.3406 78.9048 38.1388 78.8629 37.9498 78.7853C40.3737 68.6831 43.879 56.0772 45.2651 54.6184C47.3915 52.3759 49.8663 52.2526 51.8693 50.3657C53.0544 49.2558 53.8078 47.7619 53.9957 46.1492C54.5949 46.7337 55.2248 47.286 55.8826 47.8038C56.5406 48.2971 57.0666 48.9453 57.4139 49.6907C57.4139 49.6907 60.5998 47.0926 61.6594 46.8604C62.7189 46.6282 65.9049 45.2057 66.1444 46.5048C66.3839 47.8038 64.1341 50.5036 64.1341 50.5036C64.1341 50.5036 72.2768 49.6762 75.5789 50.7358C78.881 51.7954 80.7678 53.9218 80.5284 54.633C80.2889 55.3442 75.4482 56.0844 75.4482 56.0844L77.5746 57.3762C78.2178 57.2253 78.8931 57.295 79.4919 57.574C80.0908 57.8531 80.5785 58.3252 80.8767 58.9148C81.6883 60.4377 82.3963 62.0137 82.9959 63.632L81.1089 62.8047C81.1089 62.8047 84.0627 65.8673 84.4183 68.4654C84.7739 71.0635 83.3514 78.1394 82.408 79.4312C81.9871 80.019 79.2075 85.237 76.1522 90.8251L76.0433 90.8759C75.8233 90.8184 75.6173 90.717 75.4375 90.5777C75.2578 90.4384 75.1082 90.2641 74.9976 90.0654C74.8871 89.8667 74.8179 89.6477 74.7943 89.4215C74.7708 89.1954 74.7932 88.9668 74.8604 88.7495C75.3321 87.1021 76.3917 84.7435 76.1595 83.8001C75.9272 82.8566 72.7413 78.4877 73.917 76.3686C75.0926 74.2494 78.9971 71.6513 78.2713 67.1663C77.5456 62.6813 62.4722 61.9774 61.057 61.2734C59.6418 60.5694 55.0407 57.144 53.2699 56.1933C51.4991 55.2426 47.7254 56.919 46.3102 60.1993C44.895 63.4796 44.7789 68.4581 44.3072 69.9894C43.8354 71.5207 41.0051 73.4149 41.0051 73.4149C41.0051 73.4149 39.7206 78.9086 38.5449 78.9086Z" fill="#303952"/>
<path d="M76.0507 91.188C76.1035 91.1863 76.1553 91.1739 76.2031 91.1517L76.312 91.1009C76.3838 91.0678 76.4426 91.0116 76.4789 90.9413C77.2772 89.4898 78.0537 88.0383 78.7795 86.7102C80.7244 83.0816 82.4081 80.0045 82.7129 79.5981C83.6999 78.2337 85.1514 71.0635 84.7813 68.3638C84.5563 66.6946 83.3298 64.8803 82.4299 63.7191L82.8581 63.9078C82.9234 63.9388 82.9965 63.9491 83.0678 63.9374C83.1392 63.9258 83.2052 63.8926 83.2572 63.8425C83.3073 63.7936 83.3421 63.7313 83.3576 63.663C83.373 63.5948 83.3684 63.5235 83.3443 63.4579C82.7413 61.8188 82.026 60.2232 81.2034 58.6825C80.875 58.05 80.3524 57.5394 79.7123 57.2259C79.0722 56.9124 78.3484 56.8125 77.6473 56.9408L76.4934 56.2151C78.5472 55.8667 80.6591 55.366 80.8478 54.7056C80.9177 54.4108 80.8682 54.1003 80.7099 53.8419C80.1656 52.7678 78.3585 51.222 75.6298 50.3584C72.9011 49.4948 67.0517 49.8504 64.8745 50.0318C65.5567 49.0957 66.6307 47.4265 66.4421 46.4032C66.419 46.2682 66.3668 46.1398 66.2891 46.027C66.2114 45.9142 66.11 45.8197 65.9921 45.75C65.2664 45.3291 63.9601 45.6992 62.436 46.1927C62.0659 46.3161 61.7466 46.4177 61.5216 46.4685C60.5927 46.679 58.372 48.3844 57.4793 49.0884C57.0964 48.4705 56.6046 47.9271 56.0278 47.4845C54.8812 46.5629 54.1772 45.8662 54.17 45.8589C54.1203 45.8101 54.0576 45.7766 53.9894 45.7624C53.9212 45.7483 53.8504 45.7541 53.7853 45.7791C53.7194 45.8034 53.6622 45.8467 53.6208 45.9035C53.5795 45.9604 53.5559 46.0282 53.5531 46.0984C53.3695 47.6248 52.6584 49.0392 51.5428 50.0972C50.6792 50.8544 49.699 51.467 48.6399 51.9115C47.2616 52.4753 46.0086 53.3066 44.9532 54.3572C43.2913 56.1062 39.3796 71.049 37.5435 78.6909C37.5218 78.7775 37.5327 78.869 37.5742 78.948C37.6157 79.027 37.6849 79.0879 37.7685 79.1191C37.9993 79.212 38.2454 79.2612 38.4942 79.2643C39.7788 79.2643 40.8528 75.3961 41.2883 73.5818C41.8543 73.1899 44.1912 71.5135 44.6194 70.0475C44.8254 69.1704 44.9733 68.2806 45.0621 67.3841C45.3306 65.2867 45.7007 62.4128 46.6079 60.2937C46.9904 59.4253 47.5434 58.6426 48.234 57.9919C48.9246 57.3411 49.7389 56.8356 50.6284 56.5054C51.0116 56.3364 51.4246 56.2455 51.8433 56.238C52.2619 56.2305 52.6779 56.3066 53.0669 56.4618C53.9377 56.9263 55.5343 58.0221 57.0801 59.0817C58.6259 60.1413 60.1282 61.1718 60.8539 61.5347C61.9495 61.8592 63.0754 62.0708 64.2141 62.1661C68.8225 62.841 77.3933 64.082 77.8796 67.1663C78.3658 70.2507 76.5079 72.4569 74.9766 74.2132C74.4357 74.8091 73.9499 75.4528 73.5252 76.1364C72.5527 77.8854 74.1058 80.7302 75.129 82.6099C75.3625 82.9993 75.564 83.4071 75.7314 83.8291C75.8766 84.3807 75.3976 85.7523 75.0057 86.957C74.8097 87.5158 74.6138 88.0891 74.4687 88.5971C74.3408 88.9508 74.3216 89.3345 74.4134 89.6992C74.5052 90.0638 74.7039 90.3927 74.9839 90.6437C75.248 90.8811 75.5597 91.0593 75.8983 91.1662L76.0507 91.188ZM81.1308 62.391C81.0718 62.3918 81.0138 62.406 80.961 62.4324C80.9082 62.4588 80.8621 62.4967 80.826 62.5434C80.7804 62.6142 80.7593 62.6979 80.7659 62.7818C80.7724 62.8657 80.8063 62.9451 80.8623 63.0079C80.8623 63.0079 83.7652 66.0197 84.07 68.4654C84.3749 70.9111 83.0177 77.9507 82.1324 79.1699C81.8058 79.6199 80.2672 82.4502 78.1481 86.3619C77.4586 87.6392 76.6966 89.0036 75.9709 90.397C75.6643 90.2797 75.4162 90.0464 75.2804 89.7476C75.1446 89.4487 75.1319 89.1084 75.2452 88.8004C75.3831 88.3141 75.579 87.7626 75.775 87.2038C76.2685 85.7523 76.7402 84.4242 76.5442 83.6622C76.3719 83.1753 76.1481 82.7082 75.8765 82.2688C74.9839 80.6359 73.4889 77.9144 74.2727 76.4629C74.6727 75.8215 75.1319 75.2189 75.6443 74.6631C77.2337 72.7907 79.2149 70.4611 78.6779 67.0284C78.1045 63.3998 69.5264 62.1733 64.3955 61.4331C63.3384 61.3186 62.2907 61.1294 61.2604 60.867C60.5782 60.5259 59.0832 59.4809 57.5736 58.4648C56.0641 57.4488 54.395 56.2876 53.4878 55.8014C53.0113 55.5949 52.4976 55.4883 51.9783 55.4883C51.459 55.4883 50.9452 55.5949 50.4688 55.8014C49.4846 56.166 48.5838 56.7245 47.8196 57.4438C47.0554 58.1631 46.4434 59.0286 46.02 59.9889C45.0766 62.1661 44.6992 65.127 44.4234 67.2462C44.3357 68.1007 44.1951 68.949 44.0025 69.7862C43.6469 70.9401 41.6076 72.5005 40.8456 73.0085C40.771 73.0611 40.7171 73.1381 40.6932 73.2262C40.0473 75.984 39.0385 78.4877 38.574 78.4877C38.5186 78.4946 38.4626 78.4946 38.4071 78.4877C40.9544 67.9429 44.3 56.1498 45.5555 54.8217C46.558 53.8432 47.7378 53.0648 49.0318 52.5284C50.1669 52.0538 51.2181 51.3995 52.1452 50.5907C53.2221 49.5778 53.9661 48.2618 54.2788 46.8169C54.6054 47.1144 55.0844 47.5426 55.6795 48.0143C56.2988 48.4641 56.7974 49.0599 57.1309 49.7488C57.1525 49.8017 57.186 49.8488 57.2288 49.8866C57.2716 49.9244 57.3226 49.9517 57.3777 49.9665C57.4323 49.9819 57.4897 49.984 57.5453 49.9726C57.6008 49.9613 57.6529 49.9368 57.697 49.9012C58.9525 48.8779 61.0789 47.3031 61.7974 47.1434C62.0369 47.0854 62.3852 46.9765 62.7771 46.8459C63.7061 46.5483 65.2519 46.0476 65.7381 46.3379C65.7663 46.3547 65.7902 46.3779 65.8079 46.4057C65.8255 46.4334 65.8364 46.4648 65.8397 46.4975C65.9921 47.3249 64.7366 49.2118 63.9165 50.2133C63.8708 50.2681 63.8423 50.3353 63.8345 50.4063C63.8268 50.4773 63.8402 50.549 63.873 50.6124C63.9063 50.6761 63.958 50.7283 64.0215 50.7619C64.085 50.7956 64.1572 50.8093 64.2286 50.8011C64.3084 50.8011 72.335 50.0028 75.5209 51.0261C78.8158 52.0857 80.3398 54.0814 80.2455 54.4588C79.9915 54.7636 77.5603 55.3224 75.4629 55.6272C75.3886 55.6389 75.3197 55.673 75.2652 55.7248C75.2108 55.7767 75.1734 55.8439 75.1581 55.9175C75.1443 55.9899 75.1529 56.0648 75.1827 56.1322C75.2125 56.1997 75.2621 56.2564 75.325 56.2949L77.4514 57.594C77.5369 57.6437 77.638 57.6592 77.7344 57.6375C78.3005 57.5013 78.896 57.5614 79.4234 57.808C79.9508 58.0546 80.3789 58.4729 80.6374 58.9946C81.3114 60.2446 81.91 61.5339 82.4299 62.8555L81.3341 62.3765C81.2643 62.3568 81.1899 62.3619 81.1236 62.391H81.1308Z" fill="white"/>
<path d="M77.6978 87.9948C77.6978 87.9948 80.9998 87.523 80.8837 91.2968C80.7676 95.0706 71.8048 98.6049 71.8048 98.6049L77.6978 87.9948Z" fill="#303952"/>
<path d="M71.8054 98.9678C71.8487 98.9747 71.8928 98.9747 71.936 98.9678C72.3134 98.8154 81.1238 95.2956 81.2471 91.3259C81.3007 90.7971 81.2375 90.2631 81.0619 89.7615C80.8863 89.2598 80.6027 88.8029 80.2311 88.423C79.87 88.1368 79.4557 87.9253 79.0122 87.8007C78.5686 87.6761 78.1048 87.641 77.6475 87.6972C77.5922 87.7061 77.5396 87.727 77.4932 87.7583C77.4468 87.7896 77.4079 87.8307 77.379 87.8787L71.4861 98.4017C71.45 98.4668 71.4349 98.5414 71.4427 98.6154C71.4505 98.6894 71.4808 98.7592 71.5296 98.8154C71.5619 98.8592 71.6032 98.8955 71.6508 98.9218C71.6984 98.9481 71.7512 98.9638 71.8054 98.9678ZM78.0394 88.3359C78.6612 88.3193 79.2686 88.5252 79.7521 88.9164C80.0477 89.2291 80.27 89.6036 80.4031 90.0128C80.5361 90.422 80.5765 90.8556 80.5214 91.2823C80.4343 94.0691 74.9115 96.8342 72.6327 97.8574L77.9233 88.3431L78.0394 88.3359Z" fill="#303952"/>
<path d="M39.249 72.544C39.249 72.544 35.7147 69.9458 34.5318 73.9591C33.3488 77.9724 36.4187 85.7523 36.4187 85.7523L39.249 72.544Z" fill="white"/>
<path d="M36.4475 86.1151C36.5257 86.1076 36.5995 86.0755 36.6582 86.0233C36.7169 85.9711 36.7575 85.9016 36.7741 85.8248L39.6045 72.6165C39.6188 72.5481 39.6134 72.477 39.589 72.4115C39.5646 72.346 39.5222 72.2888 39.4666 72.2464C39.394 72.1956 37.674 70.9546 36.0992 71.5207C35.6087 71.7273 35.177 72.0521 34.8427 72.4662C34.5083 72.8803 34.2818 73.3708 34.1833 73.8938C32.9858 77.9724 35.954 85.5998 36.0847 85.9192C36.1181 85.9848 36.1707 86.0387 36.2356 86.0737C36.3004 86.1087 36.3743 86.1232 36.4475 86.1151ZM38.8424 72.7109L36.3314 84.4314C35.5404 82.1236 34.0163 76.9927 34.88 74.0607C34.9511 73.6522 35.1204 73.2671 35.3732 72.9385C35.626 72.6098 35.9548 72.3474 36.3314 72.1738C36.7645 72.0886 37.2104 72.0923 37.6421 72.1846C38.0737 72.2769 38.4821 72.456 38.8424 72.7109Z" fill="#303952"/>
<path d="M52.7694 95.4988C53.4324 95.5105 54.0772 95.281 54.5837 94.8529C54.6557 94.7887 54.6998 94.6989 54.7066 94.6027C54.7134 94.5064 54.6823 94.4113 54.62 94.3377C54.5894 94.3014 54.5518 94.2716 54.5095 94.2501C54.4672 94.2286 54.421 94.2158 54.3736 94.2124C54.3263 94.209 54.2788 94.2151 54.2338 94.2304C54.1889 94.2457 54.1475 94.2698 54.112 94.3014C53.8067 94.5359 53.4477 94.6906 53.0675 94.7514C52.6874 94.8122 52.298 94.7773 51.9348 94.6497C51.4588 94.5258 51.0164 94.2974 50.6398 93.981C50.2632 93.6647 49.9618 93.2684 49.7576 92.8209C49.4455 91.8194 51.0857 88.7858 52.1888 87.1094C52.2417 87.0285 52.2604 86.93 52.2407 86.8354C52.2209 86.7408 52.1644 86.6579 52.0836 86.605C52.0027 86.5521 51.9042 86.5334 51.8096 86.5532C51.715 86.5729 51.6321 86.6294 51.5792 86.7102C51.2671 87.182 48.5529 91.3839 49.0609 93.0313C49.2989 93.5986 49.6653 94.1029 50.1313 94.5047C50.5972 94.9064 51.15 95.1945 51.7461 95.3464C52.0786 95.4439 52.4229 95.4951 52.7694 95.4988Z" fill="#303952"/>
<path d="M54.7069 101.305C56.5794 101.282 58.44 101.004 60.237 100.477C60.282 100.463 60.3237 100.44 60.3598 100.41C60.3959 100.38 60.4256 100.343 60.4472 100.301C60.4688 100.259 60.4819 100.213 60.4857 100.166C60.4894 100.119 60.4839 100.072 60.4692 100.027C60.456 99.9817 60.4337 99.9392 60.4038 99.9023C60.3738 99.8655 60.3368 99.835 60.2948 99.8126C60.2529 99.7903 60.2069 99.7766 60.1595 99.7724C60.1122 99.7681 60.0645 99.7734 60.0193 99.7879C59.9612 99.7879 54.0973 101.602 50.3816 99.6935C46.6659 97.7849 44.3943 96.2318 43.7266 93.8877C43.7007 93.7915 43.6375 93.7095 43.5511 93.6598C43.4647 93.6101 43.362 93.5968 43.2658 93.6228C43.1696 93.6488 43.0876 93.7119 43.0379 93.7984C42.9882 93.8848 42.9749 93.9874 43.0009 94.0836C43.7266 96.6672 46.0345 98.2711 50.026 100.325C51.4876 101.015 53.0913 101.35 54.7069 101.305Z" fill="#303952"/>
<path d="M70.3895 84.3516C70.5056 84.3521 70.62 84.3247 70.7233 84.2718C70.8936 84.1822 71.0214 84.0287 71.0786 83.845C71.1357 83.6613 71.1176 83.4624 71.0281 83.292C70.9338 83.1179 68.6913 78.9812 62.7911 77.3846C62.6078 77.3419 62.4152 77.3721 62.2537 77.4687C62.0923 77.5653 61.9747 77.7209 61.9257 77.9026C61.8768 78.0843 61.9003 78.2779 61.9913 78.4426C62.0824 78.6072 62.2338 78.7301 62.4137 78.7853C67.7116 80.2367 69.7218 83.9307 69.7436 83.967C69.8059 84.0839 69.899 84.1816 70.0129 84.2494C70.1267 84.3172 70.257 84.3526 70.3895 84.3516Z" fill="#303952"/>
<path d="M55.5272 75.5122C55.6386 75.5111 55.7483 75.4843 55.8477 75.434C55.9471 75.3836 56.0336 75.3111 56.1005 75.2219C56.2175 75.0697 56.2695 74.8774 56.245 74.6869C56.2206 74.4965 56.1216 74.3235 55.9699 74.2059C55.7449 74.039 50.5051 70.0765 46.0419 72.0287C45.9542 72.0664 45.8748 72.1209 45.8082 72.1892C45.7416 72.2576 45.6891 72.3384 45.6537 72.427C45.6183 72.5156 45.6008 72.6103 45.602 72.7057C45.6032 72.8011 45.6232 72.8954 45.6609 72.983C45.6985 73.0707 45.7531 73.1501 45.8214 73.2167C45.8897 73.2833 45.9705 73.3358 46.0591 73.3712C46.1478 73.4066 46.2425 73.4242 46.3379 73.4229C46.4333 73.4217 46.5275 73.4017 46.6152 73.3641C50.2947 71.782 55.0409 75.3598 55.0845 75.3961C55.2157 75.4815 55.371 75.5223 55.5272 75.5122Z" fill="#303952"/>
<path d="M63.0311 85.7595C62.494 86.6522 62.5811 87.69 63.2198 88.0746C63.8584 88.4592 64.8163 88.0746 65.3534 87.1602C65.8904 86.2457 65.8106 85.2297 65.172 84.8451C64.5333 84.4605 63.5681 84.8669 63.0311 85.7595Z" fill="#303952"/>
<path d="M47.4426 79.7795C47.0217 80.7302 47.2394 81.7535 47.9216 82.0511C48.6038 82.3486 49.5037 81.8261 49.9246 80.8754C50.3456 79.9247 50.1351 78.9014 49.4457 78.5966C48.7562 78.2918 47.8636 78.807 47.4426 79.7795Z" fill="#303952"/>
<path d="M3.29642 218.815L21.251 269.768L3.29642 315.954V218.815Z" fill="#303952"/>
<path d="M3.29605 316.317C3.36953 316.316 3.44121 316.294 3.50195 316.253C3.5627 316.211 3.60977 316.153 3.63714 316.084L21.5844 269.899C21.6138 269.817 21.6138 269.727 21.5844 269.645L3.63714 218.691C3.62904 218.644 3.61164 218.598 3.58591 218.557C3.56019 218.516 3.52665 218.481 3.48722 218.453C3.4478 218.425 3.40326 218.405 3.35613 218.394C3.30901 218.384 3.26023 218.382 3.21257 218.39C3.16492 218.398 3.11935 218.416 3.07843 218.442C3.0375 218.467 3.00203 218.501 2.97407 218.54C2.9461 218.58 2.92617 218.624 2.91542 218.671C2.90467 218.718 2.90331 218.767 2.91141 218.815V315.954C2.91172 316.039 2.94163 316.12 2.99597 316.185C3.05031 316.25 3.12567 316.294 3.20896 316.309L3.29605 316.317ZM20.8587 269.761L3.65891 314.031V220.934L20.8587 269.761Z" fill="#303952"/>
<path d="M65.4405 108.489C65.4405 108.489 84.3095 128.302 86.4141 130.225C88.5187 132.148 94.4915 136.031 93.5335 139.464C92.5756 142.896 38.124 214.519 38.124 214.519L34.4954 233.177V286.438C34.4954 286.438 15.6264 274.319 8.13686 257.772C8.13686 257.772 5.05977 246.806 4.2905 237.764V217.951L55.0916 133.687C55.0916 133.687 66.2025 116.545 65.4405 108.489Z" fill="#3C6382"/>
<path d="M34.4739 286.801C34.5324 286.802 34.59 286.787 34.6408 286.758C34.6995 286.727 34.7487 286.682 34.7832 286.625C34.8177 286.569 34.8363 286.504 34.8368 286.438V233.148L38.4654 214.642C41.3684 210.875 92.8952 143.027 93.8822 139.558C94.7313 136.503 90.7615 133.309 88.1417 131.19C87.5466 130.718 87.0385 130.305 86.6539 129.956C84.5711 128.062 65.898 108.439 65.7093 108.235C65.6556 108.183 65.5879 108.148 65.5144 108.134C65.4409 108.12 65.3649 108.127 65.2957 108.156C65.2261 108.187 65.1682 108.24 65.1305 108.307C65.0927 108.373 65.0768 108.45 65.0852 108.526C65.8109 116.385 54.8597 133.324 54.7508 133.491L3.94971 217.763C3.91512 217.819 3.89749 217.885 3.8989 217.951V237.742C4.62463 246.748 7.72351 257.743 7.7598 257.852C15.2348 274.355 34.0748 286.598 34.2634 286.721C34.3249 286.767 34.3977 286.795 34.4739 286.801ZM65.8472 109.433C69.2582 113.018 84.2663 128.766 86.1677 130.479C86.5668 130.842 87.0821 131.263 87.6844 131.742C90.1592 133.738 93.904 136.757 93.1782 139.347C92.4525 141.938 56.6522 189.524 37.834 214.257C37.805 214.302 37.783 214.351 37.7687 214.402L34.1401 233.068V285.742C30.9614 283.565 15.126 272.272 8.47102 257.612C8.47102 257.554 5.4157 246.625 4.66093 237.72V218.053L55.3967 133.868C55.8031 133.237 65.7601 117.83 65.8472 109.433Z" fill="#303952"/>
<path d="M55.0554 133.687C55.0554 133.687 66.2026 116.545 65.4406 108.489C65.4406 108.489 67.7412 110.906 70.8255 114.128C70.9416 115.797 71.0215 118.171 71.0215 121.567C70.9581 129.574 69.5272 137.512 66.7905 145.037L54.4531 144.653L62.574 156.584C62.574 156.584 46.412 178.355 36.2155 187.746C28.3921 195.004 12.8832 208.887 6.07588 214.968L55.0554 133.687Z" fill="#3C6382"/>
<path d="M6.06139 215.331C6.15257 215.332 6.24065 215.298 6.30813 215.237C12.7381 209.489 28.5445 195.323 36.4477 188.015C46.5499 178.675 62.6901 157.019 62.8498 156.808C62.8935 156.747 62.917 156.673 62.917 156.598C62.917 156.523 62.8935 156.449 62.8498 156.388L55.1715 145.044L66.7832 145.407C66.8569 145.408 66.9292 145.387 66.9911 145.347C67.053 145.307 67.1018 145.25 67.1316 145.182C69.8752 137.61 71.3156 129.628 71.3916 121.574C71.3916 118.49 71.3263 115.979 71.1957 114.114C71.1891 114.029 71.1532 113.95 71.094 113.889C68.0097 110.659 65.7164 108.243 65.7164 108.243C65.6637 108.189 65.5959 108.152 65.522 108.138C65.4481 108.124 65.3716 108.132 65.3027 108.163C65.2331 108.194 65.1753 108.247 65.1375 108.314C65.0997 108.38 65.0839 108.457 65.0923 108.533C65.818 116.393 54.8667 133.331 54.7579 133.498L5.76383 214.78C5.72057 214.856 5.7049 214.944 5.71945 215.03C5.734 215.116 5.77788 215.194 5.84365 215.252C5.90693 215.299 5.9826 215.326 6.06139 215.331ZM62.1095 156.547C60.4331 158.79 45.483 178.646 35.9832 187.456C28.7259 194.14 14.8717 206.601 7.67975 213.06L55.3602 133.883C55.8537 133.157 65.7599 117.808 65.847 109.433L70.4699 114.288C70.5933 116.124 70.6586 118.57 70.6586 121.545C70.5778 129.42 69.1872 137.227 66.5437 144.645L54.4893 144.268C54.4225 144.266 54.3564 144.282 54.2983 144.315C54.2402 144.348 54.1923 144.397 54.16 144.455C54.1277 144.514 54.1123 144.58 54.1153 144.647C54.1184 144.714 54.1398 144.779 54.1773 144.834L62.1095 156.547Z" fill="#303952"/>
<path d="M24.4659 209.489L20.6485 208.72C21.4602 212.611 21.5168 216.622 20.8154 220.535C20.2202 224.115 19.2722 227.628 17.9851 231.022L20.9824 231.682C20.9824 231.682 26.2875 220.237 24.4659 209.489Z" fill="white"/>
<path d="M20.9822 232.045C21.0518 232.044 21.1199 232.024 21.1788 231.987C21.2377 231.95 21.2852 231.897 21.316 231.834C21.3668 231.718 26.6429 220.165 24.8213 209.424C24.8093 209.352 24.7758 209.286 24.7252 209.234C24.6746 209.183 24.6094 209.147 24.5382 209.134L20.7209 208.364C20.6606 208.353 20.5983 208.357 20.5399 208.376C20.4815 208.395 20.4289 208.428 20.387 208.473C20.3454 208.517 20.3156 208.57 20.3003 208.629C20.2851 208.687 20.285 208.749 20.3 208.807C21.0981 212.648 21.1597 216.606 20.4814 220.47C19.8876 224.022 18.9469 227.508 17.6728 230.877C17.6515 230.926 17.6404 230.979 17.6404 231.033C17.6404 231.086 17.6515 231.139 17.6728 231.189C17.6978 231.235 17.733 231.276 17.7757 231.307C17.8183 231.339 17.8675 231.36 17.9196 231.37L20.9096 232.038L20.9822 232.045ZM24.11 209.794C25.6268 219.345 21.4974 229.505 20.7354 231.268L18.4421 230.753C19.6436 227.454 20.5447 224.054 21.1345 220.593C21.8079 216.816 21.7907 212.948 21.0837 209.177L24.11 209.794Z" fill="#303952"/>
<path d="M94.1069 138.114C94.1069 138.114 96.03 142.729 94.6874 146.583C93.3448 150.437 86.9875 176.977 86.9875 176.977C86.9875 176.977 91.799 179.088 88.1414 183.9C85.9857 186.72 84.1184 189.75 82.5677 192.943C82.5677 192.943 84.6796 195.446 82.3718 199.293C81.2103 201.153 80.1821 203.093 79.2947 205.099C79.2947 205.099 75.4483 225.296 73.4889 227.219C71.5294 229.142 61.7538 232.611 48.0883 233.569C34.4228 234.527 19.9953 234.919 19.9953 234.919C19.9953 234.919 23.0796 227.988 23.6239 221.449C24.1682 214.91 24.3932 209.526 24.3932 209.526L49.0173 207.218L53.4442 194.517L92.5683 141.22C92.5683 141.22 94.3028 139.079 94.1069 138.114Z" fill="#3C6382"/>
<path d="M20.0388 235.245C20.184 235.245 34.626 234.846 48.1391 233.896C61.6522 232.945 71.6673 229.541 73.7646 227.444C75.7096 225.499 79.2366 207.21 79.6358 205.128C80.5276 203.182 81.5408 201.293 82.6693 199.474C84.7449 196.02 83.4386 193.589 82.9741 192.899C84.5041 189.805 86.3267 186.864 88.4171 184.118C89.6581 182.492 90.1008 180.968 89.7452 179.589C89.363 178.379 88.5178 177.37 87.3938 176.781C88.076 173.936 93.7585 150.277 95.014 146.699C96.3929 142.766 94.506 138.172 94.4262 137.99C94.3921 137.908 94.3289 137.841 94.2486 137.802C94.1683 137.763 94.0765 137.755 93.9907 137.78C93.9042 137.807 93.8305 137.864 93.7837 137.942C93.7369 138.02 93.7202 138.112 93.7367 138.201C93.8456 138.745 92.9457 140.153 92.2852 140.98L53.2264 194.278C53.2025 194.308 53.1851 194.342 53.1756 194.38L48.8213 206.855L24.4222 209.141C24.3349 209.15 24.2536 209.19 24.1936 209.254C24.1335 209.318 24.0987 209.402 24.0957 209.489C24.0957 209.54 23.8997 214.939 23.3264 221.398C22.7531 227.857 19.734 234.679 19.6977 234.745C19.6679 234.799 19.6522 234.86 19.6522 234.922C19.6522 234.985 19.6679 235.046 19.6977 235.1C19.7373 235.152 19.7895 235.192 19.8492 235.218C19.909 235.243 19.9743 235.253 20.0388 235.245ZM94.1649 139.449C94.6293 141.031 95.2317 143.963 94.339 146.496C93.0037 150.313 86.8931 175.844 86.6391 176.926C86.6179 177.009 86.6267 177.096 86.6639 177.173C86.701 177.25 86.7642 177.312 86.8423 177.347C87.3593 177.586 87.8221 177.929 88.2026 178.353C88.5831 178.777 88.8734 179.274 89.0557 179.814C89.3533 180.968 88.9469 182.274 87.8583 183.719C85.6842 186.559 83.8 189.61 82.2339 192.826C82.2059 192.889 82.1959 192.958 82.2048 193.026C82.2138 193.094 82.2415 193.158 82.2847 193.211C82.3645 193.305 84.2006 195.577 82.0597 199.14C80.8906 201 79.8551 202.94 78.9608 204.946C77.8722 210.607 74.7806 225.441 73.2639 226.95C71.2971 228.917 61.2095 232.27 48.1028 233.192C36.121 234.041 23.428 234.44 20.5976 234.527C21.3234 232.771 23.5731 226.958 24.0594 221.464C24.5456 215.97 24.7851 211.086 24.7851 209.852L49.097 207.573C49.1661 207.569 49.2323 207.544 49.2868 207.501C49.3412 207.458 49.3814 207.4 49.4019 207.334L53.8651 194.655L92.8803 141.409C93.381 140.793 93.8118 140.123 94.1649 139.413V139.449Z" fill="#303952"/>
<path d="M70.4479 184.074C70.5436 184.072 70.6348 184.033 70.7025 183.966C70.7701 183.898 70.809 183.807 70.8108 183.711C70.8108 183.615 70.7726 183.523 70.7045 183.455C70.6365 183.387 70.5442 183.348 70.4479 183.348C68.5901 183.285 66.745 183.014 64.9469 182.543C69.5807 182.069 74.2378 181.861 78.8954 181.919C78.9917 181.919 79.084 181.881 79.152 181.812C79.2201 181.744 79.2583 181.652 79.2583 181.556C79.2583 181.46 79.2201 181.367 79.152 181.299C79.084 181.231 78.9917 181.193 78.8954 181.193C75.9925 181.193 72.2187 181.273 69.265 181.44C63.6261 181.759 63.5753 182.122 63.5245 182.47C63.4737 182.819 63.9889 183.044 64.1849 183.094C66.2241 183.678 68.3278 184.007 70.4479 184.074Z" fill="#303952"/>
<path d="M82.7567 185.801C82.8129 185.801 82.8683 185.788 82.9186 185.762C82.9689 185.737 83.0128 185.701 83.0469 185.656C83.2066 185.446 84.6 183.537 84.1936 182.303C84.1217 182.09 83.9967 181.899 83.8303 181.748C83.6639 181.597 83.4618 181.491 83.2429 181.44C82.3873 181.256 81.5117 181.183 80.6375 181.222C80.5908 181.221 80.5444 181.229 80.5009 181.246C80.4574 181.263 80.4176 181.289 80.3839 181.321C80.3502 181.353 80.3232 181.392 80.3045 181.435C80.2857 181.478 80.2756 181.524 80.2747 181.57C80.2727 181.618 80.2802 181.666 80.2966 181.71C80.3131 181.755 80.3382 181.796 80.3706 181.831C80.4029 181.866 80.4419 181.895 80.4852 181.915C80.5285 181.935 80.5753 181.946 80.623 181.948C81.4349 181.933 82.2463 181.994 83.0469 182.129C83.153 182.148 83.252 182.195 83.3337 182.265C83.4154 182.336 83.4768 182.426 83.5114 182.528C83.7291 183.189 82.9889 184.531 82.4736 185.221C82.4177 185.298 82.394 185.395 82.4076 185.489C82.4211 185.584 82.4708 185.67 82.5462 185.729C82.6068 185.775 82.6805 185.8 82.7567 185.801Z" fill="#303952"/>
<path d="M71.4062 212.16C71.4582 212.159 71.5095 212.148 71.557 212.127C71.6045 212.106 71.647 212.075 71.682 212.037C71.7443 211.963 71.7754 211.868 71.7686 211.772C71.7618 211.675 71.7177 211.585 71.6457 211.521C71.6457 211.521 70.6732 210.679 69.2871 209.649C69.2091 209.592 69.1118 209.569 69.0166 209.584C68.9213 209.599 68.8359 209.651 68.7791 209.729C68.7223 209.807 68.6988 209.904 68.7138 209.999C68.7288 210.095 68.781 210.18 68.8589 210.237C70.2233 211.245 71.1595 212.058 71.1667 212.066C71.2316 212.126 71.3173 212.16 71.4062 212.16Z" fill="#303952"/>
<path d="M66.9279 208.836C66.9882 208.834 67.0473 208.818 67.1002 208.789C67.1532 208.76 67.1986 208.719 67.2327 208.669C67.2845 208.588 67.3022 208.49 67.2818 208.396C67.2613 208.302 67.2046 208.22 67.1238 208.168C66.4707 207.747 65.832 207.377 65.2224 207.051C61.8841 205.287 51.2231 206.572 50.7731 206.623C50.6774 206.635 50.5904 206.685 50.5308 206.761C50.4711 206.837 50.4435 206.933 50.4538 207.029C50.4592 207.077 50.474 207.123 50.4975 207.165C50.5209 207.207 50.5524 207.244 50.5902 207.274C50.628 207.303 50.6714 207.325 50.7177 207.338C50.7641 207.351 50.8125 207.354 50.8602 207.348C50.9691 207.348 61.7462 206.035 64.8813 207.689C65.4764 208.009 66.1006 208.372 66.7319 208.778C66.7903 208.816 66.8584 208.836 66.9279 208.836Z" fill="#303952"/>
<path d="M20.6484 208.713L16.5263 203.974C16.5263 203.974 14.0443 197.021 13.5508 196.354C13.0573 195.686 9.08029 189.902 8.41988 188.574C7.75947 187.246 7.59254 182.282 5.60404 182.949C3.61554 183.617 4.27596 185.598 4.6098 189.401C4.95947 192.102 5.74114 194.728 6.92488 197.181C6.92488 197.181 5.43712 210.759 5.43712 211.587C5.43712 212.414 9.06577 225.659 9.06577 225.659L18.8341 229.628C18.8341 229.628 23.2828 221.246 20.6484 208.713Z" fill="white"/>
<path d="M18.8486 229.998C18.9137 229.998 18.9775 229.98 19.0336 229.947C19.0897 229.914 19.136 229.866 19.1679 229.81C19.2115 229.723 23.6311 221.159 21.004 208.647C20.9911 208.586 20.9637 208.529 20.9242 208.48L16.8456 203.792C16.5045 202.827 14.3418 196.818 13.8411 196.143C13.3403 195.468 9.37782 189.699 8.76094 188.421C8.54122 187.833 8.37838 187.226 8.2747 186.607C7.9336 185.032 7.54897 183.247 6.59826 182.695C6.43418 182.602 6.25169 182.546 6.06362 182.531C5.87555 182.516 5.68647 182.542 5.50967 182.608C3.59374 183.247 3.78969 184.981 4.05821 187.608C4.12352 188.16 4.18884 188.777 4.2469 189.445C4.59024 192.155 5.36957 194.792 6.55472 197.253C6.40232 198.611 5.10326 210.781 5.10326 211.594C5.10326 212.407 8.38356 224.403 8.73191 225.76C8.74644 225.813 8.77295 225.863 8.80943 225.904C8.8459 225.946 8.89138 225.978 8.94238 226L18.7107 229.969C18.7537 229.99 18.801 230 18.8486 229.998ZM20.3 208.887C22.5643 219.773 19.3784 227.589 18.6526 229.171L9.36329 225.397C7.91183 220.114 5.79996 212.211 5.78545 211.608C5.77093 211.006 6.75792 201.934 7.27318 197.246C7.27947 197.176 7.26694 197.106 7.23691 197.043C6.07201 194.632 5.30257 192.049 4.95811 189.394C4.90005 188.719 4.82749 188.102 4.76943 187.543C4.45011 184.735 4.40657 183.74 5.70563 183.312C5.78284 183.276 5.86708 183.257 5.95237 183.257C6.03767 183.257 6.12191 183.276 6.19912 183.312C6.87405 183.697 7.25142 185.489 7.52719 186.745C7.64101 187.425 7.82588 188.092 8.07876 188.733C8.74643 190.076 12.7089 195.846 13.246 196.564C13.5798 197.014 15.2199 201.419 16.1489 204.083C16.1616 204.127 16.1868 204.168 16.2214 204.199L20.3 208.887Z" fill="#303952"/>
<path d="M14.2109 202.987L10.4009 197.355L4.77645 190.736C4.77645 190.736 2.78796 184.778 1.96063 185.272C1.1333 185.765 0.305965 187.587 1.30022 190.403C2.22027 192.698 3.32709 194.914 4.60954 197.028L8.91312 206.956L10.234 209.438" fill="white"/>
<path d="M10.2342 209.801C10.2948 209.801 10.3545 209.786 10.4083 209.758C10.4925 209.713 10.5557 209.637 10.5842 209.546C10.6128 209.455 10.6043 209.356 10.5607 209.272L9.23264 206.79L4.94358 196.883C3.66432 194.778 2.55993 192.572 1.64151 190.286C0.741607 187.725 1.40928 186.106 2.07695 185.627C2.56319 185.976 3.6663 188.53 4.42831 190.852C4.44264 190.897 4.46756 190.936 4.50089 190.969L10.1253 197.595L13.9136 203.19C13.972 203.257 14.0529 203.3 14.141 203.311C14.2291 203.322 14.3182 203.301 14.3916 203.251C14.4649 203.201 14.5173 203.126 14.5389 203.039C14.5605 202.953 14.5497 202.862 14.5087 202.783L10.7059 197.152L5.09597 190.569C4.55167 188.937 3.23086 185.286 2.28016 184.931C2.19755 184.9 2.10911 184.888 2.02125 184.895C1.9334 184.903 1.8483 184.93 1.77214 184.974C0.850461 185.526 -0.129271 187.463 0.959325 190.54C1.88562 192.859 3.00222 195.097 4.29769 197.232L8.57949 207.116L9.91483 209.627C9.94802 209.682 9.99502 209.727 10.0511 209.757C10.1072 209.788 10.1703 209.803 10.2342 209.801Z" fill="#303952"/>
<path d="M11.0469 207.457C11.0469 207.457 8.39797 201.651 8.06414 200.664C7.7303 199.677 4.7548 196.862 3.92746 195.207C3.10013 193.552 1.27855 193.712 1.27855 195.533C1.26178 197.227 1.7193 198.891 2.59937 200.338C3.4267 201.659 5.4152 205.962 5.4152 205.962L8.39796 214.569" fill="white"/>
<path d="M8.41998 214.932C8.45836 214.939 8.49772 214.939 8.5361 214.932C8.62669 214.899 8.70088 214.832 8.74289 214.746C8.7849 214.659 8.79143 214.559 8.76107 214.468L5.77831 205.861C5.68397 205.65 3.76079 201.506 2.93346 200.156C2.08422 198.771 1.64396 197.173 1.66343 195.548C1.66343 194.953 1.88841 194.546 2.27304 194.452C2.65768 194.358 3.23825 194.612 3.62289 195.381C4.30933 196.514 5.11198 197.572 6.01781 198.538C6.67761 199.222 7.25711 199.979 7.74506 200.795C8.07889 201.797 10.648 207.385 10.7351 207.617C10.7781 207.699 10.8507 207.761 10.9381 207.791C11.0254 207.821 11.1209 207.816 11.2051 207.779C11.2894 207.741 11.3559 207.672 11.3913 207.587C11.4267 207.501 11.4282 207.406 11.3955 207.319C11.3955 207.261 8.75382 201.513 8.42724 200.57C7.93195 199.648 7.30348 198.805 6.56211 198.066C5.70227 197.139 4.93424 196.13 4.2688 195.054C4.11041 194.62 3.80777 194.254 3.41147 194.016C3.01517 193.778 2.54924 193.684 2.09161 193.748C1.71556 193.862 1.39189 194.105 1.178 194.434C0.964114 194.764 0.87382 195.158 0.923175 195.548C0.903661 197.309 1.38163 199.04 2.30208 200.541C3.10764 201.833 5.07435 206.086 5.09612 206.129L8.05711 214.707C8.08696 214.778 8.13787 214.837 8.20284 214.877C8.26782 214.918 8.34367 214.937 8.41998 214.932Z" fill="#303952"/>
<path d="M9.08008 212.755L4.27575 203.981C4.27575 203.981 1.13333 200.352 0.799496 201.165C0.522253 201.668 0.363141 202.227 0.33422 202.801C0.3053 203.374 0.407321 203.946 0.632569 204.474C1.51608 205.877 2.51371 207.205 3.61533 208.444L7.59232 219.207" fill="white"/>
<path d="M7.5927 219.599H7.71608C7.7608 219.583 7.80183 219.558 7.83676 219.525C7.87169 219.493 7.89979 219.454 7.91942 219.411C7.93904 219.368 7.94978 219.321 7.951 219.273C7.95222 219.226 7.94392 219.178 7.92655 219.134L3.9568 208.372C3.94379 208.331 3.92143 208.293 3.89149 208.263C2.82184 207.043 1.85113 205.74 0.988569 204.366C0.786943 203.904 0.693247 203.403 0.714627 202.9C0.736007 202.397 0.871885 201.905 1.11193 201.463C2.1981 202.246 3.17443 203.171 4.01485 204.213L8.79741 212.958C8.82028 213 8.85119 213.037 8.88837 213.067C8.92555 213.097 8.96828 213.12 9.0141 213.133C9.05993 213.146 9.10795 213.151 9.15545 213.146C9.20294 213.141 9.24897 213.126 9.2909 213.103C9.33283 213.08 9.36986 213.05 9.39984 213.012C9.42983 212.975 9.45221 212.933 9.46569 212.887C9.47917 212.841 9.48349 212.793 9.4784 212.745C9.47332 212.698 9.45893 212.652 9.43606 212.61L4.63173 203.836L4.58818 203.77C3.55765 202.573 1.68527 200.57 0.915992 200.715C0.823202 200.731 0.736133 200.771 0.663532 200.83C0.590933 200.89 0.535346 200.968 0.50232 201.056C0.200987 201.609 0.0305567 202.224 0.00413418 202.853C-0.0222874 203.482 0.0960102 204.109 0.349924 204.685C1.22538 206.102 2.22344 207.441 3.33266 208.684L7.2879 219.381C7.31269 219.443 7.35454 219.496 7.40854 219.534C7.46254 219.573 7.52643 219.595 7.5927 219.599Z" fill="#303952"/>
<path d="M8.57929 216.892C8.57929 216.892 2.29447 209.279 1.96063 210.106C1.45944 211.439 1.45944 212.909 1.96063 214.243C2.66724 215.517 3.43748 216.755 4.26845 217.951C4.26845 217.951 5.26996 222.516 5.77072 223.844C6.27147 225.172 9.24696 226.021 10.0743 226.326L14.2109 227.647" fill="white"/>
<path d="M14.211 228.01C14.3072 228.024 14.4052 228 14.4835 227.942C14.5618 227.884 14.6138 227.798 14.6283 227.701C14.6427 227.605 14.6183 227.507 14.5605 227.429C14.5026 227.351 14.4161 227.299 14.3198 227.284L10.1832 225.956L9.65338 225.767C8.61558 225.404 6.46743 224.65 6.10457 223.692C5.62559 222.407 4.65311 217.886 4.65311 217.85C4.64126 217.805 4.62158 217.764 4.59504 217.726C4.59504 217.726 2.9549 215.346 2.31626 214.054C1.88599 212.905 1.85784 211.644 2.23641 210.476C3.12181 211.071 5.91588 214.17 8.33256 217.102C8.36267 217.139 8.39984 217.169 8.44188 217.191C8.48393 217.214 8.53 217.227 8.57736 217.231C8.62472 217.235 8.67241 217.23 8.71762 217.215C8.76283 217.2 8.80463 217.177 8.84056 217.146C8.91424 217.085 8.9609 216.997 8.97041 216.902C8.97993 216.807 8.95153 216.712 8.89137 216.638C4.97968 211.906 2.6646 209.562 2.01144 209.663C1.93185 209.673 1.85654 209.705 1.7938 209.755C1.73105 209.805 1.6833 209.871 1.65584 209.946C1.32926 210.745 0.930109 212.849 1.65584 214.381C2.35631 215.651 3.12176 216.884 3.94915 218.075C4.07978 218.677 4.97969 222.69 5.45142 223.946C5.92314 225.201 7.73746 225.854 9.43567 226.45L9.95819 226.638L14.1239 227.974C14.1507 227.99 14.1801 228.003 14.211 228.01Z" fill="#303952"/>
</svg>
